fegish_cute
<glyph name="exclam" format="2">
  <advance width="130"/>
  <unicode hex="0021"/>
  <outline>
    <contour>
      <point x="61.666" y="585.812" type="curve" smooth="yes"/>
      <point x="88.9209" y="585.812"/>
      <point x="97.6396" y="538.442"/>
      <point x="101.701" y="468.959" type="curve" smooth="yes"/>
      <point x="104.376" y="423.203"/>
      <point x="105.947" y="352.213"/>
      <point x="105.947" y="272.912" type="curve" smooth="yes"/>
      <point x="105.947" y="173.824"/>
      <point x="103.494" y="78.4375"/>
      <point x="99.584" y="21.2061" type="curve" smooth="yes"/>
      <point x="94.8867" y="-47.5469"/>
      <point x="85.8281" y="-94.2529"/>
      <point x="58.7832" y="-94.2529" type="curve" smooth="yes"/>
      <point x="42.1113" y="-94.2529"/>
      <point x="34.459" y="-76.5039"/>
      <point x="29.2158" y="11.9141" type="curve" smooth="yes"/>
      <point x="25.751" y="70.3467"/>
      <point x="24" y="148.491"/>
      <point x="24" y="233.665" type="curve" smooth="yes"/>
      <point x="24" y="327.81"/>
      <point x="26.1387" y="415.618"/>
      <point x="30.2334" y="478.308" type="curve" smooth="yes"/>
      <point x="36.0176" y="566.875"/>
      <point x="44.4346" y="585.812"/>
    </contour>
    <contour>
      <point x="92.4727" y="-165.038" type="curve" smooth="yes"/>
      <point x="92.4727" y="-173.391"/>
      <point x="89.7021" y="-184.941"/>
      <point x="87.332" y="-189.369" type="curve" smooth="yes"/>
      <point x="83.7168" y="-196.122"/>
      <point x="73.7822" y="-199.839"/>
      <point x="63.1797" y="-199.839" type="curve" smooth="yes"/>
      <point x="52.6045" y="-199.839"/>
      <point x="43.2441" y="-196.141"/>
      <point x="40.1211" y="-189.424" type="curve" smooth="yes"/>
      <point x="38.2803" y="-185.466"/>
      <point x="36.2051" y="-175.297"/>
      <point x="36.2051" y="-167.52" type="curve" smooth="yes"/>
      <point x="36.2051" y="-150.447"/>
      <point x="46.2061" y="-141.201"/>
      <point x="65.0566" y="-141.201" type="curve" smooth="yes"/>
      <point x="83.1152" y="-141.201"/>
      <point x="92.4727" y="-149.688"/>
    </contour>
  </outline>
</glyph>
<glyph name="quotedbl" format="2">
  <advance width="166"/>
  <unicode hex="0022"/>
  <outline>
    <contour>
      <point x="66.5176" y="659.87" type="curve" smooth="yes"/>
      <point x="66.5176" y="623.147"/>
      <point x="61.9561" y="610.977"/>
      <point x="47.8066" y="610.977" type="curve" smooth="yes"/>
      <point x="47.7461" y="610.977"/>
      <point x="47.627" y="610.977"/>
      <point x="47.2783" y="610.978" type="curve" smooth="yes"/>
      <point x="42.959" y="610.99"/>
      <point x="38.2773" y="611.055"/>
      <point x="31.6963" y="611.193" type="curve" smooth="yes"/>
      <point x="31.2646" y="611.202"/>
      <point x="31.0322" y="611.208"/>
      <point x="29.5684" y="611.239" type="curve" smooth="yes"/>
      <point x="27.9951" y="611.273"/>
      <point x="27.9951" y="611.273"/>
      <point x="28.001" y="611.629" type="curve" smooth="yes"/>
      <point x="29.2471" y="694.589"/>
      <point x="32.291" y="706.743"/>
      <point x="47.3008" y="706.743" type="curve" smooth="yes"/>
      <point x="62.5205" y="706.743"/>
      <point x="66.5176" y="694.245"/>
    </contour>
    <contour>
      <point x="138.558" y="659.88" type="curve" smooth="yes"/>
      <point x="138.558" y="623.148"/>
      <point x="133.996" y="610.977"/>
      <point x="119.848" y="610.977" type="curve" smooth="yes"/>
      <point x="119.787" y="610.977"/>
      <point x="119.668" y="610.977"/>
      <point x="119.337" y="610.978" type="curve" smooth="yes"/>
      <point x="115.2" y="610.99"/>
      <point x="110.198" y="611.056"/>
      <point x="103.128" y="611.206" type="curve" smooth="yes"/>
      <point x="102.826" y="611.213"/>
      <point x="102.978" y="611.21"/>
      <point x="101.484" y="611.242" type="curve" smooth="yes"/>
      <point x="100.036" y="611.273"/>
      <point x="100.036" y="611.273"/>
      <point x="100.049" y="612.094" type="curve" smooth="yes"/>
      <point x="101.282" y="694.463"/>
      <point x="104.325" y="706.743"/>
      <point x="119.382" y="706.743" type="curve" smooth="yes"/>
      <point x="134.561" y="706.743"/>
      <point x="138.558" y="694.262"/>
    </contour>
  </outline>
</glyph>
<glyph name="numbersign" format="2">
  <advance width="692"/>
  <unicode hex="0023"/>
  <outline>
    <contour>
      <point x="239.203" y="461.978" type="curve" smooth="yes"/>
      <point x="248.928" y="461.978"/>
      <point x="259.061" y="460.891"/>
      <point x="259.061" y="452.869" type="curve" smooth="yes"/>
      <point x="259.061" y="429.885"/>
      <point x="175.857" y="13.4531"/>
      <point x="147.011" y="-100.187" type="curve" smooth="yes"/>
      <point x="132.641" y="-156.798"/>
      <point x="116.053" y="-200.146"/>
      <point x="89.6494" y="-200.146" type="curve" smooth="yes"/>
      <point x="80.7539" y="-200.146"/>
      <point x="76.1963" y="-195.226"/>
      <point x="76.1963" y="-171.809" type="curve" smooth="yes"/>
      <point x="76.1963" y="-94.2607"/>
      <point x="126.18" y="193.315"/>
      <point x="166.509" y="354.588" type="curve" smooth="yes"/>
      <point x="188.985" y="444.468"/>
      <point x="200.176" y="461.978"/>
    </contour>
    <contour>
      <point x="416.498" y="461.978" type="curve" smooth="yes"/>
      <point x="426.223" y="461.978"/>
      <point x="436.355" y="460.891"/>
      <point x="436.355" y="452.869" type="curve" smooth="yes"/>
      <point x="436.355" y="429.885"/>
      <point x="353.152" y="13.4531"/>
      <point x="324.307" y="-100.186" type="curve" smooth="yes"/>
      <point x="309.936" y="-156.798"/>
      <point x="293.348" y="-200.146"/>
      <point x="266.943" y="-200.146" type="curve" smooth="yes"/>
      <point x="258.048" y="-200.146"/>
      <point x="253.49" y="-195.226"/>
      <point x="253.49" y="-171.81" type="curve" smooth="yes"/>
      <point x="253.49" y="-94.2666"/>
      <point x="303.47" y="193.289"/>
      <point x="343.8" y="354.57" type="curve" smooth="yes"/>
      <point x="366.28" y="444.47"/>
      <point x="377.471" y="461.978"/>
    </contour>
    <contour>
      <point x="593.794" y="461.978" type="curve" smooth="yes"/>
      <point x="603.518" y="461.978"/>
      <point x="613.651" y="460.891"/>
      <point x="613.651" y="452.869" type="curve" smooth="yes"/>
      <point x="613.651" y="429.884"/>
      <point x="530.447" y="13.4521"/>
      <point x="501.601" y="-100.188" type="curve" smooth="yes"/>
      <point x="487.23" y="-156.798"/>
      <point x="470.643" y="-200.146"/>
      <point x="444.238" y="-200.146" type="curve" smooth="yes"/>
      <point x="435.343" y="-200.146"/>
      <point x="430.785" y="-195.226"/>
      <point x="430.785" y="-171.809" type="curve" smooth="yes"/>
      <point x="430.785" y="-94.2646"/>
      <point x="480.765" y="193.296"/>
      <point x="521.093" y="354.567" type="curve" smooth="yes"/>
      <point x="543.572" y="444.467"/>
      <point x="554.765" y="461.978"/>
    </contour>
    <contour>
      <point x="668.926" y="219.23" type="curve" smooth="yes"/>
      <point x="667.733" y="201.947"/>
      <point x="643.071" y="201.445"/>
      <point x="578.323" y="201.445" type="curve" smooth="yes"/>
      <point x="396.626" y="201.445"/>
      <point x="204.463" y="205.396"/>
      <point x="125.913" y="210.764" type="curve" smooth="yes"/>
      <point x="64.6689" y="214.949"/>
      <point x="22" y="223.449"/>
      <point x="22" y="248.996" type="curve" smooth="yes"/>
      <point x="22" y="265.081"/>
      <point x="38.9131" y="272.374"/>
      <point x="123.107" y="277.368" type="curve" smooth="yes"/>
      <point x="178.737" y="280.668"/>
      <point x="253.143" y="282.334"/>
      <point x="334.294" y="282.334" type="curve" smooth="yes"/>
      <point x="424.003" y="282.334"/>
      <point x="507.613" y="280.298"/>
      <point x="565.601" y="276.511" type="curve" smooth="yes"/>
      <point x="645.403" y="271.299"/>
      <point x="669.684" y="263.227"/>
      <point x="669.684" y="237.922" type="curve" smooth="yes"/>
      <point x="669.684" y="233.826"/>
      <point x="669.048" y="220.989"/>
    </contour>
    <contour>
      <point x="668.925" y="30.0693" type="curve" smooth="yes"/>
      <point x="669.043" y="31.79"/>
      <point x="669.684" y="44.6738"/>
      <point x="669.684" y="48.7881" type="curve" smooth="yes"/>
      <point x="669.684" y="74.1123"/>
      <point x="645.409" y="82.1816"/>
      <point x="565.597" y="87.3955" type="curve" smooth="yes"/>
      <point x="507.601" y="91.1836"/>
      <point x="423.986" y="93.2207"/>
      <point x="334.324" y="93.2207" type="curve" smooth="yes"/>
      <point x="253.222" y="93.2207"/>
      <point x="178.778" y="91.5537"/>
      <point x="123.124" y="88.2539" type="curve" smooth="yes"/>
      <point x="38.9141" y="83.2607"/>
      <point x="22" y="75.9678"/>
      <point x="22" y="59.9082" type="curve" smooth="yes"/>
      <point x="22" y="34.333"/>
      <point x="64.8896" y="25.8174"/>
      <point x="125.973" y="21.6445" type="curve" smooth="yes"/>
      <point x="204.891" y="16.252"/>
      <point x="398.704" y="12.332"/>
      <point x="578.942" y="12.332" type="curve" smooth="yes"/>
      <point x="643.131" y="12.332"/>
      <point x="667.737" y="12.8291"/>
    </contour>
  </outline>
</glyph>
<glyph name="dollar" format="2">
  <advance width="322"/>
  <unicode hex="0024"/>
  <outline>
    <contour>
      <point x="268.318" y="-16.5342" type="curve" smooth="yes"/>
      <point x="268.318" y="-89.249"/>
      <point x="211.733" y="-140.743"/>
      <point x="142.213" y="-140.743" type="curve" smooth="yes"/>
      <point x="84.5469" y="-140.743"/>
      <point x="21" y="-105.313"/>
      <point x="21" y="-76.3545" type="curve" smooth="yes"/>
      <point x="21" y="-67.9688"/>
      <point x="26.3271" y="-62.7266"/>
      <point x="38.2969" y="-58.4355" type="curve" smooth="yes"/>
      <point x="38.541" y="-58.3486"/>
      <point x="38.541" y="-58.3486"/>
      <point x="38.541" y="-58.3486" type="curve" smooth="yes"/>
      <point x="38.541" y="-76.751"/>
      <point x="88.6357" y="-103.187"/>
      <point x="131.624" y="-103.187" type="curve" smooth="yes"/>
      <point x="181.629" y="-103.187"/>
      <point x="222.957" y="-67.418"/>
      <point x="222.957" y="-13.1553" type="curve" smooth="yes"/>
      <point x="222.957" y="21.7246"/>
      <point x="205.88" y="62.418"/>
      <point x="143.642" y="167.417" type="curve" smooth="yes"/>
      <point x="75.5645" y="282.269"/>
      <point x="54.7588" y="331.582"/>
      <point x="54.7588" y="386.428" type="curve" smooth="yes"/>
      <point x="54.7588" y="488.243"/>
      <point x="126.459" y="587.223"/>
      <point x="211.046" y="587.223" type="curve" smooth="yes"/>
      <point x="255.758" y="587.223"/>
      <point x="301.262" y="559.568"/>
      <point x="301.262" y="526.51" type="curve" smooth="yes"/>
      <point x="301.262" y="514.443"/>
      <point x="295.198" y="505.272"/>
      <point x="285.85" y="505.272" type="curve" smooth="yes"/>
      <point x="280.522" y="505.272"/>
      <point x="274.732" y="508.25"/>
      <point x="260.009" y="518.503" type="curve" smooth="yes"/>
      <point x="234.436" y="536.311"/>
      <point x="222.152" y="541.677"/>
      <point x="209.722" y="541.677" type="curve" smooth="yes"/>
      <point x="160.019" y="541.677"/>
      <point x="103.684" y="455.896"/>
      <point x="103.684" y="379.455" type="curve" smooth="yes"/>
      <point x="103.684" y="335.021"/>
      <point x="122.719" y="286.711"/>
      <point x="190.747" y="169.748" type="curve" smooth="yes"/>
      <point x="250.368" y="67.2402"/>
      <point x="268.318" y="24.4209"/>
    </contour>
    <contour>
      <point x="170.336" y="-200.056" type="curve" smooth="yes"/>
      <point x="157.728" y="-200.056"/>
      <point x="152.544" y="-90.5684"/>
      <point x="152.544" y="198.08" type="curve" smooth="yes"/>
      <point x="152.544" y="325.335"/>
      <point x="153.552" y="432.088"/>
      <point x="155.662" y="509.002" type="curve" smooth="yes"/>
      <point x="158.535" y="613.676"/>
      <point x="162.71" y="636.031"/>
      <point x="171.26" y="636.031" type="curve" smooth="yes"/>
      <point x="184.784" y="636.031"/>
      <point x="189.109" y="580.099"/>
      <point x="191.088" y="499.605" type="curve" smooth="yes"/>
      <point x="192.663" y="435.507"/>
      <point x="193.214" y="336.967"/>
      <point x="193.214" y="256.743" type="curve" smooth="yes"/>
      <point x="193.214" y="-69.9053"/>
      <point x="184.083" y="-200.056"/>
    </contour>
  </outline>
</glyph>
<glyph name="percent" format="2">
  <advance width="560"/>
  <unicode hex="0025"/>
  <outline>
    <contour>
      <point x="492.821" y="292.43" type="curve" smooth="yes"/>
      <point x="505.391" y="292.43"/>
      <point x="537.609" y="262.437"/>
      <point x="537.609" y="254.536" type="curve" smooth="yes"/>
      <point x="537.609" y="251.336"/>
      <point x="532.324" y="245.227"/>
      <point x="441.891" y="155.635" type="curve" smooth="yes"/>
      <point x="172.011" y="-111.737"/>
      <point x="74.7979" y="-200.233"/>
      <point x="43.9443" y="-200.233" type="curve" smooth="yes"/>
      <point x="33.2949" y="-200.233"/>
      <point x="22" y="-189.688"/>
      <point x="22" y="-181.521" type="curve" smooth="yes"/>
      <point x="22" y="-145.937"/>
      <point x="236.381" y="82.2734"/>
      <point x="393.217" y="219.882" type="curve" smooth="yes"/>
      <point x="454.673" y="273.805"/>
      <point x="482.916" y="292.43"/>
    </contour>
    <contour>
      <point x="182.62" y="200.325" type="curve" smooth="yes"/>
      <point x="184.555" y="198.354"/>
      <point x="184.555" y="198.354"/>
      <point x="183.507" y="197.379" type="curve" smooth="yes"/>
      <point x="149.943" y="166.106"/>
      <point x="134.916" y="155.704"/>
      <point x="122.751" y="155.704" type="curve" smooth="yes"/>
      <point x="114.863" y="155.704"/>
      <point x="108.573" y="160.077"/>
      <point x="100.338" y="168.32" type="curve" smooth="yes"/>
      <point x="88.5049" y="180.166"/>
      <point x="84.5029" y="188.199"/>
      <point x="84.5029" y="195.075" type="curve" smooth="yes"/>
      <point x="84.5029" y="197.615"/>
      <point x="85.0488" y="199.997"/>
      <point x="85.9482" y="202.354" type="curve" smooth="yes"/>
      <point x="91.2246" y="216.181"/>
      <point x="110.789" y="234.766"/>
      <point x="125.754" y="239.847" type="curve" smooth="yes"/>
      <point x="128.426" y="240.754"/>
      <point x="130.936" y="241.227"/>
      <point x="133.599" y="241.227" type="curve" smooth="yes"/>
      <point x="141.451" y="241.227"/>
      <point x="146.499" y="237.115"/>
    </contour>
    <contour>
      <point x="478.946" y="-96.0117" type="curve" smooth="yes"/>
      <point x="480.152" y="-97.2402"/>
      <point x="480.152" y="-97.2402"/>
      <point x="479.713" y="-97.6504" type="curve" smooth="yes"/>
      <point x="445.621" y="-129.423"/>
      <point x="430.535" y="-139.892"/>
      <point x="418.335" y="-139.892" type="curve" smooth="yes"/>
      <point x="410.481" y="-139.892"/>
      <point x="404.207" y="-135.554"/>
      <point x="395.871" y="-127.218" type="curve" smooth="yes"/>
      <point x="384.089" y="-115.437"/>
      <point x="380.053" y="-107.5"/>
      <point x="380.053" y="-100.629" type="curve" smooth="yes"/>
      <point x="380.053" y="-98.1016"/>
      <point x="380.599" y="-95.7197"/>
      <point x="381.505" y="-93.3428" type="curve" smooth="yes"/>
      <point x="386.818" y="-79.4209"/>
      <point x="406.386" y="-60.832"/>
      <point x="421.325" y="-55.7539" type="curve" smooth="yes"/>
      <point x="423.99" y="-54.8477"/>
      <point x="426.519" y="-54.3711"/>
      <point x="429.087" y="-54.3711" type="curve" smooth="yes"/>
      <point x="436.549" y="-54.3711"/>
      <point x="442.011" y="-58.3926"/>
    </contour>
  </outline>
</glyph>
<glyph name="ampersand" format="2">
  <advance width="437"/>
  <unicode hex="0026"/>
  <outline>
    <contour>
      <point x="64.6592" y="-32.5352" type="curve" smooth="yes"/>
      <point x="64.6592" y="-99.9463"/>
      <point x="91.7109" y="-130.979"/>
      <point x="146.496" y="-130.979" type="curve" smooth="yes"/>
      <point x="210.037" y="-130.979"/>
      <point x="256.214" y="-89.2354"/>
      <point x="256.214" y="-24.7578" type="curve" smooth="yes"/>
      <point x="256.214" y="18.5938"/>
      <point x="235.339" y="67.8262"/>
      <point x="164.408" y="189.29" type="curve" smooth="yes"/>
      <point x="80.6709" y="332.685"/>
      <point x="56.6533" y="392.623"/>
      <point x="56.6533" y="452.882" type="curve" smooth="yes"/>
      <point x="56.6533" y="568.226"/>
      <point x="144.651" y="687.57"/>
      <point x="214.439" y="687.57" type="curve" smooth="yes"/>
      <point x="246.12" y="687.57"/>
      <point x="271.517" y="662.978"/>
      <point x="289.613" y="628.127" type="curve" smooth="yes"/>
      <point x="294.943" y="617.863"/>
      <point x="297.429" y="610.967"/>
      <point x="297.429" y="606.454" type="curve" smooth="yes"/>
      <point x="297.429" y="602.488"/>
      <point x="295.51" y="600.524"/>
      <point x="291.681" y="600.524" type="curve" smooth="yes"/>
      <point x="291.15" y="600.524"/>
      <point x="290.584" y="600.562"/>
      <point x="289.826" y="600.657" type="curve" smooth="yes"/>
      <point x="286.535" y="601.07"/>
      <point x="283.466" y="602.097"/>
      <point x="278.009" y="604.094" type="curve" smooth="yes"/>
      <point x="250.617" y="614.118"/>
      <point x="236.689" y="616.752"/>
      <point x="226.765" y="616.752" type="curve" smooth="yes"/>
      <point x="168.962" y="616.752"/>
      <point x="112.57" y="527.416"/>
      <point x="112.57" y="437.058" type="curve" smooth="yes"/>
      <point x="112.57" y="357.405"/>
      <point x="156.389" y="257.751"/>
      <point x="279.417" y="50.1924" type="curve" smooth="yes"/>
      <point x="310.457" y="-2.1748"/>
      <point x="315.371" y="-8.83008"/>
      <point x="320.139" y="-8.83008" type="curve" smooth="yes"/>
      <point x="323.829" y="-8.83008"/>
      <point x="330.464" y="-4.84375"/>
      <point x="352.367" y="15.0039" type="curve" smooth="yes"/>
      <point x="371.396" y="32.248"/>
      <point x="380.448" y="38.9189"/>
      <point x="387.944" y="38.9189" type="curve" smooth="yes"/>
      <point x="391.862" y="38.9189"/>
      <point x="394.383" y="37.0967"/>
      <point x="395.586" y="33.7939" type="curve" smooth="yes"/>
      <point x="397.548" y="28.4072"/>
      <point x="394.951" y="21.9688"/>
      <point x="385.147" y="8.08984" type="curve" smooth="yes"/>
      <point x="382.171" y="3.87695"/>
      <point x="378.697" y="-0.78418"/>
      <point x="370.11" y="-12.0576" type="curve" smooth="yes"/>
      <point x="356.992" y="-29.2803"/>
      <point x="352.28" y="-35.7139"/>
      <point x="348.891" y="-40.9785" type="curve" smooth="yes"/>
      <point x="345.312" y="-46.5361"/>
      <point x="343.948" y="-49.6367"/>
      <point x="343.948" y="-52.2715" type="curve" smooth="yes"/>
      <point x="343.948" y="-57.3301"/>
      <point x="348.973" y="-66.334"/>
      <point x="367.336" y="-94.4033" type="curve" smooth="yes"/>
      <point x="403.979" y="-150.415"/>
      <point x="415.758" y="-173.701"/>
      <point x="415.758" y="-188.709" type="curve" smooth="yes"/>
      <point x="415.758" y="-196.575"/>
      <point x="412.522" y="-200.642"/>
      <point x="406.742" y="-200.642" type="curve" smooth="yes"/>
      <point x="400.751" y="-200.642"/>
      <point x="392.814" y="-196.274"/>
      <point x="383.373" y="-187.598" type="curve" smooth="yes"/>
      <point x="373.046" y="-178.106"/>
      <point x="363.238" y="-165.59"/>
      <point x="344.699" y="-137.49" type="curve" smooth="yes"/>
      <point x="323.679" y="-105.628"/>
      <point x="316.336" y="-97.5176"/>
      <point x="308.044" y="-97.5176" type="curve" smooth="yes"/>
      <point x="304.793" y="-97.5176"/>
      <point x="302.16" y="-98.7646"/>
      <point x="299.357" y="-101.452" type="curve" smooth="yes"/>
      <point x="299.302" y="-101.506"/>
      <point x="298.469" y="-102.302"/>
      <point x="298.285" y="-102.479" type="curve" smooth="yes"/>
      <point x="289.447" y="-110.929"/>
      <point x="277.521" y="-125.658"/>
      <point x="272.457" y="-132.353" type="curve" smooth="yes"/>
      <point x="243.934" y="-170.062"/>
      <point x="211.158" y="-181.306"/>
      <point x="172.174" y="-181.306" type="curve" smooth="yes"/>
      <point x="81.9609" y="-181.306"/>
      <point x="21" y="-121.096"/>
      <point x="21" y="-28.2979" type="curve" smooth="yes"/>
      <point x="21" y="12.9775"/>
      <point x="33.0605" y="70.3652"/>
      <point x="51.3232" y="115.018" type="curve" smooth="yes"/>
      <point x="60.9023" y="138.438"/>
      <point x="74.4629" y="163.91"/>
      <point x="111.428" y="227.924" type="curve" smooth="yes"/>
      <point x="222.78" y="420.759"/>
      <point x="259.245" y="502.004"/>
      <point x="259.245" y="556.521" type="curve" smooth="yes"/>
      <point x="259.245" y="572.298"/>
      <point x="256.191" y="584.527"/>
      <point x="248.115" y="604.377" type="curve" smooth="yes"/>
      <point x="243.695" y="615.238"/>
      <point x="242.789" y="618.873"/>
      <point x="242.789" y="621.997" type="curve" smooth="yes"/>
      <point x="242.789" y="626.24"/>
      <point x="244.46" y="629.729"/>
      <point x="248.418" y="633.714" type="curve" smooth="yes"/>
      <point x="254.385" y="639.719"/>
      <point x="262.212" y="643.49"/>
      <point x="268.854" y="643.49" type="curve" smooth="yes"/>
      <point x="289.215" y="643.49"/>
      <point x="302.944" y="608.058"/>
      <point x="302.944" y="560.428" type="curve" smooth="yes"/>
      <point x="302.944" y="479.092"/>
      <point x="262.907" y="365.922"/>
      <point x="122.962" y="159.362" type="curve" smooth="yes"/>
      <point x="109.113" y="138.921"/>
      <point x="99.3535" y="123.987"/>
      <point x="91.7266" y="106.38" type="curve" smooth="yes"/>
      <point x="75.791" y="69.5928"/>
      <point x="64.6592" y="10.708"/>
    </contour>
  </outline>
</glyph>
<glyph name="quotesingle" format="2">
  <advance width="110"/>
  <unicode hex="0027"/>
  <outline>
    <contour>
      <point x="82.1768" y="709.29" type="curve" smooth="yes"/>
      <point x="82.1768" y="657.605"/>
      <point x="75.7588" y="640.483"/>
      <point x="55.834" y="640.483" type="curve" smooth="yes"/>
      <point x="55.7627" y="640.483"/>
      <point x="55.5947" y="640.483"/>
      <point x="55.3877" y="640.484" type="curve" smooth="yes"/>
      <point x="49.5215" y="640.501"/>
      <point x="42.2617" y="640.594"/>
      <point x="32.2041" y="640.81" type="curve" smooth="yes"/>
      <point x="31.0469" y="640.834"/>
      <point x="32.0742" y="640.812"/>
      <point x="30.3662" y="640.851" type="curve" smooth="yes"/>
      <point x="27.9717" y="640.903"/>
      <point x="27.9717" y="640.903"/>
      <point x="28.0078" y="643.312" type="curve" smooth="yes"/>
      <point x="29.7285" y="758.116"/>
      <point x="34.0195" y="775.236"/>
      <point x="55.1504" y="775.236" type="curve" smooth="yes"/>
      <point x="76.5518" y="775.236"/>
      <point x="82.1768" y="757.675"/>
    </contour>
  </outline>
</glyph>
<glyph name="parenleft" format="2">
  <advance width="247"/>
  <unicode hex="0028"/>
  <outline>
    <contour>
      <point x="222.679" y="-172.394" type="curve" smooth="yes"/>
      <point x="222.679" y="-191.419"/>
      <point x="195.733" y="-199.604"/>
      <point x="152.41" y="-199.604" type="curve" smooth="yes"/>
      <point x="110.276" y="-199.604"/>
      <point x="92.4443" y="-191.862"/>
      <point x="65.5166" y="-162.167" type="curve"/>
      <point x="32.9609" y="-93.6094"/>
      <point x="23" y="-32.752"/>
      <point x="23" y="90.5684" type="curve" smooth="yes"/>
      <point x="23" y="238.504"/>
      <point x="37.334" y="358.206"/>
      <point x="62.1006" y="424.767" type="curve" smooth="yes"/>
      <point x="86.9092" y="491.436"/>
      <point x="131.576" y="530.028"/>
      <point x="184.614" y="530.028" type="curve" smooth="yes"/>
      <point x="210.002" y="530.028"/>
      <point x="225.965" y="521.186"/>
      <point x="225.965" y="505.191" type="curve" smooth="yes"/>
      <point x="225.965" y="497.529"/>
      <point x="222.301" y="494.911"/>
      <point x="208.81" y="491.156" type="curve" smooth="yes"/>
      <point x="164.192" y="478.738"/>
      <point x="139.027" y="454.257"/>
      <point x="116.811" y="408.689" type="curve" smooth="yes"/>
      <point x="85.4795" y="344.433"/>
      <point x="74.9131" y="268.812"/>
      <point x="74.9131" y="113.851" type="curve" smooth="yes"/>
      <point x="74.9131" y="-71.3711"/>
      <point x="90.0098" y="-139.475"/>
      <point x="135.621" y="-145.92" type="curve" smooth="yes"/>
      <point x="140.136" y="-146.558"/>
      <point x="148.924" y="-147.153"/>
      <point x="156.85" y="-147.153" type="curve" smooth="yes"/>
      <point x="165.299" y="-147.153"/>
      <point x="171.914" y="-146.477"/>
      <point x="184.237" y="-144.108" type="curve" smooth="yes"/>
      <point x="190.091" y="-142.984"/>
      <point x="192.689" y="-142.62"/>
      <point x="194.908" y="-142.62" type="curve" smooth="yes"/>
      <point x="209.938" y="-142.62"/>
      <point x="222.679" y="-159.311"/>
    </contour>
  </outline>
</glyph>
<glyph name="parenright" format="2">
  <advance width="247"/>
  <unicode hex="0029"/>
  <outline>
    <contour>
      <point x="24.2861" y="502.814" type="curve" smooth="yes"/>
      <point x="24.2861" y="521.844"/>
      <point x="51.2363" y="530.028"/>
      <point x="94.5547" y="530.028" type="curve" smooth="yes"/>
      <point x="136.687" y="530.028"/>
      <point x="154.522" y="522.285"/>
      <point x="181.448" y="492.591" type="curve"/>
      <point x="214.004" y="424.033"/>
      <point x="223.965" y="363.176"/>
      <point x="223.965" y="239.855" type="curve" smooth="yes"/>
      <point x="223.965" y="91.9199"/>
      <point x="209.631" y="-27.7822"/>
      <point x="184.864" y="-94.3428" type="curve" smooth="yes"/>
      <point x="160.056" y="-161.013"/>
      <point x="115.388" y="-199.604"/>
      <point x="62.3496" y="-199.604" type="curve" smooth="yes"/>
      <point x="36.9619" y="-199.604"/>
      <point x="21" y="-190.762"/>
      <point x="21" y="-175.243" type="curve" smooth="yes"/>
      <point x="21" y="-167.939"/>
      <point x="24.5361" y="-164.522"/>
      <point x="41.1084" y="-159.909" type="curve" smooth="yes"/>
      <point x="82.5156" y="-148.384"/>
      <point x="106.645" y="-126.485"/>
      <point x="129.51" y="-79.5889" type="curve" smooth="yes"/>
      <point x="161.485" y="-14.0088"/>
      <point x="172.052" y="61.6113"/>
      <point x="172.052" y="216.579" type="curve" smooth="yes"/>
      <point x="172.052" y="401.811"/>
      <point x="156.956" y="469.898"/>
      <point x="111.34" y="476.345" type="curve" smooth="yes"/>
      <point x="106.825" y="476.983"/>
      <point x="98.0352" y="477.579"/>
      <point x="90.1143" y="477.579" type="curve" smooth="yes"/>
      <point x="81.6719" y="477.579"/>
      <point x="75.0547" y="476.901"/>
      <point x="62.748" y="474.536" type="curve" smooth="yes"/>
      <point x="56.8809" y="473.409"/>
      <point x="54.2822" y="473.045"/>
      <point x="52.0605" y="473.045" type="curve" smooth="yes"/>
      <point x="37.0244" y="473.045"/>
      <point x="24.2861" y="489.732"/>
    </contour>
  </outline>
</glyph>
<glyph name="asterisk" format="2">
  <advance width="346"/>
  <unicode hex="002A"/>
  <outline>
    <contour>
      <point x="172.828" y="780.596" type="curve" smooth="yes"/>
      <point x="193.979" y="780.596"/>
      <point x="199.573" y="746.803"/>
      <point x="199.573" y="645.859" type="curve" smooth="yes"/>
      <point x="199.573" y="597.432"/>
      <point x="198.285" y="558.937"/>
      <point x="195.771" y="531.986" type="curve" smooth="yes"/>
      <point x="192.358" y="495.438"/>
      <point x="187.082" y="484.335"/>
      <point x="170.544" y="484.335" type="curve" smooth="yes"/>
      <point x="167.898" y="484.335"/>
      <point x="159.581" y="484.619"/>
      <point x="158.098" y="484.69" type="curve" smooth="yes"/>
      <point x="147.033" y="485.223"/>
      <point x="146.688" y="491.756"/>
      <point x="146.688" y="523.023" type="curve" smooth="yes"/>
      <point x="146.688" y="608.298"/>
      <point x="149.254" y="696.96"/>
      <point x="153.237" y="737.742" type="curve" smooth="yes"/>
      <point x="156.461" y="770.753"/>
      <point x="161.414" y="780.596"/>
    </contour>
    <contour>
      <point x="321.262" y="632.765" type="curve" smooth="yes"/>
      <point x="321.262" y="611.617"/>
      <point x="287.473" y="606.023"/>
      <point x="186.528" y="606.023" type="curve" smooth="yes"/>
      <point x="138.088" y="606.023"/>
      <point x="99.5967" y="607.312"/>
      <point x="72.6484" y="609.828" type="curve" smooth="yes"/>
      <point x="36.1055" y="613.239"/>
      <point x="25" y="618.516"/>
      <point x="25" y="635.037" type="curve" smooth="yes"/>
      <point x="25" y="637.669"/>
      <point x="25.2812" y="645.932"/>
      <point x="25.3574" y="647.501" type="curve" smooth="yes"/>
      <point x="25.8877" y="658.56"/>
      <point x="31.5566" y="658.907"/>
      <point x="63.1631" y="658.907" type="curve" smooth="yes"/>
      <point x="148.989" y="658.907"/>
      <point x="237.585" y="656.347"/>
      <point x="278.389" y="652.36" type="curve" smooth="yes"/>
      <point x="311.415" y="649.135"/>
      <point x="321.262" y="644.181"/>
    </contour>
    <contour>
      <point x="82.0596" y="522.439" type="curve" smooth="yes"/>
      <point x="73.2285" y="522.439"/>
      <point x="51.9893" y="541.786"/>
      <point x="51.9893" y="546.843" type="curve" smooth="yes"/>
      <point x="51.9893" y="548.641"/>
      <point x="54.6748" y="551.631"/>
      <point x="87.3789" y="583.901" type="curve" smooth="yes"/>
      <point x="207.184" y="702.114"/>
      <point x="251.1" y="740.854"/>
      <point x="268.138" y="740.854" type="curve" smooth="yes"/>
      <point x="275.713" y="740.854"/>
      <point x="284.232" y="733.198"/>
      <point x="284.232" y="726.806" type="curve" smooth="yes"/>
      <point x="284.232" y="697.784"/>
      <point x="108.645" y="522.439"/>
    </contour>
    <contour>
      <point x="58.9033" y="717.697" type="curve" smooth="yes"/>
      <point x="58.9033" y="726.528"/>
      <point x="78.251" y="747.769"/>
      <point x="83.3193" y="747.769" type="curve" smooth="yes"/>
      <point x="85.126" y="747.769"/>
      <point x="88.1113" y="745.066"/>
      <point x="119.487" y="713.269" type="curve" smooth="yes"/>
      <point x="238.608" y="592.546"/>
      <point x="277.316" y="548.647"/>
      <point x="277.316" y="531.616" type="curve" smooth="yes"/>
      <point x="277.316" y="524.043"/>
      <point x="269.662" y="515.523"/>
      <point x="263.27" y="515.523" type="curve" smooth="yes"/>
      <point x="234.249" y="515.523"/>
      <point x="58.9033" y="691.113"/>
    </contour>
  </outline>
</glyph>
<glyph name="plus" format="2">
  <advance width="414"/>
  <unicode hex="002B"/>
  <outline>
    <contour>
      <point x="206.787" y="309.79" type="curve" smooth="yes"/>
      <point x="233.224" y="309.79"/>
      <point x="240.218" y="267.551"/>
      <point x="240.218" y="141.395" type="curve" smooth="yes"/>
      <point x="240.218" y="80.8594"/>
      <point x="238.607" y="32.7285"/>
      <point x="235.463" y="-0.962891" type="curve" smooth="yes"/>
      <point x="231.198" y="-46.6631"/>
      <point x="224.602" y="-60.5371"/>
      <point x="203.92" y="-60.5371" type="curve" smooth="yes"/>
      <point x="200.614" y="-60.5371"/>
      <point x="190.252" y="-60.1826"/>
      <point x="188.4" y="-60.0938" type="curve" smooth="yes"/>
      <point x="174.541" y="-59.4277"/>
      <point x="174.11" y="-51.3457"/>
      <point x="174.11" y="-12.2471" type="curve" smooth="yes"/>
      <point x="174.11" y="94.4346"/>
      <point x="177.316" y="205.243"/>
      <point x="182.295" y="256.223" type="curve" smooth="yes"/>
      <point x="186.326" y="297.486"/>
      <point x="192.519" y="309.79"/>
    </contour>
    <contour>
      <point x="392.328" y="125" type="curve" smooth="yes"/>
      <point x="392.328" y="98.5654"/>
      <point x="350.094" y="91.5732"/>
      <point x="223.924" y="91.5732" type="curve" smooth="yes"/>
      <point x="163.369" y="91.5732"/>
      <point x="115.253" y="93.1836"/>
      <point x="81.5605" y="96.3301" type="curve" smooth="yes"/>
      <point x="35.8701" y="100.596"/>
      <point x="22" y="107.191"/>
      <point x="22" y="127.868" type="curve" smooth="yes"/>
      <point x="22" y="131.176"/>
      <point x="22.3555" y="141.542"/>
      <point x="22.4424" y="143.364" type="curve" smooth="yes"/>
      <point x="23.1094" y="157.25"/>
      <point x="31.3604" y="157.68"/>
      <point x="70.3936" y="157.68" type="curve" smooth="yes"/>
      <point x="176.982" y="157.68"/>
      <point x="287.724" y="154.479"/>
      <point x="338.732" y="149.496" type="curve" smooth="yes"/>
      <point x="380.019" y="145.463"/>
      <point x="392.328" y="139.271"/>
    </contour>
  </outline>
</glyph>
<glyph name="comma" format="2">
  <advance width="174"/>
  <unicode hex="002C"/>
  <outline>
    <contour>
      <point x="106.497" y="121.582" type="curve" smooth="yes"/>
      <point x="139.98" y="121.582"/>
      <point x="148.723" y="97.3184"/>
      <point x="148.723" y="27.6494" type="curve" smooth="yes"/>
      <point x="148.723" y="-14.6748"/>
      <point x="145.496" y="-43.6748"/>
      <point x="142.923" y="-56.4414" type="curve" smooth="yes"/>
      <point x="135.879" y="-91.3789"/>
      <point x="116.055" y="-92.4424"/>
      <point x="58.9189" y="-92.4424" type="curve" smooth="yes"/>
      <point x="57.083" y="-92.4424"/>
      <point x="57.6641" y="-92.4414"/>
      <point x="56.2568" y="-92.4492" type="curve" smooth="yes"/>
      <point x="36.9795" y="-92.5625"/>
      <point x="31.1289" y="-91.9326"/>
      <point x="27.3555" y="-89.9395" type="curve" smooth="yes"/>
      <point x="20.8877" y="-86.5244"/>
      <point x="21.7676" y="-79.7637"/>
      <point x="29.0352" y="-77.2246" type="curve" smooth="yes"/>
      <point x="29.9639" y="-76.9004"/>
      <point x="30.9678" y="-76.6553"/>
      <point x="32.3232" y="-76.3555" type="curve" smooth="yes"/>
      <point x="54.4912" y="-71.4463"/>
      <point x="64.0166" y="-62.8818"/>
      <point x="67.9521" y="-46.7383" type="curve" smooth="yes"/>
      <point x="70.2939" y="-37.1318"/>
      <point x="71.4307" y="-21.6611"/>
      <point x="72.7568" y="22.5771" type="curve" smooth="yes"/>
      <point x="73.9258" y="61.5654"/>
      <point x="74.9082" y="76.8887"/>
      <point x="77.2578" y="90.0859" type="curve" smooth="yes"/>
      <point x="81.6973" y="115.029"/>
      <point x="89.0977" y="121.582"/>
    </contour>
  </outline>
</glyph>
<glyph name="hyphen" format="2">
  <advance width="240"/>
  <unicode hex="002D"/>
  <outline>
    <contour>
      <point x="25" y="253.548" type="curve" smooth="yes"/>
      <point x="25" y="299.307"/>
      <point x="63.0049" y="309.047"/>
      <point x="120.297" y="309.047" type="curve" smooth="yes"/>
      <point x="182.467" y="309.047"/>
      <point x="214.56" y="297.577"/>
      <point x="214.687" y="261.654" type="curve" smooth="yes"/>
      <point x="214.688" y="261.292"/>
      <point x="214.699" y="257.082"/>
      <point x="214.699" y="253.258" type="curve" smooth="yes"/>
      <point x="214.699" y="239.667"/>
      <point x="214.55" y="231.339"/>
      <point x="214.276" y="229.72" type="curve" smooth="yes"/>
      <point x="212.889" y="221.511"/>
      <point x="179.722" y="216.705"/>
      <point x="120.933" y="216.705" type="curve" smooth="yes"/>
      <point x="38.6562" y="216.705"/>
      <point x="25" y="226.118"/>
    </contour>
  </outline>
</glyph>
<glyph name="period" format="2">
  <advance width="142"/>
  <unicode hex="002E"/>
  <outline>
    <contour>
      <point x="76.7041" y="-80.9531" type="curve" smooth="yes"/>
      <point x="109.179" y="-80.9531"/>
      <point x="116.34" y="-91.1309"/>
      <point x="116.34" y="-143.422" type="curve" smooth="yes"/>
      <point x="116.34" y="-145.516"/>
      <point x="116.328" y="-148.259"/>
      <point x="116.326" y="-148.646" type="curve" smooth="yes"/>
      <point x="116.21" y="-169.153"/>
      <point x="106.87" y="-173.295"/>
      <point x="77.1807" y="-173.295" type="curve" smooth="yes"/>
      <point x="32.4053" y="-173.295"/>
      <point x="25" y="-163.875"/>
      <point x="25" y="-136.163" type="curve" smooth="yes"/>
      <point x="25" y="-90.6914"/>
      <point x="44.9385" y="-80.9531"/>
    </contour>
  </outline>
</glyph>
<glyph name="slash" format="2">
  <advance width="383"/>
  <unicode hex="002F"/>
  <outline>
    <contour>
      <point x="306.351" y="564.495" type="curve" smooth="yes"/>
      <point x="318.241" y="564.495"/>
      <point x="362.289" y="545.812"/>
      <point x="362.289" y="537.054" type="curve" smooth="yes"/>
      <point x="362.289" y="519.053"/>
      <point x="176.204" y="29.2266"/>
      <point x="117.448" y="-103.308" type="curve" smooth="yes"/>
      <point x="87.9365" y="-169.876"/>
      <point x="66.7627" y="-199.958"/>
      <point x="45.0928" y="-199.958" type="curve" smooth="yes"/>
      <point x="31.4053" y="-199.958"/>
      <point x="22" y="-187.956"/>
      <point x="22" y="-170.04" type="curve" smooth="yes"/>
      <point x="22" y="-106.146"/>
      <point x="141.617" y="244.267"/>
      <point x="227.061" y="438.568" type="curve" smooth="yes"/>
      <point x="266.435" y="528.106"/>
      <point x="289.756" y="564.495"/>
    </contour>
  </outline>
</glyph>
<glyph name="zero" format="2">
  <advance width="447"/>
  <unicode hex="0030"/>
  <outline>
    <contour>
      <point x="211.843" y="-199.918" type="curve" smooth="yes"/>
      <point x="89.1543" y="-199.918"/>
      <point x="23" y="-55.1348"/>
      <point x="23" y="218.267" type="curve" smooth="yes"/>
      <point x="23" y="418.435"/>
      <point x="58.46" y="569.452"/>
      <point x="124.83" y="648.119" type="curve" smooth="yes"/>
      <point x="153.95" y="682.634"/>
      <point x="188.113" y="702.146"/>
      <point x="219.389" y="702.146" type="curve" smooth="yes"/>
      <point x="279.6" y="702.146"/>
      <point x="329.989" y="629.824"/>
      <point x="372.656" y="489.709" type="curve" smooth="yes"/>
      <point x="378.55" y="470.355"/>
      <point x="379.543" y="465.333"/>
      <point x="379.543" y="462.088" type="curve" smooth="yes"/>
      <point x="379.543" y="459.326"/>
      <point x="378.824" y="456.633"/>
      <point x="374.622" y="450.602" type="curve" smooth="yes"/>
      <point x="364.609" y="436.231"/>
      <point x="349.349" y="423.717"/>
      <point x="339.524" y="423.717" type="curve" smooth="yes"/>
      <point x="331.248" y="423.717"/>
      <point x="323.361" y="432.598"/>
      <point x="310.663" y="470.889" type="curve" smooth="yes"/>
      <point x="284.84" y="548.76"/>
      <point x="244.274" y="609.456"/>
      <point x="209.88" y="609.456" type="curve" smooth="yes"/>
      <point x="181.104" y="609.456"/>
      <point x="145.6" y="566.971"/>
      <point x="123.539" y="506.105" type="curve" smooth="yes"/>
      <point x="103.886" y="451.88"/>
      <point x="96.4561" y="387.347"/>
      <point x="96.4561" y="271.642" type="curve" smooth="yes"/>
      <point x="96.4561" y="163.744"/>
      <point x="102.917" y="79.4072"/>
      <point x="116.342" y="18.834" type="curve" smooth="yes"/>
      <point x="135.255" y="-66.4961"/>
      <point x="170.978" y="-118.15"/>
      <point x="213.743" y="-118.15" type="curve" smooth="yes"/>
      <point x="285.354" y="-118.15"/>
      <point x="346.607" y="26.6865"/>
      <point x="346.607" y="201.595" type="curve" smooth="yes"/>
      <point x="346.607" y="258.426"/>
      <point x="340.141" y="317.676"/>
      <point x="316.861" y="438.785" type="curve" smooth="yes"/>
      <point x="307.951" y="485.141"/>
      <point x="304.795" y="505.315"/>
      <point x="304.795" y="523.329" type="curve" smooth="yes"/>
      <point x="304.795" y="545.59"/>
      <point x="309.615" y="555.396"/>
      <point x="320.553" y="555.396" type="curve" smooth="yes"/>
      <point x="370.021" y="555.396"/>
      <point x="425.414" y="354.786"/>
      <point x="425.414" y="165.031" type="curve" smooth="yes"/>
      <point x="425.414" y="62.5234"/>
      <point x="409.249" y="-25.7422"/>
      <point x="378.328" y="-85.8174" type="curve" smooth="yes"/>
      <point x="341.867" y="-156.658"/>
      <point x="278.906" y="-199.918"/>
    </contour>
  </outline>
</glyph>
<glyph name="one" format="2">
  <advance width="300"/>
  <unicode hex="0031"/>
  <outline>
    <contour>
      <point x="21" y="590.329" type="curve" smooth="yes"/>
      <point x="21" y="643.555"/>
      <point x="138.872" y="743.806"/>
      <point x="207.024" y="743.806" type="curve" smooth="yes"/>
      <point x="208.909" y="743.806"/>
      <point x="212.738" y="743.729"/>
      <point x="226.872" y="743.386" type="curve" smooth="yes"/>
      <point x="230.306" y="743.303"/>
      <point x="233.53" y="743.225"/>
      <point x="247.85" y="742.876" type="curve" smooth="yes"/>
      <point x="261.808" y="742.537"/>
      <point x="261.808" y="742.537"/>
      <point x="262.077" y="737.921" type="curve" smooth="yes"/>
      <point x="273.257" y="546.716"/>
      <point x="277.092" y="437.545"/>
      <point x="277.092" y="300.922" type="curve" smooth="yes"/>
      <point x="277.092" y="172.182"/>
      <point x="273.687" y="39.7959"/>
      <point x="268.256" y="-39.6719" type="curve" smooth="yes"/>
      <point x="261.736" y="-135.066"/>
      <point x="249.177" y="-199.88"/>
      <point x="217.37" y="-199.88" type="curve" smooth="yes"/>
      <point x="190.65" y="-199.88"/>
      <point x="164.127" y="-154.139"/>
      <point x="159.888" y="447.028" type="curve" smooth="yes"/>
      <point x="159.135" y="553.732"/>
      <point x="157.909" y="610.075"/>
      <point x="147.54" y="610.075" type="curve" smooth="yes"/>
      <point x="145.313" y="610.075"/>
      <point x="140.642" y="607.478"/>
      <point x="126.81" y="598.118" type="curve" smooth="yes"/>
      <point x="88.3262" y="572.078"/>
      <point x="68.9561" y="563.326"/>
      <point x="51.6709" y="563.326" type="curve" smooth="yes"/>
      <point x="33.5059" y="563.326"/>
      <point x="21" y="572.992"/>
    </contour>
  </outline>
</glyph>
<glyph name="two" format="2">
  <advance width="406"/>
  <unicode hex="0032"/>
  <outline>
    <contour>
      <point x="41.375" y="462.257" type="curve" smooth="yes"/>
      <point x="31.3672" y="462.257"/>
      <point x="26.5195" y="471.291"/>
      <point x="26.5195" y="488.559" type="curve" smooth="yes"/>
      <point x="26.5195" y="520.642"/>
      <point x="43.2529" y="561.929"/>
      <point x="68" y="586.603" type="curve" smooth="yes"/>
      <point x="101.583" y="620.087"/>
      <point x="170.011" y="643.008"/>
      <point x="247.237" y="643.008" type="curve" smooth="yes"/>
      <point x="310.657" y="643.008"/>
      <point x="366.827" y="627.551"/>
      <point x="378.813" y="606.096" type="curve" smooth="yes"/>
      <point x="383.419" y="597.853"/>
      <point x="384.711" y="582.98"/>
      <point x="384.711" y="554.902" type="curve" smooth="yes"/>
      <point x="384.711" y="456.172"/>
      <point x="368.741" y="391.881"/>
      <point x="331.728" y="336.148" type="curve" smooth="yes"/>
      <point x="313.627" y="308.896"/>
      <point x="293.442" y="288.127"/>
      <point x="249.827" y="247.943" type="curve" smooth="yes"/>
      <point x="182.328" y="185.756"/>
      <point x="156.426" y="156.688"/>
      <point x="139.742" y="133.52" type="curve" smooth="yes"/>
      <point x="104.043" y="83.9404"/>
      <point x="81.5537" y="21.0801"/>
      <point x="81.5537" y="-30.3086" type="curve" smooth="yes"/>
      <point x="81.5537" y="-88.3018"/>
      <point x="110.194" y="-113.953"/>
      <point x="176.124" y="-113.953" type="curve" smooth="yes"/>
      <point x="189.953" y="-113.953"/>
      <point x="205.086" y="-112.824"/>
      <point x="242.582" y="-108.499" type="curve" smooth="yes"/>
      <point x="268.117" y="-105.554"/>
      <point x="279.077" y="-104.577"/>
      <point x="287.489" y="-104.577" type="curve" smooth="yes"/>
      <point x="331.761" y="-104.577"/>
      <point x="360.456" y="-131.633"/>
      <point x="360.456" y="-160.953" type="curve" smooth="yes"/>
      <point x="360.456" y="-191.834"/>
      <point x="328.626" y="-200.07"/>
      <point x="250.923" y="-200.07" type="curve" smooth="yes"/>
      <point x="218.008" y="-200.07"/>
      <point x="180.998" y="-198.593"/>
      <point x="155.263" y="-196.594" type="curve" smooth="yes"/>
      <point x="48.9746" y="-188.339"/>
      <point x="21" y="-162.364"/>
      <point x="21" y="-82.4502" type="curve" smooth="yes"/>
      <point x="21" y="0.652344"/>
      <point x="51.251" y="106.977"/>
      <point x="97.0156" y="182.942" type="curve" smooth="yes"/>
      <point x="119.171" y="219.718"/>
      <point x="142.885" y="245.932"/>
      <point x="183.637" y="282.478" type="curve" smooth="yes"/>
      <point x="281.579" y="370.312"/>
      <point x="303.082" y="418.157"/>
      <point x="303.082" y="516.677" type="curve" smooth="yes"/>
      <point x="303.082" y="546.172"/>
      <point x="301.154" y="549.956"/>
      <point x="272.024" y="554.45" type="curve" smooth="yes"/>
      <point x="258.588" y="556.522"/>
      <point x="245.513" y="557.798"/>
      <point x="230.829" y="557.798" type="curve" smooth="yes"/>
      <point x="176.188" y="557.798"/>
      <point x="134.611" y="540.142"/>
      <point x="72.9688" y="482.912" type="curve" smooth="yes"/>
      <point x="56.5469" y="467.666"/>
      <point x="49.1182" y="462.257"/>
    </contour>
  </outline>
</glyph>
<glyph name="three" format="2">
  <advance width="448"/>
  <unicode hex="0033"/>
  <outline>
    <contour>
      <point x="64.1318" y="463.656" type="curve" smooth="yes"/>
      <point x="54.2969" y="463.656"/>
      <point x="49.4492" y="472.69"/>
      <point x="49.4492" y="489.959" type="curve" smooth="yes"/>
      <point x="49.4492" y="522.044"/>
      <point x="66.1846" y="563.328"/>
      <point x="90.9443" y="588.01" type="curve" smooth="yes"/>
      <point x="124.533" y="621.493"/>
      <point x="192.946" y="644.407"/>
      <point x="270.166" y="644.407" type="curve" smooth="yes"/>
      <point x="333.596" y="644.407"/>
      <point x="389.765" y="628.946"/>
      <point x="401.768" y="607.449" type="curve" smooth="yes"/>
      <point x="406.344" y="599.252"/>
      <point x="407.642" y="584.545"/>
      <point x="407.642" y="555.814" type="curve" smooth="yes"/>
      <point x="407.642" y="457.652"/>
      <point x="392.494" y="396.438"/>
      <point x="358.924" y="351.455" type="curve" smooth="yes"/>
      <point x="345.093" y="332.923"/>
      <point x="327.9" y="316.831"/>
      <point x="290.15" y="287.657" type="curve" smooth="yes"/>
      <point x="252.945" y="258.905"/>
      <point x="243.702" y="249.033"/>
      <point x="243.702" y="238.008" type="curve" smooth="yes"/>
      <point x="243.702" y="225.97"/>
      <point x="254.721" y="217.207"/>
      <point x="299.699" y="197.887" type="curve" smooth="yes"/>
      <point x="394.184" y="157.301"/>
      <point x="426.91" y="125.462"/>
      <point x="426.91" y="58.8291" type="curve" smooth="yes"/>
      <point x="426.91" y="-71.8613"/>
      <point x="301.018" y="-200.161"/>
      <point x="154.952" y="-200.161" type="curve" smooth="yes"/>
      <point x="85.9873" y="-200.161"/>
      <point x="21" y="-171.561"/>
      <point x="21" y="-135.389" type="curve" smooth="yes"/>
      <point x="21" y="-116.898"/>
      <point x="37.9834" y="-99.2363"/>
      <point x="58.21" y="-99.2363" type="curve" smooth="yes"/>
      <point x="65.7832" y="-99.2363"/>
      <point x="73.4316" y="-101.712"/>
      <point x="91.2959" y="-110.762" type="curve" smooth="yes"/>
      <point x="110.643" y="-120.563"/>
      <point x="119.797" y="-123.562"/>
      <point x="130.862" y="-123.562" type="curve" smooth="yes"/>
      <point x="198.263" y="-123.562"/>
      <point x="319.391" y="-12.3174"/>
      <point x="319.391" y="50.4121" type="curve" smooth="yes"/>
      <point x="319.391" y="90.5811"/>
      <point x="269.725" y="129.856"/>
      <point x="175.212" y="162.222" type="curve" smooth="yes"/>
      <point x="163.787" y="166.135"/>
      <point x="152.892" y="169.54"/>
      <point x="137.715" y="173.938" type="curve" smooth="yes"/>
      <point x="99.4512" y="185.026"/>
      <point x="92.0791" y="188.737"/>
      <point x="87.3281" y="198.444" type="curve" smooth="yes"/>
      <point x="84.4443" y="204.336"/>
      <point x="83.1504" y="211.161"/>
      <point x="83.1504" y="219.159" type="curve" smooth="yes"/>
      <point x="83.1504" y="235.815"/>
      <point x="88.7637" y="255.684"/>
      <point x="96.5479" y="265.72" type="curve" smooth="yes"/>
      <point x="100.676" y="271.042"/>
      <point x="104.863" y="272.889"/>
      <point x="122.796" y="274.661" type="curve" smooth="yes"/>
      <point x="135.665" y="275.934"/>
      <point x="144.877" y="277.581"/>
      <point x="157.812" y="281.404" type="curve" smooth="yes"/>
      <point x="213.781" y="297.944"/>
      <point x="268.737" y="334.299"/>
      <point x="295.33" y="372.984" type="curve" smooth="yes"/>
      <point x="316.44" y="403.693"/>
      <point x="326.033" y="445.119"/>
      <point x="326.033" y="516.23" type="curve" smooth="yes"/>
      <point x="326.033" y="546.927"/>
      <point x="324.245" y="551.331"/>
      <point x="294.214" y="555.964" type="curve" smooth="yes"/>
      <point x="281.638" y="557.904"/>
      <point x="268.559" y="559.197"/>
      <point x="253.394" y="559.197" type="curve" smooth="yes"/>
      <point x="197.02" y="559.197"/>
      <point x="157.315" y="541.33"/>
      <point x="97.8477" y="486.119" type="curve" smooth="yes"/>
      <point x="79.3828" y="468.977"/>
      <point x="71.6787" y="463.656"/>
    </contour>
  </outline>
</glyph>
<glyph name="four" format="2">
  <advance width="398"/>
  <unicode hex="0034"/>
  <outline>
    <contour>
      <point x="257.31" y="-122.198" type="curve" smooth="yes"/>
      <point x="257.31" y="-109.7"/>
      <point x="257.931" y="-74.3418"/>
      <point x="259.146" y="-30.0459" type="curve" smooth="yes"/>
      <point x="259.515" y="-16.6377"/>
      <point x="259.558" y="-13.9697"/>
      <point x="259.558" y="-2.56836" type="curve" smooth="yes"/>
      <point x="259.558" y="17.7129"/>
      <point x="259.422" y="17.751"/>
      <point x="247.746" y="18.1533" type="curve" smooth="yes"/>
      <point x="43.8086" y="25.1748"/>
      <point x="21" y="36.0547"/>
      <point x="21" y="89.5771" type="curve" smooth="yes"/>
      <point x="21" y="137.481"/>
      <point x="39.2715" y="200.012"/>
      <point x="87.4229" y="315.357" type="curve" smooth="yes"/>
      <point x="106.241" y="360.437"/>
      <point x="113.517" y="375.004"/>
      <point x="145.421" y="428.407" type="curve" smooth="yes"/>
      <point x="186.971" y="497.955"/>
      <point x="229.228" y="564.64"/>
      <point x="253.407" y="598.429" type="curve" smooth="yes"/>
      <point x="274.418" y="627.79"/>
      <point x="287.086" y="639.728"/>
      <point x="299.792" y="639.728" type="curve" smooth="yes"/>
      <point x="310.298" y="639.728"/>
      <point x="318.445" y="631.565"/>
      <point x="318.445" y="617.393" type="curve" smooth="yes"/>
      <point x="318.445" y="596.817"/>
      <point x="301.273" y="559.741"/>
      <point x="234.141" y="443.536" type="curve" smooth="yes"/>
      <point x="138.098" y="277.287"/>
      <point x="106.806" y="208.083"/>
      <point x="106.806" y="159.782" type="curve" smooth="yes"/>
      <point x="106.806" y="113.781"/>
      <point x="135.188" y="96.9443"/>
      <point x="202.547" y="96.9443" type="curve" smooth="yes"/>
      <point x="230.994" y="96.9443"/>
      <point x="247.038" y="99.9473"/>
      <point x="250.819" y="127.413" type="curve" smooth="yes"/>
      <point x="251.633" y="133.324"/>
      <point x="253.309" y="150.776"/>
      <point x="255.55" y="189.985" type="curve" smooth="yes"/>
      <point x="256.86" y="212.919"/>
      <point x="257.778" y="224.888"/>
      <point x="259.127" y="234.79" type="curve" smooth="yes"/>
      <point x="261.999" y="255.876"/>
      <point x="266.322" y="263.931"/>
      <point x="274.553" y="263.931" type="curve" smooth="yes"/>
      <point x="274.899" y="263.931"/>
      <point x="275.327" y="263.916"/>
      <point x="275.845" y="263.885" type="curve" smooth="yes"/>
      <point x="295.332" y="262.696"/>
      <point x="302.558" y="245.602"/>
      <point x="302.558" y="199.465" type="curve" smooth="yes"/>
      <point x="302.558" y="196.164"/>
      <point x="302.521" y="192.285"/>
      <point x="302.393" y="183.226" type="curve" smooth="yes"/>
      <point x="302.26" y="173.893"/>
      <point x="302.222" y="169.829"/>
      <point x="302.222" y="165.901" type="curve" smooth="yes"/>
      <point x="302.222" y="144.199"/>
      <point x="303.396" y="130.604"/>
      <point x="306.125" y="120.756" type="curve" smooth="yes"/>
      <point x="309.586" y="108.27"/>
      <point x="315.38" y="102.409"/>
      <point x="335.186" y="99.1709" type="curve" smooth="yes"/>
      <point x="339.204" y="98.5137"/>
      <point x="342.156" y="97.8281"/>
      <point x="345.271" y="96.3086" type="curve" smooth="yes"/>
      <point x="360.859" y="88.7031"/>
      <point x="377.25" y="61.8193"/>
      <point x="377.25" y="43.9004" type="curve" smooth="yes"/>
      <point x="377.25" y="33.7881"/>
      <point x="372.031" y="26.5664"/>
      <point x="361.927" y="22.9199" type="curve" smooth="yes"/>
      <point x="355.377" y="20.5566"/>
      <point x="344.722" y="18.9551"/>
      <point x="324.385" y="18.3799" type="curve" smooth="yes"/>
      <point x="323.389" y="18.3516"/>
      <point x="323.301" y="18.3486"/>
      <point x="323.111" y="18.3428" type="curve" smooth="yes"/>
      <point x="311.267" y="17.9766"/>
      <point x="309.938" y="15.0371"/>
      <point x="308.95" y="-11.4512" type="curve" smooth="yes"/>
      <point x="308.615" y="-20.4355"/>
      <point x="308.429" y="-29.1797"/>
      <point x="308.123" y="-48.3135" type="curve" smooth="yes"/>
      <point x="307.313" y="-99.0107"/>
      <point x="306.652" y="-119.835"/>
      <point x="305.533" y="-136.148" type="curve" smooth="yes"/>
      <point x="302.425" y="-181.47"/>
      <point x="295.203" y="-200.344"/>
      <point x="282.647" y="-200.344" type="curve" smooth="yes"/>
      <point x="267.451" y="-200.344"/>
      <point x="257.31" y="-172.692"/>
    </contour>
  </outline>
</glyph>
<glyph name="five" format="2">
  <advance width="425"/>
  <unicode hex="0035"/>
  <outline>
    <contour>
      <point x="246.274" y="-118.98" type="curve" smooth="yes"/>
      <point x="311.483" y="-118.98"/>
      <point x="334.188" y="-93.8037"/>
      <point x="334.188" y="-22.374" type="curve" smooth="yes"/>
      <point x="334.188" y="4.40723"/>
      <point x="330.997" y="34.6504"/>
      <point x="323.164" y="81.1836" type="curve" smooth="yes"/>
      <point x="313.947" y="135.944"/>
      <point x="309.735" y="145.35"/>
      <point x="289.827" y="157.003" type="curve" smooth="yes"/>
      <point x="266.971" y="170.383"/>
      <point x="241.229" y="176.303"/>
      <point x="184.688" y="179.924" type="curve" smooth="yes"/>
      <point x="92.6348" y="185.819"/>
      <point x="62.582" y="199.067"/>
      <point x="43.9766" y="242.075" type="curve" smooth="yes"/>
      <point x="30.0771" y="274.207"/>
      <point x="22" y="324.262"/>
      <point x="22" y="398.271" type="curve" smooth="yes"/>
      <point x="22" y="476.518"/>
      <point x="31.0293" y="592.782"/>
      <point x="40.9707" y="610.579" type="curve" smooth="yes"/>
      <point x="53.8506" y="633.635"/>
      <point x="159.747" y="655.203"/>
      <point x="255.306" y="655.203" type="curve" smooth="yes"/>
      <point x="357.893" y="655.203"/>
      <point x="401.544" y="630.346"/>
      <point x="401.544" y="588.049" type="curve" smooth="yes"/>
      <point x="401.544" y="560.866"/>
      <point x="383.516" y="549.672"/>
      <point x="356.705" y="549.672" type="curve" smooth="yes"/>
      <point x="349.137" y="549.672"/>
      <point x="340.102" y="550.563"/>
      <point x="317.672" y="553.872" type="curve" smooth="yes"/>
      <point x="280.902" y="559.295"/>
      <point x="261.26" y="561.005"/>
      <point x="235.206" y="561.005" type="curve" smooth="yes"/>
      <point x="204.145" y="561.005"/>
      <point x="171.222" y="558.574"/>
      <point x="145.83" y="554.656" type="curve" smooth="yes"/>
      <point x="117.634" y="550.306"/>
      <point x="115.556" y="546.72"/>
      <point x="109.798" y="497.638" type="curve" smooth="yes"/>
      <point x="104.797" y="455.007"/>
      <point x="102.942" y="428.543"/>
      <point x="102.942" y="404.006" type="curve" smooth="yes"/>
      <point x="102.942" y="348.804"/>
      <point x="112.326" y="310.443"/>
      <point x="132.009" y="287.152" type="curve" smooth="yes"/>
      <point x="151.818" y="263.71"/>
      <point x="183.503" y="253.822"/>
      <point x="271.34" y="250.35" type="curve" smooth="yes"/>
      <point x="286.927" y="249.732"/>
      <point x="296.675" y="249.075"/>
      <point x="306.764" y="247.467" type="curve" smooth="yes"/>
      <point x="353.62" y="239.992"/>
      <point x="368.529" y="218.228"/>
      <point x="382.101" y="133.924" type="curve" smooth="yes"/>
      <point x="394.35" y="57.8301"/>
      <point x="404.328" y="-61.8848"/>
      <point x="404.328" y="-116.477" type="curve" smooth="yes"/>
      <point x="404.328" y="-184.795"/>
      <point x="388.701" y="-191.482"/>
      <point x="273.19" y="-197.297" type="curve" smooth="yes"/>
      <point x="233.427" y="-199.299"/>
      <point x="202.521" y="-200.154"/>
      <point x="173.824" y="-200.154" type="curve" smooth="yes"/>
      <point x="81.5215" y="-200.154"/>
      <point x="54.5547" y="-191.301"/>
      <point x="54.5547" y="-158.987" type="curve" smooth="yes"/>
      <point x="54.5547" y="-127.625"/>
      <point x="79.9561" y="-111.412"/>
      <point x="137.602" y="-111.412" type="curve" smooth="yes"/>
      <point x="151.31" y="-111.412"/>
      <point x="166.781" y="-112.329"/>
      <point x="199.999" y="-115.749" type="curve" smooth="yes"/>
      <point x="223.755" y="-118.194"/>
      <point x="234.752" y="-118.98"/>
    </contour>
  </outline>
</glyph>
<glyph name="six" format="2">
  <advance width="399"/>
  <unicode hex="0036"/>
  <outline>
    <contour>
      <point x="378.322" y="-18.3643" type="curve" smooth="yes"/>
      <point x="378.322" y="-138.172"/>
      <point x="307.196" y="-200.03"/>
      <point x="220.041" y="-200.03" type="curve" smooth="yes"/>
      <point x="169.479" y="-200.03"/>
      <point x="127.745" y="-179.211"/>
      <point x="98.8008" y="-142.205" type="curve" smooth="yes"/>
      <point x="50.1436" y="-79.9941"/>
      <point x="23" y="46.668"/>
      <point x="23" y="210.554" type="curve" smooth="yes"/>
      <point x="23" y="392.311"/>
      <point x="56.3857" y="527.423"/>
      <point x="119.665" y="602.425" type="curve" smooth="yes"/>
      <point x="149.245" y="637.484"/>
      <point x="183.423" y="657.117"/>
      <point x="214.796" y="657.117" type="curve" smooth="yes"/>
      <point x="275.054" y="657.117"/>
      <point x="325.419" y="584.69"/>
      <point x="367.875" y="445.264" type="curve" smooth="yes"/>
      <point x="373.962" y="425.275"/>
      <point x="374.94" y="420.168"/>
      <point x="374.94" y="417.004" type="curve" smooth="yes"/>
      <point x="374.94" y="414.295"/>
      <point x="374.224" y="411.61"/>
      <point x="370.028" y="405.587" type="curve" smooth="yes"/>
      <point x="360.012" y="391.205"/>
      <point x="344.746" y="378.687"/>
      <point x="334.924" y="378.687" type="curve" smooth="yes"/>
      <point x="326.65" y="378.687"/>
      <point x="318.761" y="387.569"/>
      <point x="306.062" y="425.864" type="curve" smooth="yes"/>
      <point x="280.239" y="503.733"/>
      <point x="239.676" y="564.429"/>
      <point x="205.282" y="564.429" type="curve" smooth="yes"/>
      <point x="176.51" y="564.429"/>
      <point x="141.005" y="521.953"/>
      <point x="118.949" y="461.106" type="curve" smooth="yes"/>
      <point x="99.3057" y="406.913"/>
      <point x="91.8564" y="342.357"/>
      <point x="91.8564" y="222.873" type="curve" smooth="yes"/>
      <point x="91.8564" y="-2.85742"/>
      <point x="118.443" y="-91.2666"/>
      <point x="199.782" y="-128.217" type="curve" smooth="yes"/>
      <point x="213.83" y="-134.599"/>
      <point x="226.229" y="-137.956"/>
      <point x="236.747" y="-137.956" type="curve" smooth="yes"/>
      <point x="273.392" y="-137.956"/>
      <point x="293.541" y="-97.2031"/>
      <point x="293.541" y="-21.6494" type="curve" smooth="yes"/>
      <point x="293.541" y="34.7715"/>
      <point x="282.305" y="81.5322"/>
      <point x="262.211" y="107.447" type="curve" smooth="yes"/>
      <point x="244.486" y="130.309"/>
      <point x="216.173" y="141.717"/>
      <point x="174.985" y="141.717" type="curve" smooth="yes"/>
      <point x="159.082" y="141.717"/>
      <point x="144.065" y="140.016"/>
      <point x="111.883" y="134.619" type="curve" smooth="yes"/>
      <point x="92.5342" y="131.375"/>
      <point x="85.5117" y="130.494"/>
      <point x="81.5879" y="130.494" type="curve" smooth="yes"/>
      <point x="59.7783" y="130.494"/>
      <point x="23.8633" y="157.715"/>
      <point x="23.8633" y="173.271" type="curve" smooth="yes"/>
      <point x="23.8633" y="174.564"/>
      <point x="24.1123" y="175.745"/>
      <point x="24.4258" y="176.395" type="curve" smooth="yes"/>
      <point x="30.0498" y="188.019"/>
      <point x="141.923" y="205.344"/>
      <point x="190.317" y="205.344" type="curve" smooth="yes"/>
      <point x="310.357" y="205.344"/>
      <point x="378.322" y="98.749"/>
    </contour>
  </outline>
</glyph>
<glyph name="seven" format="2">
  <advance width="366"/>
  <unicode hex="0037"/>
  <outline>
    <contour>
      <point x="22.9531" y="675.17" type="curve" smooth="yes"/>
      <point x="22.9531" y="694.35"/>
      <point x="63.5449" y="702.5"/>
      <point x="161.662" y="702.5" type="curve" smooth="yes"/>
      <point x="179.049" y="702.5"/>
      <point x="198.83" y="702.244"/>
      <point x="245.002" y="701.252" type="curve" smooth="yes"/>
      <point x="248.684" y="701.173"/>
      <point x="251.679" y="701.109"/>
      <point x="255.657" y="701.029" type="curve" smooth="yes"/>
      <point x="257.147" y="700.999"/>
      <point x="257.817" y="700.985"/>
      <point x="258.151" y="700.979" type="curve" smooth="yes"/>
      <point x="329.864" y="699.547"/>
      <point x="345.434" y="684.226"/>
      <point x="345.434" y="645.841" type="curve" smooth="yes"/>
      <point x="345.434" y="548.678"/>
      <point x="245.669" y="225.367"/>
      <point x="142.867" y="-29.4189" type="curve" smooth="yes"/>
      <point x="96.2539" y="-144.947"/>
      <point x="67.7656" y="-199.918"/>
      <point x="35.1777" y="-199.918" type="curve" smooth="yes"/>
      <point x="26.9199" y="-199.918"/>
      <point x="21" y="-196.389"/>
      <point x="21" y="-176.879" type="curve" smooth="yes"/>
      <point x="21" y="-133.703"/>
      <point x="49.9941" y="-39.8193"/>
      <point x="148.82" y="234.83" type="curve" smooth="yes"/>
      <point x="234.341" y="472.501"/>
      <point x="258.9" y="550.711"/>
      <point x="258.9" y="585.416" type="curve" smooth="yes"/>
      <point x="258.9" y="605.192"/>
      <point x="250.925" y="613.718"/>
      <point x="227.461" y="619.265" type="curve" smooth="yes"/>
      <point x="215.928" y="621.991"/>
      <point x="201.08" y="623.896"/>
      <point x="162.857" y="627.207" type="curve" smooth="yes"/>
      <point x="111.149" y="631.687"/>
      <point x="89.958" y="634.652"/>
      <point x="71.501" y="639.959" type="curve" smooth="yes"/>
      <point x="41.3975" y="648.615"/>
      <point x="22.9531" y="662.241"/>
    </contour>
  </outline>
</glyph>
<glyph name="eight" format="2">
  <advance width="371"/>
  <unicode hex="0038"/>
  <outline>
    <contour>
      <point x="309.969" y="761.842" type="curve" smooth="yes"/>
      <point x="333.589" y="761.842"/>
      <point x="349.736" y="720.768"/>
      <point x="349.736" y="663.167" type="curve" smooth="yes"/>
      <point x="349.736" y="564.558"/>
      <point x="302.41" y="442.188"/>
      <point x="209.109" y="298.851" type="curve" smooth="yes"/>
      <point x="196.264" y="279.115"/>
      <point x="184.792" y="262.434"/>
      <point x="164.825" y="234.47" type="curve" smooth="yes"/>
      <point x="126.755" y="181.15"/>
      <point x="115.257" y="162.811"/>
      <point x="105.131" y="139.444" type="curve" smooth="yes"/>
      <point x="84.998" y="92.9883"/>
      <point x="71.9043" y="30.3936"/>
      <point x="71.9043" y="-22.0127" type="curve" smooth="yes"/>
      <point x="71.9043" y="-101.849"/>
      <point x="102.291" y="-141.161"/>
      <point x="168.139" y="-141.161" type="curve" smooth="yes"/>
      <point x="241.481" y="-141.161"/>
      <point x="295.249" y="-92.3887"/>
      <point x="295.249" y="-18.4463" type="curve" smooth="yes"/>
      <point x="295.249" y="30.959"/>
      <point x="271.245" y="90.0732"/>
      <point x="183.014" y="241.161" type="curve" smooth="yes"/>
      <point x="90.8818" y="398.932"/>
      <point x="62.5723" y="467.048"/>
      <point x="62.5723" y="537.336" type="curve" smooth="yes"/>
      <point x="62.5723" y="667.688"/>
      <point x="159.938" y="813.238"/>
      <point x="237.471" y="813.238" type="curve" smooth="yes"/>
      <point x="285.703" y="813.238"/>
      <point x="343.273" y="756.91"/>
      <point x="343.273" y="721.534" type="curve" smooth="yes"/>
      <point x="343.273" y="713.681"/>
      <point x="340.436" y="711.747"/>
      <point x="336.139" y="711.747" type="curve" smooth="yes"/>
      <point x="332.686" y="711.747"/>
      <point x="328.611" y="712.996"/>
      <point x="318.697" y="716.622" type="curve" smooth="yes"/>
      <point x="288.996" y="727.487"/>
      <point x="274.31" y="730.666"/>
      <point x="262.324" y="730.666" type="curve" smooth="yes"/>
      <point x="193.881" y="730.666"/>
      <point x="127.768" y="626.997"/>
      <point x="127.768" y="516.861" type="curve" smooth="yes"/>
      <point x="127.768" y="447.727"/>
      <point x="153.818" y="377.242"/>
      <point x="238.253" y="212.33" type="curve" smooth="yes"/>
      <point x="315.47" y="61.5146"/>
      <point x="336.387" y="4.27148"/>
      <point x="336.387" y="-49.6162" type="curve" smooth="yes"/>
      <point x="336.387" y="-138.021"/>
      <point x="280.089" y="-199.84"/>
      <point x="189.109" y="-199.84" type="curve" smooth="yes"/>
      <point x="91.2197" y="-199.84"/>
      <point x="21" y="-128.275"/>
      <point x="21" y="-21.2217" type="curve" smooth="yes"/>
      <point x="21" y="26.6768"/>
      <point x="35.0576" y="93.5771"/>
      <point x="54.6758" y="141.551" type="curve" smooth="yes"/>
      <point x="64.5488" y="165.694"/>
      <point x="82.3154" y="200.901"/>
      <point x="139.634" y="300.165" type="curve" smooth="yes"/>
      <point x="255.61" y="501.013"/>
      <point x="298.786" y="593.965"/>
      <point x="298.786" y="658.834" type="curve" smooth="yes"/>
      <point x="298.786" y="677.193"/>
      <point x="295.328" y="692.84"/>
      <point x="284.452" y="719.561" type="curve" smooth="yes"/>
      <point x="280.737" y="728.689"/>
      <point x="279.6" y="732.315"/>
      <point x="279.6" y="736.394" type="curve" smooth="yes"/>
      <point x="279.6" y="741.73"/>
      <point x="281.548" y="745.803"/>
      <point x="286.168" y="750.451" type="curve" smooth="yes"/>
      <point x="293.121" y="757.447"/>
      <point x="302.243" y="761.842"/>
    </contour>
  </outline>
</glyph>
<glyph name="nine" format="2">
  <advance width="375"/>
  <unicode hex="0039"/>
  <outline>
    <contour>
      <point x="184.113" y="656.029" type="curve" smooth="yes"/>
      <point x="294.527" y="656.029"/>
      <point x="353.6" y="567.904"/>
      <point x="353.6" y="367.293" type="curve" smooth="yes"/>
      <point x="353.6" y="157.835"/>
      <point x="289.203" y="-65.8018"/>
      <point x="190.237" y="-154.43" type="curve" smooth="yes"/>
      <point x="158.851" y="-182.537"/>
      <point x="120.672" y="-200.036"/>
      <point x="89.3047" y="-200.036" type="curve" smooth="yes"/>
      <point x="69.1357" y="-200.036"/>
      <point x="57.1416" y="-192.801"/>
      <point x="57.1416" y="-180.335" type="curve" smooth="yes"/>
      <point x="57.1416" y="-176.035"/>
      <point x="58.5684" y="-171.249"/>
      <point x="60.8701" y="-168.202" type="curve" smooth="yes"/>
      <point x="62.3828" y="-166.201"/>
      <point x="64.46" y="-164.701"/>
      <point x="71.1064" y="-160.431" type="curve" smooth="yes"/>
      <point x="137.201" y="-117.959"/>
      <point x="179.191" y="-74.6387"/>
      <point x="203.963" y="-27.9053" type="curve" smooth="yes"/>
      <point x="251.116" y="61.0557"/>
      <point x="286.947" y="258.747"/>
      <point x="286.947" y="392.19" type="curve" smooth="yes"/>
      <point x="286.947" y="498.887"/>
      <point x="264.04" y="548.759"/>
      <point x="213.68" y="580.758" type="curve" smooth="yes"/>
      <point x="197.273" y="591.182"/>
      <point x="183.354" y="596.279"/>
      <point x="172.191" y="596.279" type="curve" smooth="yes"/>
      <point x="130.992" y="596.279"/>
      <point x="101.839" y="526.847"/>
      <point x="101.839" y="442.047" type="curve" smooth="yes"/>
      <point x="101.839" y="343.376"/>
      <point x="141.31" y="308.007"/>
      <point x="239.6" y="308.007" type="curve" smooth="yes"/>
      <point x="244.446" y="308.007"/>
      <point x="249.166" y="308.093"/>
      <point x="259.39" y="308.349" type="curve" smooth="yes"/>
      <point x="271.832" y="308.661"/>
      <point x="276.343" y="308.731"/>
      <point x="280.412" y="308.731" type="curve" smooth="yes"/>
      <point x="301.192" y="308.731"/>
      <point x="307.627" y="306.889"/>
      <point x="319.057" y="297.182" type="curve" smooth="yes"/>
      <point x="334.171" y="284.346"/>
      <point x="345.71" y="268.211"/>
      <point x="345.71" y="258.484" type="curve" smooth="yes"/>
      <point x="345.71" y="248.723"/>
      <point x="334.088" y="246.228"/>
      <point x="283.677" y="246.228" type="curve" smooth="yes"/>
      <point x="282.193" y="246.228"/>
      <point x="279.939" y="246.229"/>
      <point x="274.353" y="246.237" type="curve" smooth="yes"/>
      <point x="269.708" y="246.244"/>
      <point x="268.487" y="246.245"/>
      <point x="267.518" y="246.245" type="curve" smooth="yes"/>
      <point x="261.407" y="246.245"/>
      <point x="248.503" y="246.192"/>
      <point x="234.403" y="246.112" type="curve" smooth="yes"/>
      <point x="230.826" y="246.093"/>
      <point x="230.454" y="246.091"/>
      <point x="229.727" y="246.091" type="curve" smooth="yes"/>
      <point x="148.299" y="246.091"/>
      <point x="102.364" y="264.914"/>
      <point x="69.5889" y="310.636" type="curve" smooth="yes"/>
      <point x="39.4707" y="352.65"/>
      <point x="21" y="416.635"/>
      <point x="21" y="475.711" type="curve" smooth="yes"/>
      <point x="21" y="586.669"/>
      <point x="86.1582" y="656.029"/>
    </contour>
  </outline>
</glyph>
<glyph name="colon" format="2">
  <advance width="123"/>
  <unicode hex="003A"/>
  <outline>
    <contour>
      <point x="49.4766" y="-4.125" type="curve" smooth="yes"/>
      <point x="27.9014" y="-4.125"/>
      <point x="25" y="4.88086"/>
      <point x="25" y="28.5605" type="curve" smooth="yes"/>
      <point x="25" y="60.5537"/>
      <point x="30.2969" y="72.8447"/>
      <point x="37.7871" y="78.8652" type="curve"/>
      <point x="55.8301" y="82.1016"/>
      <point x="64.8701" y="82.998"/>
      <point x="69.0225" y="82.998" type="curve" smooth="yes"/>
      <point x="90.3223" y="82.998"/>
      <point x="98.0117" y="59.4004"/>
      <point x="98.0117" y="40.7354" type="curve" smooth="yes"/>
      <point x="98.0117" y="8.36523"/>
      <point x="74.8857" y="-4.125"/>
    </contour>
    <contour>
      <point x="49.4766" y="200.953" type="curve" smooth="yes"/>
      <point x="27.9014" y="200.953"/>
      <point x="25" y="209.959"/>
      <point x="25" y="233.639" type="curve" smooth="yes"/>
      <point x="25" y="265.632"/>
      <point x="30.2969" y="277.923"/>
      <point x="37.7871" y="283.943" type="curve"/>
      <point x="55.8301" y="287.18"/>
      <point x="64.8701" y="288.076"/>
      <point x="69.0225" y="288.076" type="curve" smooth="yes"/>
      <point x="90.3223" y="288.076"/>
      <point x="98.0117" y="264.479"/>
      <point x="98.0117" y="245.813" type="curve" smooth="yes"/>
      <point x="98.0117" y="213.443"/>
      <point x="74.8857" y="200.953"/>
    </contour>
  </outline>
</glyph>
<glyph name="semicolon" format="2">
  <advance width="162"/>
  <unicode hex="003B"/>
  <outline>
    <contour>
      <point x="97.7725" y="147.417" type="curve" smooth="yes"/>
      <point x="128.119" y="147.417"/>
      <point x="136.032" y="130.79"/>
      <point x="136.032" y="83.0254" type="curve" smooth="yes"/>
      <point x="136.032" y="53.9619"/>
      <point x="133.102" y="34.0723"/>
      <point x="130.829" y="25.5518" type="curve" smooth="yes"/>
      <point x="124.388" y="1.41406"/>
      <point x="105.099" y="0.644531"/>
      <point x="54.6553" y="0.644531" type="curve" smooth="yes"/>
      <point x="51.6729" y="0.644531"/>
      <point x="53.8018" y="0.647461"/>
      <point x="51.7295" y="0.637695" type="curve" smooth="yes"/>
      <point x="34.6924" y="0.5625"/>
      <point x="29.375" y="0.994141"/>
      <point x="25.9482" y="2.36133" type="curve" smooth="yes"/>
      <point x="20.0811" y="4.70312"/>
      <point x="20.8779" y="9.33984"/>
      <point x="27.5088" y="11.0918" type="curve" smooth="yes"/>
      <point x="28.3525" y="11.3145"/>
      <point x="29.2168" y="11.4707"/>
      <point x="30.2354" y="11.6416" type="curve" smooth="yes"/>
      <point x="50.6416" y="15.0596"/>
      <point x="59.3291" y="21.3135"/>
      <point x="62.8564" y="32.2578" type="curve" smooth="yes"/>
      <point x="64.9824" y="38.8506"/>
      <point x="65.9297" y="49.3018"/>
      <point x="67.0537" y="77.6348" type="curve" smooth="yes"/>
      <point x="68.1934" y="106.377"/>
      <point x="69.1689" y="117.145"/>
      <point x="71.2559" y="126.006" type="curve" smooth="yes"/>
      <point x="75.2363" y="142.911"/>
      <point x="81.9736" y="147.417"/>
    </contour>
    <contour>
      <point x="88.1357" y="199.364" type="curve" smooth="yes"/>
      <point x="66.5459" y="199.364"/>
      <point x="63.6436" y="208.412"/>
      <point x="63.6436" y="232.082" type="curve" smooth="yes"/>
      <point x="63.6436" y="264.051"/>
      <point x="68.9395" y="276.33"/>
      <point x="76.4287" y="282.355" type="curve"/>
      <point x="94.4219" y="285.583"/>
      <point x="103.544" y="286.488"/>
      <point x="107.707" y="286.488" type="curve" smooth="yes"/>
      <point x="128.964" y="286.488"/>
      <point x="136.654" y="262.891"/>
      <point x="136.654" y="244.231" type="curve" smooth="yes"/>
      <point x="136.654" y="211.854"/>
      <point x="113.502" y="199.364"/>
    </contour>
  </outline>
</glyph>
<glyph name="less" format="2">
  <advance width="451"/>
  <unicode hex="003C"/>
  <outline>
    <contour>
      <point x="406.999" y="413.388" type="curve" smooth="yes"/>
      <point x="412.268" y="413.388"/>
      <point x="419.655" y="410.131"/>
      <point x="418.098" y="406.75" type="curve" smooth="yes"/>
      <point x="414.669" y="399.31"/>
      <point x="352.453" y="357.679"/>
      <point x="263.469" y="300.479" type="curve" smooth="yes"/>
      <point x="121.834" y="209.437"/>
      <point x="111.23" y="198.468"/>
      <point x="111.23" y="188.864" type="curve" smooth="yes"/>
      <point x="111.23" y="180.021"/>
      <point x="120.22" y="173.702"/>
      <point x="180.838" y="147.284" type="curve" smooth="yes"/>
      <point x="183.949" y="145.929"/>
      <point x="188.668" y="143.865"/>
      <point x="196.129" y="140.562" type="curve" smooth="yes"/>
      <point x="337.827" y="77.8311"/>
      <point x="428.816" y="27.9785"/>
      <point x="428.816" y="12.8809" type="curve" smooth="yes"/>
      <point x="428.816" y="10.2031"/>
      <point x="425.953" y="8.69043"/>
      <point x="421.564" y="8.69043" type="curve" smooth="yes"/>
      <point x="386.229" y="8.69043"/>
      <point x="137.806" y="106.727"/>
      <point x="56.333" y="151.458" type="curve" smooth="yes"/>
      <point x="30.207" y="165.802"/>
      <point x="22" y="174.252"/>
      <point x="22" y="183.784" type="curve" smooth="yes"/>
      <point x="22" y="194.777"/>
      <point x="32.915" y="205.439"/>
      <point x="102.715" y="249.685" type="curve" smooth="yes"/>
      <point x="229.024" y="329.753"/>
      <point x="380.297" y="413.388"/>
    </contour>
  </outline>
</glyph>
<glyph name="equal" format="2">
  <advance width="360"/>
  <unicode hex="003D"/>
  <outline>
    <contour>
      <point x="24" y="198.202" type="curve" smooth="yes"/>
      <point x="24" y="226.778"/>
      <point x="59.4395" y="234.379"/>
      <point x="165.299" y="234.379" type="curve" smooth="yes"/>
      <point x="216.1" y="234.379"/>
      <point x="256.475" y="232.629"/>
      <point x="284.687" y="229.217" type="curve" smooth="yes"/>
      <point x="322.402" y="224.655"/>
      <point x="334.773" y="217.561"/>
      <point x="334.773" y="193.798" type="curve" smooth="yes"/>
      <point x="334.773" y="189.427"/>
      <point x="334.354" y="179.875"/>
      <point x="334.253" y="178.721" type="curve" smooth="yes"/>
      <point x="333.262" y="167.495"/>
      <point x="292.431" y="166.045"/>
      <point x="226.438" y="166.045" type="curve" smooth="yes"/>
      <point x="155.296" y="166.045"/>
      <point x="105.293" y="167.729"/>
      <point x="72.4844" y="171.514" type="curve" smooth="yes"/>
      <point x="34.6562" y="175.876"/>
      <point x="24" y="182.532"/>
    </contour>
    <contour>
      <point x="24" y="26.915" type="curve" smooth="yes"/>
      <point x="24" y="59.3145"/>
      <point x="84.2061" y="66.3789"/>
      <point x="172.272" y="66.3789" type="curve" smooth="yes"/>
      <point x="216.907" y="66.3789"/>
      <point x="257.006" y="64.5645"/>
      <point x="285.142" y="61.1611" type="curve" smooth="yes"/>
      <point x="324.597" y="56.3887"/>
      <point x="335.373" y="49.1172"/>
      <point x="335.373" y="27.5156" type="curve" smooth="yes"/>
      <point x="335.373" y="22.8154"/>
      <point x="334.863" y="17.543"/>
      <point x="334.728" y="16.5762" type="curve" smooth="yes"/>
      <point x="332.742" y="2.43652"/>
      <point x="282.872" y="-0.626953"/>
      <point x="188.878" y="-0.626953" type="curve" smooth="yes"/>
      <point x="48.626" y="-0.626953"/>
      <point x="24" y="6.19336"/>
    </contour>
  </outline>
</glyph>
<glyph name="greater" format="2">
  <advance width="451"/>
  <unicode hex="003E"/>
  <outline>
    <contour>
      <point x="32.5078" y="407.211" type="curve" smooth="yes"/>
      <point x="31.1055" y="410.254"/>
      <point x="38.75" y="413.387"/>
      <point x="43.9023" y="413.387" type="curve" smooth="yes"/>
      <point x="70.5215" y="413.387"/>
      <point x="221.763" y="329.77"/>
      <point x="348.12" y="249.673" type="curve" smooth="yes"/>
      <point x="417.833" y="205.483"/>
      <point x="428.816" y="194.793"/>
      <point x="428.816" y="185.046" type="curve" smooth="yes"/>
      <point x="428.816" y="164.906"/>
      <point x="381.921" y="140.253"/>
      <point x="228.271" y="77.3076" type="curve" smooth="yes"/>
      <point x="105.502" y="27.0137"/>
      <point x="52.293" y="8.69043"/>
      <point x="30.9756" y="8.69043" type="curve" smooth="yes"/>
      <point x="24.9707" y="8.69043"/>
      <point x="22" y="10.1445"/>
      <point x="22" y="12.874" type="curve" smooth="yes"/>
      <point x="22" y="27.9756"/>
      <point x="112.939" y="77.8076"/>
      <point x="254.705" y="140.569" type="curve" smooth="yes"/>
      <point x="262.062" y="143.827"/>
      <point x="266.646" y="145.83"/>
      <point x="269.875" y="147.238" type="curve" smooth="yes"/>
      <point x="330.578" y="173.694"/>
      <point x="339.586" y="179.964"/>
      <point x="339.586" y="189.95" type="curve" smooth="yes"/>
      <point x="339.586" y="201.336"/>
      <point x="327.877" y="210.148"/>
      <point x="232.427" y="271.504" type="curve" smooth="yes"/>
      <point x="98.8711" y="357.354"/>
      <point x="35.5713" y="400.562"/>
    </contour>
  </outline>
</glyph>
<glyph name="question" format="2">
  <advance width="384"/>
  <unicode hex="003F"/>
  <outline>
    <contour>
      <point x="314.483" y="644.635" type="curve" smooth="yes"/>
      <point x="344.237" y="594.703"/>
      <point x="356.678" y="539.135"/>
      <point x="360.815" y="444.124" type="curve" smooth="yes"/>
      <point x="361.748" y="422.724"/>
      <point x="362.199" y="400.684"/>
      <point x="362.199" y="376.821" type="curve" smooth="yes"/>
      <point x="362.199" y="224.633"/>
      <point x="343.832" y="83.7822"/>
      <point x="313.813" y="7.7002" type="curve" smooth="yes"/>
      <point x="285.341" y="-64.4648"/>
      <point x="236.099" y="-104.429"/>
      <point x="175.451" y="-104.429" type="curve" smooth="yes"/>
      <point x="169.179" y="-104.429"/>
      <point x="163.124" y="-104.001"/>
      <point x="157.412" y="-103.18" type="curve" smooth="yes"/>
      <point x="132.857" y="-99.6475"/>
      <point x="117.305" y="-89.2109"/>
      <point x="117.305" y="-76.5098" type="curve" smooth="yes"/>
      <point x="117.305" y="-72.3613"/>
      <point x="118.965" y="-68.626"/>
      <point x="122.405" y="-65.4062" type="curve" smooth="yes"/>
      <point x="128.048" y="-60.126"/>
      <point x="136.257" y="-58.3125"/>
      <point x="161.941" y="-55.9932" type="curve" smooth="yes"/>
      <point x="174.205" y="-54.8848"/>
      <point x="181" y="-54.0273"/>
      <point x="185.97" y="-53.2188" type="curve" smooth="yes"/>
      <point x="218.234" y="-47.9707"/>
      <point x="239.655" y="-34.0654"/>
      <point x="256.413" y="-7.67383" type="curve" smooth="yes"/>
      <point x="279.301" y="28.374"/>
      <point x="292.875" y="86.7529"/>
      <point x="298.78" y="173.598" type="curve" smooth="yes"/>
      <point x="301.303" y="210.691"/>
      <point x="302.621" y="255.851"/>
      <point x="302.621" y="304.766" type="curve" smooth="yes"/>
      <point x="302.621" y="372.496"/>
      <point x="300.093" y="441.723"/>
      <point x="295.73" y="492.289" type="curve" smooth="yes"/>
      <point x="290.167" y="556.783"/>
      <point x="281.314" y="594.474"/>
      <point x="265.517" y="617.296" type="curve" smooth="yes"/>
      <point x="257.907" y="628.288"/>
      <point x="251.061" y="632.403"/>
      <point x="233.563" y="634.876" type="curve" smooth="yes"/>
      <point x="225.251" y="636.051"/>
      <point x="214.925" y="636.8"/>
      <point x="205.546" y="636.8" type="curve" smooth="yes"/>
      <point x="199.656" y="636.8"/>
      <point x="194.137" y="636.504"/>
      <point x="189.1" y="635.918" type="curve" smooth="yes"/>
      <point x="173.551" y="634.106"/>
      <point x="160.225" y="629.236"/>
      <point x="145.488" y="619.973" type="curve" smooth="yes"/>
      <point x="127.814" y="608.863"/>
      <point x="112.73" y="594.337"/>
      <point x="101.218" y="577.339" type="curve" smooth="yes"/>
      <point x="88.2715" y="558.226"/>
      <point x="77.6729" y="532.786"/>
      <point x="74.5547" y="513.374" type="curve" smooth="yes"/>
      <point x="73.8389" y="508.923"/>
      <point x="73.4883" y="504.604"/>
      <point x="73.4883" y="499.886" type="curve" smooth="yes"/>
      <point x="73.4883" y="494"/>
      <point x="74.0342" y="489.125"/>
      <point x="76.0293" y="477.871" type="curve" smooth="yes"/>
      <point x="76.7363" y="473.881"/>
      <point x="77.0781" y="471.727"/>
      <point x="77.3555" y="469.497" type="curve" smooth="yes"/>
      <point x="77.7402" y="466.41"/>
      <point x="77.9189" y="463.839"/>
      <point x="77.9189" y="461.558" type="curve" smooth="yes"/>
      <point x="77.9189" y="451.267"/>
      <point x="74.2793" y="446.211"/>
      <point x="66.8877" y="446.211" type="curve" smooth="yes"/>
      <point x="65.3564" y="446.211"/>
      <point x="63.6689" y="446.428"/>
      <point x="61.4688" y="446.945" type="curve" smooth="yes"/>
      <point x="38.4326" y="452.361"/>
      <point x="21" y="476.188"/>
      <point x="21" y="502.939" type="curve" smooth="yes"/>
      <point x="21" y="506.936"/>
      <point x="21.3887" y="511.355"/>
      <point x="22.167" y="515.906" type="curve" smooth="yes"/>
      <point x="29.7529" y="560.311"/>
      <point x="76.1172" y="627.914"/>
      <point x="123.208" y="663.303" type="curve" smooth="yes"/>
      <point x="153.807" y="686.298"/>
      <point x="188.396" y="698.461"/>
      <point x="222.979" y="698.461" type="curve" smooth="yes"/>
      <point x="232.687" y="698.461"/>
      <point x="242.104" y="697.503"/>
      <point x="251.253" y="695.555" type="curve" smooth="yes"/>
      <point x="279.52" y="689.537"/>
      <point x="295.736" y="676.096"/>
    </contour>
    <contour>
      <point x="184.963" y="-139.142" type="curve" smooth="yes"/>
      <point x="187.548" y="-144.782"/>
      <point x="188.866" y="-152.391"/>
      <point x="188.866" y="-160.888" type="curve" smooth="yes"/>
      <point x="188.866" y="-171.503"/>
      <point x="186.809" y="-181.728"/>
      <point x="183.076" y="-188.693" type="curve" smooth="yes"/>
      <point x="178.377" y="-197.462"/>
      <point x="171.472" y="-200.232"/>
      <point x="153.104" y="-200.243" type="curve" smooth="yes"/>
      <point x="152.994" y="-200.243"/>
      <point x="152.992" y="-200.243"/>
      <point x="152.872" y="-200.243" type="curve" smooth="yes"/>
      <point x="152.753" y="-200.243"/>
      <point x="152.517" y="-200.243"/>
      <point x="152.517" y="-200.243" type="curve" smooth="yes"/>
      <point x="134.914" y="-200.243"/>
      <point x="128.362" y="-197.434"/>
      <point x="124.257" y="-188.605" type="curve" smooth="yes"/>
      <point x="121.465" y="-182.604"/>
      <point x="119.994" y="-174.228"/>
      <point x="119.994" y="-165.097" type="curve" smooth="yes"/>
      <point x="119.994" y="-155.002"/>
      <point x="121.792" y="-145.591"/>
      <point x="125.099" y="-139.133" type="curve" smooth="yes"/>
      <point x="129.618" y="-130.307"/>
      <point x="136.776" y="-127.349"/>
      <point x="154.387" y="-127.349" type="curve" smooth="yes"/>
      <point x="154.707" y="-127.349"/>
      <point x="155.035" y="-127.35"/>
      <point x="155.26" y="-127.35" type="curve" smooth="yes"/>
      <point x="174.06" y="-127.369"/>
      <point x="180.844" y="-130.155"/>
    </contour>
  </outline>
</glyph>
<glyph name="at" format="2">
  <advance width="572"/>
  <unicode hex="0040"/>
  <outline>
    <contour>
      <point x="300.86" y="305.812" type="curve" smooth="yes"/>
      <point x="362.723" y="305.812"/>
      <point x="416.788" y="186.459"/>
      <point x="416.788" y="62.8506" type="curve" smooth="yes"/>
      <point x="416.788" y="-43.2139"/>
      <point x="376.98" y="-110.418"/>
      <point x="284.991" y="-168.852" type="curve" smooth="yes"/>
      <point x="248.806" y="-191.837"/>
      <point x="227.426" y="-198.932"/>
      <point x="193.713" y="-198.932" type="curve" smooth="yes"/>
      <point x="85.5859" y="-198.932"/>
      <point x="50.6035" y="-125.948"/>
      <point x="29.1572" y="141.343" type="curve" smooth="yes"/>
      <point x="24.8193" y="195.407"/>
      <point x="23" y="232.932"/>
      <point x="23" y="263.579" type="curve" smooth="yes"/>
      <point x="23" y="371.95"/>
      <point x="45.749" y="437.251"/>
      <point x="105.693" y="507.069" type="curve" smooth="yes"/>
      <point x="136.351" y="542.776"/>
      <point x="158.786" y="558.758"/>
      <point x="198.842" y="574.258" type="curve" smooth="yes"/>
      <point x="247.78" y="593.195"/>
      <point x="306.905" y="605.18"/>
      <point x="348.268" y="605.18" type="curve" smooth="yes"/>
      <point x="417.385" y="605.18"/>
      <point x="449.299" y="571.717"/>
      <point x="478.656" y="474.03" type="curve" smooth="yes"/>
      <point x="516.642" y="347.638"/>
      <point x="549.738" y="115.754"/>
      <point x="549.738" y="-19.6846" type="curve" smooth="yes"/>
      <point x="549.738" y="-111.322"/>
      <point x="534.587" y="-175.892"/>
      <point x="509.225" y="-193.695" type="curve" smooth="yes"/>
      <point x="505.049" y="-196.627"/>
      <point x="500.948" y="-198.043"/>
      <point x="496.899" y="-198.043" type="curve" smooth="yes"/>
      <point x="482.644" y="-198.043"/>
      <point x="467.693" y="-180.484"/>
      <point x="458.335" y="-152.147" type="curve" smooth="yes"/>
      <point x="453.262" y="-136.785"/>
      <point x="451.33" y="-122.788"/>
      <point x="447.271" y="-42.5078" type="curve" smooth="yes"/>
      <point x="446.594" y="-29.1055"/>
      <point x="445.852" y="-15.1123"/>
      <point x="444.693" y="4.41113" type="curve" smooth="yes"/>
      <point x="434.524" y="175.837"/>
      <point x="419.483" y="315.322"/>
      <point x="402.908" y="392.023" type="curve" smooth="yes"/>
      <point x="383.593" y="481.406"/>
      <point x="353.017" y="527.998"/>
      <point x="312.317" y="527.998" type="curve" smooth="yes"/>
      <point x="297.678" y="527.998"/>
      <point x="283.026" y="521.97"/>
      <point x="250.104" y="501.577" type="curve" smooth="yes"/>
      <point x="129.933" y="427.14"/>
      <point x="86.4766" y="359.633"/>
      <point x="86.4766" y="248.87" type="curve" smooth="yes"/>
      <point x="86.4766" y="170.106"/>
      <point x="108.451" y="65.8301"/>
      <point x="140.023" y="-10.5576" type="curve" smooth="yes"/>
      <point x="163.542" y="-67.458"/>
      <point x="184.912" y="-90.8018"/>
      <point x="215.992" y="-90.8018" type="curve" smooth="yes"/>
      <point x="259.981" y="-90.8018"/>
      <point x="328.881" y="-44.0381"/>
      <point x="353.403" y="5.63867" type="curve" smooth="yes"/>
      <point x="363.529" y="26.1514"/>
      <point x="369.428" y="53.9248"/>
      <point x="369.428" y="89.4785" type="curve" smooth="yes"/>
      <point x="369.428" y="153.007"/>
      <point x="350.596" y="198.245"/>
      <point x="319.381" y="198.245" type="curve" smooth="yes"/>
      <point x="309.166" y="198.245"/>
      <point x="296.948" y="193.4"/>
      <point x="268.179" y="178.566" type="curve" smooth="yes"/>
      <point x="234.169" y="161.029"/>
      <point x="221.509" y="156.535"/>
      <point x="211.445" y="156.535" type="curve" smooth="yes"/>
      <point x="196.378" y="156.535"/>
      <point x="187.562" y="166.612"/>
      <point x="187.562" y="185.114" type="curve" smooth="yes"/>
      <point x="187.562" y="235.692"/>
      <point x="253.443" y="305.812"/>
    </contour>
  </outline>
</glyph>
<glyph name="A" format="2">
  <advance width="757"/>
  <unicode hex="0041"/>
  <outline>
    <contour>
      <point x="399.361" y="570.542" type="curve" smooth="yes"/>
      <point x="399.361" y="585.354"/>
      <point x="421.13" y="600.281"/>
      <point x="484.621" y="620.52" type="curve" smooth="yes"/>
      <point x="492.802" y="623.127"/>
      <point x="496.257" y="624.361"/>
      <point x="496.257" y="625.41" type="curve" smooth="yes"/>
      <point x="496.257" y="626.574"/>
      <point x="491.988" y="627.016"/>
      <point x="481.34" y="627.016" type="curve" smooth="yes"/>
      <point x="474.33" y="627.016"/>
      <point x="464.303" y="626.824"/>
      <point x="436.305" y="626.165" type="curve" smooth="yes"/>
      <point x="376.255" y="624.751"/>
      <point x="348.574" y="624.31"/>
      <point x="324.437" y="624.31" type="curve" smooth="yes"/>
      <point x="228.827" y="624.31"/>
      <point x="179.336" y="631.236"/>
      <point x="179.336" y="644.07" type="curve" smooth="yes"/>
      <point x="179.336" y="655.498"/>
      <point x="218.57" y="662.457"/>
      <point x="280.172" y="662.457" type="curve" smooth="yes"/>
      <point x="303.968" y="662.457"/>
      <point x="338.05" y="661.419"/>
      <point x="424.474" y="657.72" type="curve" smooth="yes"/>
      <point x="457.811" y="656.292"/>
      <point x="470.926" y="655.794"/>
      <point x="478.221" y="655.794" type="curve" smooth="yes"/>
      <point x="486.563" y="655.794"/>
      <point x="490.227" y="656.445"/>
      <point x="490.227" y="657.896" type="curve" smooth="yes"/>
      <point x="490.227" y="659.938"/>
      <point x="482.949" y="664.646"/>
      <point x="455.663" y="679.882" type="curve" smooth="yes"/>
      <point x="404.879" y="708.239"/>
      <point x="388.428" y="719.656"/>
      <point x="388.428" y="726.574" type="curve" smooth="yes"/>
      <point x="388.428" y="730.019"/>
      <point x="392.507" y="731.951"/>
      <point x="398.077" y="731.951" type="curve" smooth="yes"/>
      <point x="432.849" y="731.951"/>
      <point x="559.895" y="656.652"/>
      <point x="559.895" y="636.748" type="curve" smooth="yes"/>
      <point x="559.895" y="630.141"/>
      <point x="545.895" y="623.201"/>
      <point x="412.536" y="563.554" type="curve" smooth="yes"/>
      <point x="410.969" y="562.853"/>
      <point x="410.969" y="562.853"/>
      <point x="410.969" y="562.853" type="curve" smooth="yes"/>
      <point x="402.517" y="562.853"/>
      <point x="399.361" y="564.902"/>
    </contour>
    <contour>
      <point x="25" y="-200.023" type="line"/>
      <point x="25" y="526.4" type="line"/>
      <point x="732.195" y="526.4" type="line"/>
      <point x="732.195" y="-200.023" type="line"/>
    </contour>
  </outline>
</glyph>
<glyph name="B" format="2">
  <advance width="657"/>
  <unicode hex="0042"/>
  <outline>
    <contour>
      <point x="335.959" y="559.832" type="curve" smooth="yes"/>
      <point x="335.959" y="575.56"/>
      <point x="358.223" y="589.447"/>
      <point x="418.916" y="608.794" type="curve" smooth="yes"/>
      <point x="429.479" y="612.161"/>
      <point x="432.854" y="613.443"/>
      <point x="432.854" y="614.449" type="curve" smooth="yes"/>
      <point x="432.854" y="615.582"/>
      <point x="428.585" y="616.022"/>
      <point x="417.925" y="616.022" type="curve" smooth="yes"/>
      <point x="410.856" y="616.022"/>
      <point x="400.768" y="615.829"/>
      <point x="373.565" y="615.188" type="curve" smooth="yes"/>
      <point x="312.613" y="613.753"/>
      <point x="284.982" y="613.315"/>
      <point x="260.971" y="613.315" type="curve" smooth="yes"/>
      <point x="165.432" y="613.315"/>
      <point x="115.933" y="620.244"/>
      <point x="115.933" y="633.078" type="curve" smooth="yes"/>
      <point x="115.933" y="644.506"/>
      <point x="155.176" y="651.466"/>
      <point x="217.411" y="651.466" type="curve" smooth="yes"/>
      <point x="241.637" y="651.466"/>
      <point x="275.031" y="650.411"/>
      <point x="358.182" y="646.852" type="curve" smooth="yes"/>
      <point x="394.662" y="645.29"/>
      <point x="407.759" y="644.802"/>
      <point x="414.906" y="644.802" type="curve" smooth="yes"/>
      <point x="423.16" y="644.802"/>
      <point x="426.824" y="645.453"/>
      <point x="426.824" y="646.938" type="curve" smooth="yes"/>
      <point x="426.824" y="649.047"/>
      <point x="419.434" y="653.716"/>
      <point x="394.375" y="667.709" type="curve" smooth="yes"/>
      <point x="341.313" y="697.339"/>
      <point x="325.023" y="708.868"/>
      <point x="325.023" y="715.639" type="curve" smooth="yes"/>
      <point x="325.023" y="719.026"/>
      <point x="329.103" y="720.959"/>
      <point x="334.673" y="720.959" type="curve" smooth="yes"/>
      <point x="369.444" y="720.959"/>
      <point x="496.493" y="645.659"/>
      <point x="496.493" y="625.739" type="curve" smooth="yes"/>
      <point x="496.493" y="619.164"/>
      <point x="482.646" y="612.28"/>
      <point x="351.27" y="553.517" type="curve" smooth="yes"/>
      <point x="347.565" y="551.859"/>
      <point x="347.565" y="551.859"/>
      <point x="347.565" y="551.859" type="curve" smooth="yes"/>
      <point x="339.115" y="551.859"/>
      <point x="335.959" y="553.91"/>
    </contour>
    <contour>
      <point x="283.384" y="-199.357" type="curve" smooth="yes"/>
      <point x="76.5684" y="-199.357"/>
      <point x="23" y="-195.363"/>
      <point x="23" y="-177.414" type="curve" smooth="yes"/>
      <point x="23" y="-165.261"/>
      <point x="47.5615" y="-157.592"/>
      <point x="114.682" y="-152.104" type="curve" smooth="yes"/>
      <point x="158.725" y="-148.503"/>
      <point x="227.166" y="-145.344"/>
      <point x="380.498" y="-140.599" type="curve" smooth="yes"/>
      <point x="396.222" y="-140.112"/>
      <point x="406.76" y="-139.775"/>
      <point x="416.877" y="-139.398" type="curve" smooth="yes"/>
      <point x="543.121" y="-134.696"/>
      <point x="555.388" y="-125.503"/>
      <point x="560.981" y="-26.1191" type="curve" smooth="yes"/>
      <point x="563.007" y="9.86035"/>
      <point x="563.936" y="53.7139"/>
      <point x="564.873" y="154.986" type="curve" smooth="yes"/>
      <point x="566.351" y="314.632"/>
      <point x="568.188" y="372.63"/>
      <point x="572.39" y="416.338" type="curve" smooth="yes"/>
      <point x="577.613" y="470.693"/>
      <point x="586.177" y="499.675"/>
      <point x="596.312" y="499.675" type="curve" smooth="yes"/>
      <point x="618.554" y="499.675"/>
      <point x="633.914" y="360.115"/>
      <point x="633.914" y="158.648" type="curve" smooth="yes"/>
      <point x="633.914" y="60.0479"/>
      <point x="630.234" y="-24.4883"/>
      <point x="624.383" y="-77.5928" type="curve" smooth="yes"/>
      <point x="611.901" y="-190.843"/>
      <point x="585.327" y="-199.357"/>
    </contour>
  </outline>
</glyph>
<glyph name="C" format="2">
  <advance width="457"/>
  <unicode hex="0043"/>
  <outline>
    <contour>
      <point x="260.627" y="601.958" type="curve" smooth="yes"/>
      <point x="260.627" y="619.218"/>
      <point x="284.828" y="633.911"/>
      <point x="348.982" y="654.361" type="curve" smooth="yes"/>
      <point x="361.706" y="658.417"/>
      <point x="365.275" y="659.828"/>
      <point x="365.275" y="660.885" type="curve" smooth="yes"/>
      <point x="365.275" y="662.086"/>
      <point x="360.658" y="662.562"/>
      <point x="349.578" y="662.562" type="curve" smooth="yes"/>
      <point x="342.447" y="662.562"/>
      <point x="331.183" y="662.365"/>
      <point x="295.656" y="661.528" type="curve" smooth="yes"/>
      <point x="235.936" y="660.122"/>
      <point x="207.1" y="659.639"/>
      <point x="180.617" y="659.639" type="curve" smooth="yes"/>
      <point x="76.459" y="659.639"/>
      <point x="23" y="667.121"/>
      <point x="23" y="680.982" type="curve" smooth="yes"/>
      <point x="23" y="693.324"/>
      <point x="65.3828" y="700.841"/>
      <point x="133.125" y="700.841" type="curve" smooth="yes"/>
      <point x="159.654" y="700.841"/>
      <point x="195.157" y="699.688"/>
      <point x="281.007" y="696.013" type="curve" smooth="yes"/>
      <point x="324.163" y="694.166"/>
      <point x="338.496" y="693.645"/>
      <point x="346.045" y="693.645" type="curve" smooth="yes"/>
      <point x="354.81" y="693.645"/>
      <point x="358.762" y="694.348"/>
      <point x="358.762" y="695.942" type="curve" smooth="yes"/>
      <point x="358.762" y="698.203"/>
      <point x="350.816" y="703.251"/>
      <point x="323.138" y="718.706" type="curve" smooth="yes"/>
      <point x="266.464" y="750.353"/>
      <point x="248.818" y="762.772"/>
      <point x="248.818" y="770.129" type="curve" smooth="yes"/>
      <point x="248.818" y="773.806"/>
      <point x="253.225" y="775.893"/>
      <point x="259.241" y="775.893" type="curve" smooth="yes"/>
      <point x="296.795" y="775.893"/>
      <point x="434.004" y="694.57"/>
      <point x="434.004" y="673.073" type="curve" smooth="yes"/>
      <point x="434.004" y="665.938"/>
      <point x="418.888" y="658.448"/>
      <point x="277.019" y="594.991" type="curve" smooth="yes"/>
      <point x="273.16" y="593.266"/>
      <point x="273.16" y="593.266"/>
      <point x="273.16" y="593.266" type="curve" smooth="yes"/>
      <point x="264.035" y="593.266"/>
      <point x="260.627" y="595.481"/>
    </contour>
    <contour>
      <point x="87.0918" y="504.092" type="curve" smooth="yes"/>
      <point x="87.0918" y="532.167"/>
      <point x="154.062" y="570.481"/>
      <point x="211.986" y="570.481" type="curve" smooth="yes"/>
      <point x="272.991" y="570.481"/>
      <point x="311.512" y="527.984"/>
      <point x="311.512" y="450.499" type="curve" smooth="yes"/>
      <point x="311.512" y="407.168"/>
      <point x="299.466" y="359.772"/>
      <point x="255.364" y="242.927" type="curve" smooth="yes"/>
      <point x="211.998" y="128.026"/>
      <point x="198.693" y="77.8135"/>
      <point x="198.693" y="21.8682" type="curve" smooth="yes"/>
      <point x="198.693" y="-73.3232"/>
      <point x="237.214" y="-152.088"/>
      <point x="285.186" y="-152.088" type="curve" smooth="yes"/>
      <point x="298.128" y="-152.088"/>
      <point x="311.999" y="-146.354"/>
      <point x="340.946" y="-126.05" type="curve" smooth="yes"/>
      <point x="355.311" y="-115.973"/>
      <point x="361.357" y="-112.716"/>
      <point x="367.357" y="-112.716" type="curve" smooth="yes"/>
      <point x="377.357" y="-112.716"/>
      <point x="383.523" y="-121.765"/>
      <point x="383.523" y="-134.615" type="curve" smooth="yes"/>
      <point x="383.523" y="-170.271"/>
      <point x="336.051" y="-199.397"/>
      <point x="286.628" y="-199.397" type="curve" smooth="yes"/>
      <point x="201.531" y="-199.397"/>
      <point x="152.803" y="-113.052"/>
      <point x="152.803" y="19.334" type="curve" smooth="yes"/>
      <point x="152.803" y="96.25"/>
      <point x="169.252" y="158.927"/>
      <point x="224.815" y="292.396" type="curve" smooth="yes"/>
      <point x="260.487" y="378.081"/>
      <point x="270.898" y="412.635"/>
      <point x="270.898" y="446.954" type="curve" smooth="yes"/>
      <point x="270.898" y="501.839"/>
      <point x="244.271" y="530.915"/>
      <point x="201.104" y="530.915" type="curve" smooth="yes"/>
      <point x="158.861" y="530.915"/>
      <point x="106.74" y="503.072"/>
      <point x="101.856" y="492.507" type="curve" smooth="yes"/>
      <point x="97.458" y="482.993"/>
      <point x="87.0918" y="493.046"/>
    </contour>
  </outline>
</glyph>
<glyph name="D" format="2">
  <advance width="658"/>
  <unicode hex="0044"/>
  <outline>
    <contour>
      <point x="367.364" y="559.813" type="curve" smooth="yes"/>
      <point x="367.364" y="575.484"/>
      <point x="389.599" y="589.439"/>
      <point x="450.543" y="608.865" type="curve" smooth="yes"/>
      <point x="460.884" y="612.161"/>
      <point x="464.259" y="613.436"/>
      <point x="464.259" y="614.445" type="curve" smooth="yes"/>
      <point x="464.259" y="615.581"/>
      <point x="459.989" y="616.022"/>
      <point x="449.387" y="616.022" type="curve" smooth="yes"/>
      <point x="442.379" y="616.022"/>
      <point x="432.229" y="615.83"/>
      <point x="404.066" y="615.167" type="curve" smooth="yes"/>
      <point x="344.111" y="613.755"/>
      <point x="316.694" y="613.315"/>
      <point x="292.576" y="613.315" type="curve" smooth="yes"/>
      <point x="196.838" y="613.315"/>
      <point x="147.339" y="620.244"/>
      <point x="147.339" y="633.078" type="curve" smooth="yes"/>
      <point x="147.339" y="644.506"/>
      <point x="186.582" y="651.466"/>
      <point x="249.245" y="651.466" type="curve" smooth="yes"/>
      <point x="273.776" y="651.466"/>
      <point x="306.723" y="650.399"/>
      <point x="386.664" y="646.978" type="curve" smooth="yes"/>
      <point x="426.24" y="645.283"/>
      <point x="439.425" y="644.802"/>
      <point x="446.423" y="644.802" type="curve" smooth="yes"/>
      <point x="454.565" y="644.802"/>
      <point x="458.229" y="645.453"/>
      <point x="458.229" y="646.913" type="curve" smooth="yes"/>
      <point x="458.229" y="648.977"/>
      <point x="450.917" y="653.673"/>
      <point x="424.249" y="668.564" type="curve" smooth="yes"/>
      <point x="372.836" y="697.273"/>
      <point x="356.431" y="708.714"/>
      <point x="356.431" y="715.596" type="curve" smooth="yes"/>
      <point x="356.431" y="719.026"/>
      <point x="360.51" y="720.959"/>
      <point x="366.08" y="720.959" type="curve" smooth="yes"/>
      <point x="400.853" y="720.959"/>
      <point x="527.897" y="645.659"/>
      <point x="527.897" y="625.74" type="curve" smooth="yes"/>
      <point x="527.897" y="619.164"/>
      <point x="514.05" y="612.278"/>
      <point x="380.831" y="552.691" type="curve" smooth="yes"/>
      <point x="378.972" y="551.859"/>
      <point x="378.972" y="551.859"/>
      <point x="378.972" y="551.859" type="curve" smooth="yes"/>
      <point x="370.52" y="551.859"/>
      <point x="367.364" y="553.909"/>
    </contour>
    <contour>
      <point x="24" y="160.862" type="curve" smooth="yes"/>
      <point x="24" y="359.504"/>
      <point x="38.4883" y="499.675"/>
      <point x="61.3428" y="499.675" type="curve" smooth="yes"/>
      <point x="71.623" y="499.675"/>
      <point x="80.2412" y="471.315"/>
      <point x="85.6221" y="415.328" type="curve" smooth="yes"/>
      <point x="89.9424" y="370.385"/>
      <point x="91.5703" y="313.936"/>
      <point x="92.9355" y="166.414" type="curve" smooth="yes"/>
      <point x="93.9834" y="53.084"/>
      <point x="95.0635" y="7.08887"/>
      <point x="97.0312" y="-27.8818" type="curve" smooth="yes"/>
      <point x="102.524" y="-125.501"/>
      <point x="114.793" y="-134.696"/>
      <point x="240.589" y="-139.382" type="curve" smooth="yes"/>
      <point x="250.582" y="-139.755"/>
      <point x="261.557" y="-140.108"/>
      <point x="280.102" y="-140.683" type="curve" smooth="yes"/>
      <point x="430.127" y="-145.324"/>
      <point x="497.189" y="-148.339"/>
      <point x="542.339" y="-152.031" type="curve" smooth="yes"/>
      <point x="609.788" y="-157.546"/>
      <point x="634.914" y="-165.11"/>
      <point x="634.914" y="-177.398" type="curve" smooth="yes"/>
      <point x="634.914" y="-195.211"/>
      <point x="582.124" y="-199.357"/>
      <point x="372.687" y="-199.357" type="curve" smooth="yes"/>
      <point x="72.5947" y="-199.357"/>
      <point x="46.0107" y="-190.844"/>
      <point x="33.5947" y="-78.1689" type="curve" smooth="yes"/>
      <point x="27.9131" y="-26.6074"/>
      <point x="24" y="57.6328"/>
    </contour>
  </outline>
</glyph>
<glyph name="E" format="2">
  <advance width="616"/>
  <unicode hex="0045"/>
  <outline>
    <contour>
      <point x="320.471" y="550.122" type="curve" smooth="yes"/>
      <point x="320.471" y="564.154"/>
      <point x="340.719" y="577.43"/>
      <point x="398.093" y="595.718" type="curve" smooth="yes"/>
      <point x="406.465" y="598.387"/>
      <point x="409.614" y="599.536"/>
      <point x="409.614" y="600.486" type="curve" smooth="yes"/>
      <point x="409.614" y="601.548"/>
      <point x="405.681" y="601.954"/>
      <point x="395.892" y="601.954" type="curve" smooth="yes"/>
      <point x="389.465" y="601.954"/>
      <point x="380.269" y="601.779"/>
      <point x="354.417" y="601.17" type="curve" smooth="yes"/>
      <point x="299.096" y="599.868"/>
      <point x="273.783" y="599.463"/>
      <point x="251.602" y="599.463" type="curve" smooth="yes"/>
      <point x="163.585" y="599.463"/>
      <point x="118.048" y="605.837"/>
      <point x="118.048" y="617.645" type="curve" smooth="yes"/>
      <point x="118.048" y="628.157"/>
      <point x="154.146" y="634.56"/>
      <point x="211.263" y="634.56" type="curve" smooth="yes"/>
      <point x="233.493" y="634.56"/>
      <point x="264.438" y="633.59"/>
      <point x="341.372" y="630.296" type="curve" smooth="yes"/>
      <point x="374.424" y="628.881"/>
      <point x="386.473" y="628.43"/>
      <point x="393.079" y="628.43" type="curve" smooth="yes"/>
      <point x="400.694" y="628.43"/>
      <point x="404.065" y="629.029"/>
      <point x="404.065" y="630.392" type="curve" smooth="yes"/>
      <point x="404.065" y="632.324"/>
      <point x="397.284" y="636.622"/>
      <point x="373.917" y="649.67" type="curve" smooth="yes"/>
      <point x="325.431" y="676.744"/>
      <point x="310.412" y="687.34"/>
      <point x="310.412" y="693.591" type="curve" smooth="yes"/>
      <point x="310.412" y="696.716"/>
      <point x="314.166" y="698.494"/>
      <point x="319.291" y="698.494" type="curve" smooth="yes"/>
      <point x="351.281" y="698.494"/>
      <point x="468.162" y="629.219"/>
      <point x="468.162" y="610.886" type="curve" smooth="yes"/>
      <point x="468.162" y="604.852"/>
      <point x="455.497" y="598.544"/>
      <point x="334.304" y="544.335" type="curve" smooth="yes"/>
      <point x="331.147" y="542.923"/>
      <point x="331.147" y="542.923"/>
      <point x="331.147" y="542.923" type="curve" smooth="yes"/>
      <point x="323.373" y="542.923"/>
      <point x="320.471" y="544.81"/>
    </contour>
    <contour>
      <point x="475.817" y="96.5889" type="curve" smooth="yes"/>
      <point x="581.906" y="-145.98"/>
      <point x="592.754" y="-176.028"/>
      <point x="592.754" y="-193.089" type="curve" smooth="yes"/>
      <point x="592.754" y="-198.073"/>
      <point x="591.828" y="-199.836"/>
      <point x="589.357" y="-199.836" type="curve" smooth="yes"/>
      <point x="586.503" y="-199.836" type="line" smooth="yes"/>
      <point x="569.282" y="-199.836"/>
      <point x="471.421" y="-199.803"/>
      <point x="324.163" y="-199.748" type="curve" smooth="yes"/>
      <point x="26.3701" y="-199.65" type="line" smooth="yes"/>
      <point x="23.9512" y="-199.649"/>
      <point x="23" y="-198.136"/>
      <point x="23" y="-194.174" type="curve" smooth="yes"/>
      <point x="23" y="-176.907"/>
      <point x="41.0596" y="-129.754"/>
      <point x="152.098" y="119.028" type="curve" smooth="yes"/>
      <point x="261.96" y="365.18"/>
      <point x="284.659" y="409.487"/>
      <point x="310.183" y="409.487" type="curve" smooth="yes"/>
      <point x="336.19" y="409.487"/>
      <point x="359.089" y="363.482"/>
    </contour>
  </outline>
</glyph>
<glyph name="F" format="2">
  <advance width="786"/>
  <unicode hex="0046"/>
  <outline>
    <contour>
      <point x="488.965" y="567.688" type="curve" smooth="yes"/>
      <point x="488.965" y="581.614"/>
      <point x="509.152" y="595.008"/>
      <point x="566.83" y="613.393" type="curve" smooth="yes"/>
      <point x="574.951" y="615.981"/>
      <point x="578.11" y="617.126"/>
      <point x="578.11" y="618.08" type="curve" smooth="yes"/>
      <point x="578.11" y="619.146"/>
      <point x="574.176" y="619.552"/>
      <point x="564.724" y="619.552" type="curve" smooth="yes"/>
      <point x="558.649" y="619.552"/>
      <point x="549.09" y="619.384"/>
      <point x="518.828" y="618.672" type="curve" smooth="yes"/>
      <point x="467.872" y="617.472"/>
      <point x="443.345" y="617.061"/>
      <point x="420.807" y="617.061" type="curve" smooth="yes"/>
      <point x="332.079" y="617.061"/>
      <point x="286.54" y="623.435"/>
      <point x="286.54" y="635.242" type="curve" smooth="yes"/>
      <point x="286.54" y="645.756"/>
      <point x="322.645" y="652.158"/>
      <point x="380.178" y="652.158" type="curve" smooth="yes"/>
      <point x="402.65" y="652.158"/>
      <point x="433.064" y="651.182"/>
      <point x="507.593" y="647.991" type="curve" smooth="yes"/>
      <point x="543.015" y="646.475"/>
      <point x="555.169" y="646.027"/>
      <point x="561.665" y="646.027" type="curve" smooth="yes"/>
      <point x="569.188" y="646.027"/>
      <point x="572.562" y="646.627"/>
      <point x="572.562" y="647.955" type="curve" smooth="yes"/>
      <point x="572.562" y="649.822"/>
      <point x="565.898" y="654.152"/>
      <point x="540.427" y="668.376" type="curve" smooth="yes"/>
      <point x="494.059" y="694.268"/>
      <point x="478.905" y="704.754"/>
      <point x="478.905" y="711.137" type="curve" smooth="yes"/>
      <point x="478.905" y="714.313"/>
      <point x="482.658" y="716.092"/>
      <point x="487.784" y="716.092" type="curve" smooth="yes"/>
      <point x="519.772" y="716.092"/>
      <point x="636.656" y="646.815"/>
      <point x="636.656" y="628.5" type="curve" smooth="yes"/>
      <point x="636.656" y="622.428"/>
      <point x="623.811" y="616.061"/>
      <point x="503.3" y="562.156" type="curve" smooth="yes"/>
      <point x="499.64" y="560.52"/>
      <point x="499.64" y="560.52"/>
      <point x="499.64" y="560.52" type="curve" smooth="yes"/>
      <point x="491.867" y="560.52"/>
      <point x="488.965" y="562.406"/>
    </contour>
    <contour>
      <point x="470.728" y="101.252" type="curve" smooth="yes"/>
      <point x="470.728" y="67.8623"/>
      <point x="420.868" y="34.1416"/>
      <point x="362.796" y="34.1416" type="curve" smooth="yes"/>
      <point x="337.738" y="34.1416"/>
      <point x="310.456" y="40.4199"/>
      <point x="247.648" y="63.3828" type="curve" smooth="yes"/>
      <point x="195.853" y="82.3203"/>
      <point x="172.966" y="88.1738"/>
      <point x="147.017" y="88.1738" type="curve" smooth="yes"/>
      <point x="106.277" y="88.1738"/>
      <point x="82.0332" y="73.7461"/>
      <point x="56.9268" y="27.6006" type="curve" smooth="yes"/>
      <point x="51.2002" y="17.0742"/>
      <point x="48.085" y="12.915"/>
      <point x="42.8203" y="11.5957" type="curve" smooth="yes"/>
      <point x="41.751" y="11.3281"/>
      <point x="40.6699" y="11.1963"/>
      <point x="39.5928" y="11.1963" type="curve" smooth="yes"/>
      <point x="31.166" y="11.1963"/>
      <point x="23" y="19.2451"/>
      <point x="23" y="33.0371" type="curve" smooth="yes"/>
      <point x="23" y="72.1641"/>
      <point x="88.7129" y="126.244"/>
      <point x="150.459" y="126.244" type="curve" smooth="yes"/>
      <point x="171.539" y="126.244"/>
      <point x="190.217" y="119.94"/>
      <point x="229.077" y="100.814" type="curve" smooth="yes"/>
      <point x="290.84" y="70.417"/>
      <point x="321.974" y="62.3877"/>
      <point x="355.244" y="62.3877" type="curve" smooth="yes"/>
      <point x="391.274" y="62.3877"/>
      <point x="419.605" y="71.8037"/>
      <point x="438.439" y="108.196" type="curve" smooth="yes"/>
      <point x="442.529" y="116.099"/>
      <point x="445.578" y="119.852"/>
      <point x="453.606" y="119.852" type="curve" smooth="yes"/>
      <point x="464.146" y="119.852"/>
      <point x="470.728" y="113.383"/>
    </contour>
    <contour>
      <point x="201.025" y="130.905" type="curve" smooth="yes"/>
      <point x="201.025" y="313.653"/>
      <point x="214.355" y="442.619"/>
      <point x="235.384" y="442.619" type="curve" smooth="yes"/>
      <point x="244.842" y="442.619"/>
      <point x="252.77" y="416.53"/>
      <point x="257.506" y="367.248" type="curve" smooth="yes"/>
      <point x="261.236" y="328.427"/>
      <point x="263.177" y="273.231"/>
      <point x="264.63" y="116.321" type="curve" smooth="yes"/>
      <point x="265.403" y="32.7949"/>
      <point x="266.172" y="-6.41309"/>
      <point x="268.069" y="-40.1172" type="curve" smooth="yes"/>
      <point x="273.271" y="-132.544"/>
      <point x="284.559" y="-141.002"/>
      <point x="400.841" y="-145.334" type="curve" smooth="yes"/>
      <point x="410.001" y="-145.675"/>
      <point x="419.391" y="-145.975"/>
      <point x="433.294" y="-146.405" type="curve" smooth="yes"/>
      <point x="575.36" y="-150.804"/>
      <point x="638.315" y="-153.714"/>
      <point x="678.879" y="-157.03" type="curve" smooth="yes"/>
      <point x="739.951" y="-162.023"/>
      <point x="763.068" y="-168.982"/>
      <point x="763.068" y="-180.289" type="curve" smooth="yes"/>
      <point x="763.068" y="-196.676"/>
      <point x="714.504" y="-200.491"/>
      <point x="521.822" y="-200.491" type="curve" smooth="yes"/>
      <point x="245.737" y="-200.491"/>
      <point x="221.278" y="-192.659"/>
      <point x="209.854" y="-89.001" type="curve" smooth="yes"/>
      <point x="204.626" y="-41.5693"/>
      <point x="201.025" y="35.9277"/>
    </contour>
  </outline>
</glyph>
<glyph name="G" format="2">
  <advance width="954"/>
  <unicode hex="0047"/>
  <outline>
    <contour>
      <point x="495.655" y="494.898" type="curve" smooth="yes"/>
      <point x="495.655" y="507.342"/>
      <point x="513.479" y="518.438"/>
      <point x="561.955" y="533.892" type="curve" smooth="yes"/>
      <point x="570.486" y="536.611"/>
      <point x="573.172" y="537.634"/>
      <point x="573.172" y="538.437" type="curve" smooth="yes"/>
      <point x="573.172" y="539.343"/>
      <point x="569.755" y="539.695"/>
      <point x="561.426" y="539.695" type="curve" smooth="yes"/>
      <point x="555.991" y="539.695"/>
      <point x="547.721" y="539.545"/>
      <point x="522.982" y="538.962" type="curve" smooth="yes"/>
      <point x="477.345" y="537.887"/>
      <point x="455.707" y="537.529"/>
      <point x="436.171" y="537.529" type="curve" smooth="yes"/>
      <point x="359.229" y="537.529"/>
      <point x="319.634" y="543.071"/>
      <point x="319.634" y="553.339" type="curve" smooth="yes"/>
      <point x="319.634" y="562.481"/>
      <point x="351.03" y="568.049"/>
      <point x="401.33" y="568.049" type="curve" smooth="yes"/>
      <point x="421.073" y="568.049"/>
      <point x="447.256" y="567.191"/>
      <point x="509.752" y="564.516" type="curve" smooth="yes"/>
      <point x="542.807" y="563.101"/>
      <point x="553.447" y="562.718"/>
      <point x="558.97" y="562.718" type="curve" smooth="yes"/>
      <point x="565.415" y="562.718"/>
      <point x="568.348" y="563.239"/>
      <point x="568.348" y="564.46" type="curve" smooth="yes"/>
      <point x="568.348" y="566.209"/>
      <point x="562.326" y="569.909"/>
      <point x="545.054" y="579.554" type="curve" smooth="yes"/>
      <point x="499.657" y="604.903"/>
      <point x="486.908" y="614.361"/>
      <point x="486.908" y="619.499" type="curve" smooth="yes"/>
      <point x="486.908" y="622.099"/>
      <point x="490.17" y="623.645"/>
      <point x="494.463" y="623.645" type="curve" smooth="yes"/>
      <point x="521.095" y="623.645"/>
      <point x="624.082" y="564.147"/>
      <point x="624.082" y="553.208" type="curve" smooth="yes"/>
      <point x="624.082" y="541.884"/>
      <point x="513.735" y="488.363"/>
      <point x="500.272" y="488.363" type="curve" smooth="yes"/>
      <point x="497.067" y="488.363"/>
      <point x="495.655" y="491.396"/>
    </contour>
    <contour>
      <point x="23" y="-166.75" type="curve" smooth="yes"/>
      <point x="23" y="-158.564"/>
      <point x="35.7471" y="-157.152"/>
      <point x="117.428" y="-157.152" type="curve" smooth="yes"/>
      <point x="127.477" y="-157.152"/>
      <point x="141.565" y="-157.174"/>
      <point x="169.93" y="-157.239" type="curve" smooth="yes"/>
      <point x="175.951" y="-157.253"/>
      <point x="177.578" y="-157.257"/>
      <point x="178.213" y="-157.257" type="curve" smooth="yes"/>
      <point x="208.382" y="-157.257"/>
      <point x="211.867" y="-149.107"/>
      <point x="214.474" y="-69.041" type="curve" smooth="yes"/>
      <point x="216.31" y="-12.6729"/>
      <point x="217.319" y="67.3428"/>
      <point x="218.329" y="271.563" type="curve" smooth="yes"/>
      <point x="218.469" y="299.922"/>
      <point x="218.572" y="318.471"/>
      <point x="218.711" y="336.765" type="curve" smooth="yes"/>
      <point x="219.349" y="420.504"/>
      <point x="220.156" y="421.223"/>
      <point x="308.865" y="421.223" type="curve" smooth="yes"/>
      <point x="662.681" y="421.223" type="line" smooth="yes"/>
      <point x="757.496" y="421.223"/>
      <point x="761.595" y="417.741"/>
      <point x="764.926" y="333.406" type="curve" smooth="yes"/>
      <point x="767.985" y="255.948"/>
      <point x="769.094" y="143.282"/>
      <point x="769.094" y="-93.4863" type="curve" smooth="yes"/>
      <point x="769.094" y="-93.6826" type="line" smooth="yes"/>
      <point x="769.094" y="-155.015"/>
      <point x="771.765" y="-157.437"/>
      <point x="789.338" y="-157.437" type="curve" smooth="yes"/>
      <point x="790.595" y="-157.437"/>
      <point x="791.938" y="-157.424"/>
      <point x="795.448" y="-157.383" type="curve" smooth="yes"/>
      <point x="807.456" y="-157.242"/>
      <point x="815.226" y="-157.192"/>
      <point x="824.211" y="-157.192" type="curve" smooth="yes"/>
      <point x="900.188" y="-157.192"/>
      <point x="931.209" y="-160.731"/>
      <point x="931.209" y="-169.944" type="curve" smooth="yes"/>
      <point x="931.209" y="-190.054"/>
      <point x="783.413" y="-199.657"/>
      <point x="449.327" y="-199.657" type="curve" smooth="yes"/>
      <point x="137.618" y="-199.657"/>
      <point x="23" y="-191.297"/>
    </contour>
  </outline>
</glyph>
<glyph name="H" format="2">
  <advance width="654"/>
  <unicode hex="0048"/>
  <outline>
    <contour>
      <point x="389.434" y="447.674" type="curve" smooth="yes"/>
      <point x="389.434" y="459.892"/>
      <point x="407.139" y="471.229"/>
      <point x="456.473" y="486.955" type="curve" smooth="yes"/>
      <point x="464.238" y="489.431"/>
      <point x="466.949" y="490.436"/>
      <point x="466.949" y="491.252" type="curve" smooth="yes"/>
      <point x="466.949" y="492.17"/>
      <point x="463.528" y="492.523"/>
      <point x="455.146" y="492.523" type="curve" smooth="yes"/>
      <point x="449.664" y="492.523"/>
      <point x="441.456" y="492.372"/>
      <point x="417.291" y="491.803" type="curve" smooth="yes"/>
      <point x="370.998" y="490.712"/>
      <point x="349.32" y="490.356"/>
      <point x="329.862" y="490.356" type="curve" smooth="yes"/>
      <point x="253.016" y="490.356"/>
      <point x="213.414" y="495.899"/>
      <point x="213.414" y="506.167" type="curve" smooth="yes"/>
      <point x="213.414" y="515.309"/>
      <point x="244.805" y="520.876"/>
      <point x="293.677" y="520.876" type="curve" smooth="yes"/>
      <point x="312.457" y="520.876"/>
      <point x="340.186" y="520.054"/>
      <point x="411.094" y="517.019" type="curve" smooth="yes"/>
      <point x="436.199" y="515.943"/>
      <point x="446.593" y="515.545"/>
      <point x="452.469" y="515.545" type="curve" smooth="yes"/>
      <point x="459.19" y="515.545"/>
      <point x="462.125" y="516.067"/>
      <point x="462.125" y="517.229" type="curve" smooth="yes"/>
      <point x="462.125" y="518.866"/>
      <point x="456.305" y="522.625"/>
      <point x="434.578" y="534.758" type="curve" smooth="yes"/>
      <point x="393.835" y="557.509"/>
      <point x="380.686" y="566.644"/>
      <point x="380.686" y="572.172" type="curve" smooth="yes"/>
      <point x="380.686" y="574.926"/>
      <point x="383.949" y="576.472"/>
      <point x="388.242" y="576.472" type="curve" smooth="yes"/>
      <point x="414.873" y="576.472"/>
      <point x="517.859" y="516.974"/>
      <point x="517.859" y="506.034" type="curve" smooth="yes"/>
      <point x="517.859" y="494.71"/>
      <point x="407.513" y="441.191"/>
      <point x="394.05" y="441.191" type="curve" smooth="yes"/>
      <point x="390.846" y="441.191"/>
      <point x="389.434" y="444.224"/>
    </contour>
    <contour>
      <point x="631.395" y="60.1016" type="curve" smooth="yes"/>
      <point x="631.395" y="31.0654"/>
      <point x="588.037" y="1.74121"/>
      <point x="538.105" y="1.74121" type="curve" smooth="yes"/>
      <point x="516.688" y="1.74121"/>
      <point x="492.2" y="7.13672"/>
      <point x="435.331" y="27.9287" type="curve" smooth="yes"/>
      <point x="392.468" y="43.6006"/>
      <point x="372.923" y="48.7266"/>
      <point x="349.85" y="48.7266" type="curve" smooth="yes"/>
      <point x="313.606" y="48.7266"/>
      <point x="293.347" y="36.0801"/>
      <point x="271.963" y="-3.21973" type="curve" smooth="yes"/>
      <point x="266.571" y="-13.127"/>
      <point x="263.751" y="-16.7471"/>
      <point x="259.233" y="-17.8789" type="curve" smooth="yes"/>
      <point x="251.101" y="-19.917"/>
      <point x="242.068" y="-12.7432"/>
      <point x="242.068" y="0.78418" type="curve" smooth="yes"/>
      <point x="242.068" y="34.8076"/>
      <point x="299.206" y="81.833"/>
      <point x="352.53" y="81.833" type="curve" smooth="yes"/>
      <point x="370.655" y="81.833"/>
      <point x="387.372" y="76.4004"/>
      <point x="423.491" y="58.624" type="curve" smooth="yes"/>
      <point x="474.765" y="33.3896"/>
      <point x="500.596" y="26.3057"/>
      <point x="532.716" y="26.3057" type="curve" smooth="yes"/>
      <point x="568.129" y="26.3057"/>
      <point x="587.158" y="34.916"/>
      <point x="602.282" y="64.1387" type="curve" smooth="yes"/>
      <point x="606.909" y="73.0791"/>
      <point x="609.927" y="76.2744"/>
      <point x="616.694" y="76.2744" type="curve" smooth="yes"/>
      <point x="625.673" y="76.2744"/>
      <point x="631.395" y="70.6494"/>
    </contour>
    <contour>
      <point x="436.086" y="-38.1992" type="curve"/>
      <point x="436.086" y="-132.84"/>
      <point x="431.664" y="-199.761"/>
      <point x="424.567" y="-199.761" type="curve" smooth="yes"/>
      <point x="418.487" y="-199.761"/>
      <point x="414.941" y="-150.646"/>
      <point x="407.9" y="50.1514" type="curve" smooth="yes"/>
      <point x="404.471" y="147.959"/>
      <point x="402.284" y="197.95"/>
      <point x="399.431" y="242.718" type="curve" smooth="yes"/>
      <point x="394.372" y="322.076"/>
      <point x="390.12" y="339.468"/>
      <point x="376.418" y="339.468" type="curve" smooth="yes"/>
      <point x="359.817" y="339.468"/>
      <point x="338.076" y="313.94"/>
      <point x="292.039" y="238.802" type="curve" smooth="yes"/>
      <point x="272.101" y="206.262"/>
      <point x="251.791" y="171.247"/>
      <point x="214.95" y="106.949" type="curve" smooth="yes"/>
      <point x="123.423" y="-52.793"/>
      <point x="90.7695" y="-107.115"/>
      <point x="71.1562" y="-137.383" type="curve" smooth="yes"/>
      <point x="48.4072" y="-172.488"/>
      <point x="31.9795" y="-192.55"/>
      <point x="25.7383" y="-192.55" type="curve" smooth="yes"/>
      <point x="23.9072" y="-192.55"/>
      <point x="23" y="-190.823"/>
      <point x="23" y="-187.266" type="curve" smooth="yes"/>
      <point x="23" y="-139.816"/>
      <point x="184.443" y="172.458"/>
      <point x="271.441" y="293.825" type="curve" smooth="yes"/>
      <point x="322.427" y="364.952"/>
      <point x="359.39" y="386.62"/>
      <point x="428.143" y="386.62" type="curve"/>
      <point x="432.796" y="386.62"/>
      <point x="436.086" y="210.654"/>
    </contour>
  </outline>
</glyph>
<glyph name="I" format="2">
  <advance width="515"/>
  <unicode hex="0049"/>
  <outline>
    <contour>
      <point x="297.5" y="434.465" type="curve" smooth="yes"/>
      <point x="297.5" y="450.195"/>
      <point x="319.771" y="464.084"/>
      <point x="380.447" y="483.424" type="curve" smooth="yes"/>
      <point x="391.025" y="486.796"/>
      <point x="394.396" y="488.077"/>
      <point x="394.396" y="489.082" type="curve" smooth="yes"/>
      <point x="394.396" y="490.216"/>
      <point x="390.114" y="490.658"/>
      <point x="379.322" y="490.658" type="curve" smooth="yes"/>
      <point x="372.142" y="490.658"/>
      <point x="362.225" y="490.462"/>
      <point x="337.049" y="489.869" type="curve" smooth="yes"/>
      <point x="274.075" y="488.385"/>
      <point x="245.605" y="487.95"/>
      <point x="221.838" y="487.95" type="curve" smooth="yes"/>
      <point x="126.971" y="487.95"/>
      <point x="77.4756" y="494.877"/>
      <point x="77.4756" y="507.711" type="curve" smooth="yes"/>
      <point x="77.4756" y="519.139"/>
      <point x="116.728" y="526.099"/>
      <point x="179.093" y="526.099" type="curve" smooth="yes"/>
      <point x="203.42" y="526.099"/>
      <point x="236.685" y="525.04"/>
      <point x="318.854" y="521.522" type="curve" smooth="yes"/>
      <point x="356.269" y="519.921"/>
      <point x="369.372" y="519.435"/>
      <point x="376.473" y="519.435" type="curve" smooth="yes"/>
      <point x="384.7" y="519.435"/>
      <point x="388.367" y="520.087"/>
      <point x="388.367" y="521.545" type="curve" smooth="yes"/>
      <point x="388.367" y="523.604"/>
      <point x="381.063" y="528.302"/>
      <point x="354.262" y="543.268" type="curve" smooth="yes"/>
      <point x="302.987" y="571.898"/>
      <point x="286.567" y="583.336"/>
      <point x="286.567" y="590.227" type="curve" smooth="yes"/>
      <point x="286.567" y="593.66"/>
      <point x="290.646" y="595.593"/>
      <point x="296.216" y="595.593" type="curve" smooth="yes"/>
      <point x="330.987" y="595.593"/>
      <point x="458.034" y="520.294"/>
      <point x="458.034" y="500.382" type="curve" smooth="yes"/>
      <point x="458.034" y="493.786"/>
      <point x="444.096" y="486.872"/>
      <point x="310.032" y="426.908" type="curve" smooth="yes"/>
      <point x="309.104" y="426.492"/>
      <point x="309.104" y="426.492"/>
      <point x="309.104" y="426.492" type="curve" smooth="yes"/>
      <point x="300.656" y="426.492"/>
      <point x="297.5" y="428.544"/>
    </contour>
    <contour>
      <point x="41.0967" y="-197.604" type="curve" smooth="yes"/>
      <point x="31.4893" y="-197.604"/>
      <point x="23" y="-185.396"/>
      <point x="23" y="-173.573" type="curve" smooth="yes"/>
      <point x="23" y="-135.835"/>
      <point x="109.506" y="26.1064"/>
      <point x="210.171" y="184.912" type="curve" smooth="yes"/>
      <point x="262.053" y="266.758"/>
      <point x="274.972" y="280.373"/>
      <point x="288.394" y="280.373" type="curve" smooth="yes"/>
      <point x="299.563" y="280.373"/>
      <point x="308.832" y="270.943"/>
      <point x="323.381" y="244.442" type="curve" smooth="yes"/>
      <point x="373.682" y="152.823"/>
      <point x="492.414" y="-152.535"/>
      <point x="492.414" y="-190.94" type="curve" smooth="yes"/>
      <point x="492.414" y="-197.148"/>
      <point x="489.312" y="-199.716"/>
      <point x="480.706" y="-199.716" type="curve" smooth="yes"/>
      <point x="439.34" y="-199.716"/>
      <point x="407.814" y="-140.38"/>
      <point x="350.035" y="44.7334" type="curve" smooth="yes"/>
      <point x="318.579" y="145.513"/>
      <point x="306.232" y="172.719"/>
      <point x="292.849" y="172.719" type="curve" smooth="yes"/>
      <point x="276.815" y="172.719"/>
      <point x="250.912" y="133.674"/>
      <point x="179.639" y="6.14941" type="curve" smooth="yes"/>
      <point x="90.46" y="-153.412"/>
      <point x="59.376" y="-197.604"/>
    </contour>
  </outline>
</glyph>
<glyph name="J" format="2">
  <advance width="653"/>
  <unicode hex="004A"/>
  <outline>
    <contour>
      <point x="434.721" y="619.025" type="curve" smooth="yes"/>
      <point x="434.721" y="634.638"/>
      <point x="456.927" y="648.661"/>
      <point x="518.077" y="668.151" type="curve" smooth="yes"/>
      <point x="528.228" y="671.387"/>
      <point x="531.615" y="672.657"/>
      <point x="531.615" y="673.672" type="curve" smooth="yes"/>
      <point x="531.615" y="674.812"/>
      <point x="527.338" y="675.255"/>
      <point x="516.694" y="675.255" type="curve" smooth="yes"/>
      <point x="509.662" y="675.255"/>
      <point x="499.571" y="675.062"/>
      <point x="471.952" y="674.411" type="curve" smooth="yes"/>
      <point x="411.434" y="672.986"/>
      <point x="383.865" y="672.548"/>
      <point x="359.8" y="672.548" type="curve" smooth="yes"/>
      <point x="264.186" y="672.548"/>
      <point x="214.695" y="679.475"/>
      <point x="214.695" y="692.309" type="curve" smooth="yes"/>
      <point x="214.695" y="703.736"/>
      <point x="253.934" y="710.695"/>
      <point x="315.727" y="710.695" type="curve" smooth="yes"/>
      <point x="339.654" y="710.695"/>
      <point x="373.532" y="709.651"/>
      <point x="458.994" y="705.993" type="curve" smooth="yes"/>
      <point x="493.213" y="704.529"/>
      <point x="506.345" y="704.032"/>
      <point x="513.608" y="704.032" type="curve" smooth="yes"/>
      <point x="521.925" y="704.032"/>
      <point x="525.586" y="704.683"/>
      <point x="525.586" y="706.188" type="curve" smooth="yes"/>
      <point x="525.586" y="708.334"/>
      <point x="518.131" y="712.982"/>
      <point x="494.597" y="726.124" type="curve" smooth="yes"/>
      <point x="439.938" y="756.645"/>
      <point x="423.786" y="768.281"/>
      <point x="423.786" y="774.92" type="curve" smooth="yes"/>
      <point x="423.786" y="778.257"/>
      <point x="427.865" y="780.189"/>
      <point x="433.436" y="780.189" type="curve" smooth="yes"/>
      <point x="468.206" y="780.189"/>
      <point x="595.255" y="704.889"/>
      <point x="595.255" y="684.984" type="curve" smooth="yes"/>
      <point x="595.255" y="678.377"/>
      <point x="581.255" y="671.442"/>
      <point x="448.714" y="612.157" type="curve" smooth="yes"/>
      <point x="446.324" y="611.089"/>
      <point x="446.324" y="611.089"/>
      <point x="446.324" y="611.089" type="curve" smooth="yes"/>
      <point x="437.876" y="611.089"/>
      <point x="434.721" y="613.14"/>
    </contour>
    <contour>
      <point x="23" y="-178.775" type="curve" smooth="yes"/>
      <point x="23" y="-147.464"/>
      <point x="57.0908" y="-78.8965"/>
      <point x="180.76" y="134.543" type="curve" smooth="yes"/>
      <point x="253.275" y="259.696"/>
      <point x="322.502" y="375.828"/>
      <point x="361.955" y="438.066" type="curve" smooth="yes"/>
      <point x="398.438" y="495.619"/>
      <point x="411.655" y="510.551"/>
      <point x="425.658" y="510.551" type="curve" smooth="yes"/>
      <point x="436.783" y="510.551"/>
      <point x="446.05" y="501.125"/>
      <point x="460.595" y="474.635" type="curve" smooth="yes"/>
      <point x="510.892" y="383.029"/>
      <point x="629.633" y="77.6465"/>
      <point x="629.633" y="39.2383" type="curve" smooth="yes"/>
      <point x="629.633" y="33.0303"/>
      <point x="626.531" y="30.4629"/>
      <point x="617.837" y="30.4629" type="curve" smooth="yes"/>
      <point x="577.536" y="30.4629"/>
      <point x="547.536" y="85.6387"/>
      <point x="490.839" y="258.112" type="curve" smooth="yes"/>
      <point x="453.161" y="372.726"/>
      <point x="438.004" y="402.897"/>
      <point x="421.958" y="402.897" type="curve" smooth="yes"/>
      <point x="409.73" y="402.897"/>
      <point x="396.988" y="385.376"/>
      <point x="362.237" y="319.599" type="curve" smooth="yes"/>
      <point x="299.554" y="200.952"/>
      <point x="135.746" y="-87.6387"/>
      <point x="86.7207" y="-165.284" type="curve" smooth="yes"/>
      <point x="68.1123" y="-194.755"/>
      <point x="62.1592" y="-199.984"/>
      <point x="47.1924" y="-199.984" type="curve" smooth="yes"/>
      <point x="30.5918" y="-199.984"/>
      <point x="23" y="-193.551"/>
    </contour>
  </outline>
</glyph>
<glyph name="K" format="2">
  <advance width="739"/>
  <unicode hex="004B"/>
  <outline>
    <contour>
      <point x="380.179" y="571.32" type="curve" smooth="yes"/>
      <point x="380.179" y="586.402"/>
      <point x="402.095" y="601.024"/>
      <point x="464.954" y="621.062" type="curve" smooth="yes"/>
      <point x="473.637" y="623.829"/>
      <point x="477.075" y="625.071"/>
      <point x="477.075" y="626.11" type="curve" smooth="yes"/>
      <point x="477.075" y="627.27"/>
      <point x="472.801" y="627.711"/>
      <point x="462.188" y="627.711" type="curve" smooth="yes"/>
      <point x="455.196" y="627.711"/>
      <point x="445.091" y="627.52"/>
      <point x="416.823" y="626.854" type="curve" smooth="yes"/>
      <point x="356.977" y="625.444"/>
      <point x="329.511" y="625.004"/>
      <point x="305.372" y="625.004" type="curve" smooth="yes"/>
      <point x="209.644" y="625.004"/>
      <point x="160.153" y="631.931"/>
      <point x="160.153" y="644.766" type="curve" smooth="yes"/>
      <point x="160.153" y="656.193"/>
      <point x="199.388" y="663.152"/>
      <point x="262.024" y="663.152" type="curve" smooth="yes"/>
      <point x="286.512" y="663.152"/>
      <point x="319.46" y="662.089"/>
      <point x="399.743" y="658.652" type="curve" smooth="yes"/>
      <point x="438.89" y="656.977"/>
      <point x="452.2" y="656.489"/>
      <point x="459.242" y="656.489" type="curve" smooth="yes"/>
      <point x="467.383" y="656.489"/>
      <point x="471.044" y="657.141"/>
      <point x="471.044" y="658.608" type="curve" smooth="yes"/>
      <point x="471.044" y="660.686"/>
      <point x="463.711" y="665.372"/>
      <point x="437.515" y="679.999" type="curve" smooth="yes"/>
      <point x="385.625" y="708.974"/>
      <point x="369.245" y="720.443"/>
      <point x="369.245" y="727.295" type="curve" smooth="yes"/>
      <point x="369.245" y="730.714"/>
      <point x="373.323" y="732.646"/>
      <point x="378.894" y="732.646" type="curve" smooth="yes"/>
      <point x="413.665" y="732.646"/>
      <point x="540.712" y="657.348"/>
      <point x="540.712" y="637.436" type="curve" smooth="yes"/>
      <point x="540.712" y="630.846"/>
      <point x="526.794" y="623.935"/>
      <point x="394.026" y="564.551" type="curve" smooth="yes"/>
      <point x="391.782" y="563.547"/>
      <point x="391.782" y="563.547"/>
      <point x="391.782" y="563.547" type="curve" smooth="yes"/>
      <point x="383.334" y="563.547"/>
      <point x="380.179" y="565.598"/>
    </contour>
    <contour>
      <point x="23" y="155.029" type="curve" smooth="yes"/>
      <point x="23" y="352.686"/>
      <point x="178.154" y="512.916"/>
      <point x="369.547" y="512.916" type="curve" smooth="yes"/>
      <point x="560.939" y="512.916"/>
      <point x="716.094" y="352.686"/>
      <point x="716.094" y="155.029" type="curve" smooth="yes"/>
      <point x="716.094" y="-42.627"/>
      <point x="560.939" y="-202.857"/>
      <point x="369.547" y="-202.857" type="curve" smooth="yes"/>
      <point x="178.154" y="-202.857"/>
      <point x="23" y="-42.627"/>
    </contour>
  </outline>
</glyph>
<glyph name="L" format="2">
  <advance width="1031"/>
  <unicode hex="004C"/>
  <outline>
    <contour>
      <point x="493.921" y="556.054" type="curve" smooth="yes"/>
      <point x="493.921" y="571.384"/>
      <point x="515.969" y="585.722"/>
      <point x="578.106" y="605.527" type="curve" smooth="yes"/>
      <point x="587.39" y="608.486"/>
      <point x="590.818" y="609.743"/>
      <point x="590.818" y="610.773" type="curve" smooth="yes"/>
      <point x="590.818" y="611.925"/>
      <point x="586.539" y="612.367"/>
      <point x="575.742" y="612.367" type="curve" smooth="yes"/>
      <point x="568.559" y="612.367"/>
      <point x="558.662" y="612.172"/>
      <point x="533.491" y="611.578" type="curve" smooth="yes"/>
      <point x="470.516" y="610.094"/>
      <point x="441.994" y="609.659"/>
      <point x="418.229" y="609.659" type="curve" smooth="yes"/>
      <point x="323.391" y="609.659"/>
      <point x="273.896" y="616.587"/>
      <point x="273.896" y="629.421" type="curve" smooth="yes"/>
      <point x="273.896" y="640.849"/>
      <point x="313.136" y="647.809"/>
      <point x="376.308" y="647.809" type="curve" smooth="yes"/>
      <point x="401.166" y="647.809"/>
      <point x="433.533" y="646.73"/>
      <point x="508.842" y="643.507" type="curve" smooth="yes"/>
      <point x="553.021" y="641.616"/>
      <point x="566.51" y="641.145"/>
      <point x="573.229" y="641.145" type="curve" smooth="yes"/>
      <point x="581.125" y="641.145"/>
      <point x="584.786" y="641.796"/>
      <point x="584.786" y="643.278" type="curve" smooth="yes"/>
      <point x="584.786" y="645.385"/>
      <point x="577.4" y="650.057"/>
      <point x="552.212" y="664.121" type="curve" smooth="yes"/>
      <point x="499.291" y="693.671"/>
      <point x="482.987" y="705.196"/>
      <point x="482.987" y="711.978" type="curve" smooth="yes"/>
      <point x="482.987" y="715.369"/>
      <point x="487.065" y="717.302"/>
      <point x="492.636" y="717.302" type="curve" smooth="yes"/>
      <point x="527.408" y="717.302"/>
      <point x="654.455" y="642.004"/>
      <point x="654.455" y="622.096" type="curve" smooth="yes"/>
      <point x="654.455" y="615.491"/>
      <point x="640.477" y="608.562"/>
      <point x="508.35" y="549.467" type="curve" smooth="yes"/>
      <point x="505.523" y="548.202"/>
      <point x="505.523" y="548.202"/>
      <point x="505.523" y="548.202" type="curve" smooth="yes"/>
      <point x="497.076" y="548.202"/>
      <point x="493.921" y="550.254"/>
    </contour>
    <contour>
      <point x="436.206" y="-199.174" type="curve" smooth="yes"/>
      <point x="430.333" y="-199.174"/>
      <point x="421.565" y="-199.136"/>
      <point x="395.938" y="-199.006" type="curve" smooth="yes"/>
      <point x="315.579" y="-198.597"/>
      <point x="274.205" y="-198.463"/>
      <point x="235.287" y="-198.463" type="curve" smooth="yes"/>
      <point x="226.92" y="-198.463"/>
      <point x="219.09" y="-198.469"/>
      <point x="194.475" y="-198.496" type="curve" smooth="yes"/>
      <point x="161.826" y="-198.531"/>
      <point x="146.057" y="-198.542"/>
      <point x="133.466" y="-198.542" type="curve" smooth="yes"/>
      <point x="41.4277" y="-198.542"/>
      <point x="33.8545" y="-197.947"/>
      <point x="28.3281" y="-191.001" type="curve" smooth="yes"/>
      <point x="21.7129" y="-182.686"/>
      <point x="21.3369" y="-169.427"/>
      <point x="26.7588" y="-162.795" type="curve" smooth="yes"/>
      <point x="31.5098" y="-156.984"/>
      <point x="40.4805" y="-156.543"/>
      <point x="139.856" y="-156.543" type="curve" smooth="yes"/>
      <point x="182.55" y="-156.543"/>
      <point x="227.057" y="-156.624"/>
      <point x="320.879" y="-156.967" type="curve" smooth="yes"/>
      <point x="385.096" y="-157.201"/>
      <point x="418.185" y="-157.286"/>
      <point x="467.378" y="-157.286" type="curve"/>
      <point x="554.437" y="-157.286"/>
      <point x="615.996" y="-45.3789"/>
      <point x="615.996" y="121.786" type="curve" smooth="yes"/>
      <point x="615.996" y="284.447"/>
      <point x="557.708" y="374.986"/>
      <point x="443.828" y="374.986" type="curve" smooth="yes"/>
      <point x="335.522" y="374.986"/>
      <point x="246.294" y="293.094"/>
      <point x="246.294" y="158.155" type="curve" smooth="yes"/>
      <point x="246.294" y="30.0938"/>
      <point x="326.659" y="-98.3379"/>
      <point x="454.711" y="-132.401" type="curve" smooth="yes"/>
      <point x="500.212" y="-144.505"/>
      <point x="572.864" y="-150.315"/>
      <point x="747.105" y="-155.372" type="curve" smooth="yes"/>
      <point x="955.033" y="-161.406"/>
      <point x="1007.9" y="-168.214"/>
      <point x="1007.9" y="-185.786" type="curve" smooth="yes"/>
      <point x="1007.9" y="-193.217"/>
      <point x="998.443" y="-197.612"/>
      <point x="985.073" y="-197.612" type="curve"/>
      <point x="426.185" y="-197.612"/>
      <point x="339.227" y="-180.654"/>
      <point x="264.574" y="-54.7812" type="curve" smooth="yes"/>
      <point x="220.653" y="19.2754"/>
      <point x="194.119" y="108.899"/>
      <point x="194.119" y="181.108" type="curve" smooth="yes"/>
      <point x="194.119" y="332.012"/>
      <point x="310.004" y="439.191"/>
      <point x="448.183" y="439.191" type="curve" smooth="yes"/>
      <point x="590.283" y="439.191"/>
      <point x="682.443" y="325.842"/>
      <point x="682.443" y="144.037" type="curve" smooth="yes"/>
      <point x="682.443" y="-16.3125"/>
      <point x="610.752" y="-163.036"/>
      <point x="502.832" y="-193.236" type="curve" smooth="yes"/>
      <point x="486.437" y="-197.824"/>
      <point x="471.166" y="-199.174"/>
    </contour>
  </outline>
</glyph>
<glyph name="M" format="2">
  <advance width="843"/>
  <unicode hex="004D"/>
  <outline>
    <contour>
      <point x="537.633" y="620.067" type="curve" smooth="yes"/>
      <point x="537.633" y="635.301"/>
      <point x="559.63" y="649.749"/>
      <point x="622.068" y="669.653" type="curve" smooth="yes"/>
      <point x="631.104" y="672.533"/>
      <point x="634.529" y="673.781"/>
      <point x="634.529" y="674.815" type="curve" smooth="yes"/>
      <point x="634.529" y="675.97"/>
      <point x="630.256" y="676.411"/>
      <point x="619.395" y="676.411" type="curve" smooth="yes"/>
      <point x="612.137" y="676.411"/>
      <point x="602.309" y="676.214"/>
      <point x="578.507" y="675.653" type="curve" smooth="yes"/>
      <point x="514.052" y="674.134"/>
      <point x="484.956" y="673.703"/>
      <point x="461.431" y="673.703" type="curve" smooth="yes"/>
      <point x="367.103" y="673.703"/>
      <point x="317.607" y="680.631"/>
      <point x="317.607" y="693.465" type="curve" smooth="yes"/>
      <point x="317.607" y="704.894"/>
      <point x="356.852" y="711.854"/>
      <point x="418.926" y="711.854" type="curve" smooth="yes"/>
      <point x="443.078" y="711.854"/>
      <point x="476.705" y="710.8"/>
      <point x="560.493" y="707.212" type="curve" smooth="yes"/>
      <point x="596.295" y="705.679"/>
      <point x="609.371" y="705.188"/>
      <point x="616.555" y="705.188" type="curve" smooth="yes"/>
      <point x="624.838" y="705.188"/>
      <point x="628.502" y="705.84"/>
      <point x="628.502" y="707.339" type="curve" smooth="yes"/>
      <point x="628.502" y="709.475"/>
      <point x="621.063" y="714.131"/>
      <point x="597.042" y="727.544" type="curve" smooth="yes"/>
      <point x="542.9" y="757.776"/>
      <point x="526.701" y="769.376"/>
      <point x="526.701" y="776.06" type="curve" smooth="yes"/>
      <point x="526.701" y="779.414"/>
      <point x="530.78" y="781.347"/>
      <point x="536.351" y="781.347" type="curve" smooth="yes"/>
      <point x="571.122" y="781.347"/>
      <point x="698.166" y="706.047"/>
      <point x="698.166" y="686.124" type="curve" smooth="yes"/>
      <point x="698.166" y="679.561"/>
      <point x="684.377" y="672.691"/>
      <point x="550.495" y="612.808" type="curve" smooth="yes"/>
      <point x="549.24" y="612.246"/>
      <point x="549.24" y="612.246"/>
      <point x="549.24" y="612.246" type="curve" smooth="yes"/>
      <point x="540.789" y="612.246"/>
      <point x="537.633" y="614.297"/>
    </contour>
    <contour>
      <point x="509.662" y="-2.02539" type="curve" smooth="yes"/>
      <point x="509.662" y="-38.3174"/>
      <point x="455.464" y="-74.9736"/>
      <point x="392.172" y="-74.9736" type="curve" smooth="yes"/>
      <point x="364.824" y="-74.9736"/>
      <point x="335.4" y="-68.1299"/>
      <point x="267.888" y="-43.4473" type="curve" smooth="yes"/>
      <point x="210.846" y="-22.5928"/>
      <point x="185.831" y="-16.2422"/>
      <point x="156.31" y="-16.2422" type="curve" smooth="yes"/>
      <point x="109.171" y="-16.2422"/>
      <point x="86.8896" y="-32.4336"/>
      <point x="63.585" y="-75.2686" type="curve" smooth="yes"/>
      <point x="53.3994" y="-93.9873"/>
      <point x="48.3604" y="-98.5225"/>
      <point x="43.5078" y="-99.7383" type="curve" smooth="yes"/>
      <point x="42.5498" y="-99.9785"/>
      <point x="41.5693" y="-100.097"/>
      <point x="40.5801" y="-100.097" type="curve" smooth="yes"/>
      <point x="32.0664" y="-100.097"/>
      <point x="23" y="-91.3203"/>
      <point x="23" y="-76.1689" type="curve" smooth="yes"/>
      <point x="23" y="-33.6416"/>
      <point x="94.4248" y="25.1406"/>
      <point x="162.31" y="25.1406" type="curve" smooth="yes"/>
      <point x="185.664" y="25.1406"/>
      <point x="204.969" y="18.1826"/>
      <point x="240.391" y="0.749023" type="curve" smooth="yes"/>
      <point x="315.028" y="-35.9854"/>
      <point x="354.798" y="-44.2686"/>
      <point x="391.855" y="-44.2686" type="curve" smooth="yes"/>
      <point x="434.729" y="-44.2686"/>
      <point x="454.531" y="-33.1807"/>
      <point x="471.356" y="-0.673828" type="curve" smooth="yes"/>
      <point x="479.162" y="14.4072"/>
      <point x="484.146" y="18.1914"/>
      <point x="491.917" y="18.1914" type="curve" smooth="yes"/>
      <point x="502.508" y="18.1914"/>
      <point x="509.662" y="11.1602"/>
    </contour>
    <contour>
      <point x="209.465" y="160.474" type="curve" smooth="yes"/>
      <point x="209.465" y="359.116"/>
      <point x="223.953" y="499.287"/>
      <point x="246.809" y="499.287" type="curve" smooth="yes"/>
      <point x="257.088" y="499.287"/>
      <point x="265.704" y="470.933"/>
      <point x="270.685" y="419.124" type="curve" smooth="yes"/>
      <point x="274.561" y="378.799"/>
      <point x="277.011" y="316.175"/>
      <point x="278.673" y="136.301" type="curve" smooth="yes"/>
      <point x="279.431" y="54.249"/>
      <point x="280.206" y="12.4004"/>
      <point x="282.461" y="-27.6504" type="curve" smooth="yes"/>
      <point x="287.772" y="-122.017"/>
      <point x="297.269" y="-134.918"/>
      <point x="394.865" y="-139.148" type="curve" smooth="yes"/>
      <point x="440.921" y="-141.146"/>
      <point x="662.232" y="-147.957"/>
      <point x="698.735" y="-147.957" type="curve" smooth="yes"/>
      <point x="711.596" y="-147.957"/>
      <point x="719.355" y="-147.111"/>
      <point x="719.355" y="-145.56" type="curve" smooth="yes"/>
      <point x="719.355" y="-135.933"/>
      <point x="420.812" y="47.7227"/>
      <point x="266.491" y="133.236" type="curve" smooth="yes"/>
      <point x="260.674" y="136.46"/>
      <point x="257.033" y="138.452"/>
      <point x="252.811" y="140.749" type="curve" smooth="yes"/>
      <point x="229.661" y="153.343"/>
      <point x="228.129" y="154.535"/>
      <point x="228.129" y="157.679" type="curve" smooth="yes"/>
      <point x="228.129" y="159.578"/>
      <point x="227.569" y="161.276"/>
      <point x="225.509" y="165.744" type="curve" smooth="yes"/>
      <point x="219.401" y="178.983"/>
      <point x="217.301" y="187.828"/>
      <point x="217.301" y="200.343" type="curve"/>
      <point x="217.301" y="208.848"/>
      <point x="221.152" y="214.862"/>
      <point x="228.967" y="214.862" type="curve" smooth="yes"/>
      <point x="288.949" y="214.862"/>
      <point x="820.406" y="-139.472"/>
      <point x="820.406" y="-181.859" type="curve" smooth="yes"/>
      <point x="820.406" y="-195.611"/>
      <point x="764.462" y="-199.745"/>
      <point x="556.458" y="-199.745" type="curve" smooth="yes"/>
      <point x="258.169" y="-199.745"/>
      <point x="231.478" y="-191.244"/>
      <point x="219.052" y="-78.4863" type="curve" smooth="yes"/>
      <point x="213.378" y="-26.999"/>
      <point x="209.465" y="57.2393"/>
    </contour>
  </outline>
</glyph>
<glyph name="N" format="2">
  <advance width="657"/>
  <unicode hex="004E"/>
  <outline>
    <contour>
      <point x="366.365" y="580.364" type="curve" smooth="yes"/>
      <point x="366.365" y="595.931"/>
      <point x="388.544" y="610.002"/>
      <point x="449.862" y="629.547" type="curve" smooth="yes"/>
      <point x="459.864" y="632.735"/>
      <point x="463.262" y="634.004"/>
      <point x="463.262" y="635.022" type="curve" smooth="yes"/>
      <point x="463.262" y="636.163"/>
      <point x="458.992" y="636.604"/>
      <point x="448.271" y="636.604" type="curve" smooth="yes"/>
      <point x="441.147" y="636.604"/>
      <point x="431.142" y="636.41"/>
      <point x="404.902" y="635.792" type="curve" smooth="yes"/>
      <point x="342.938" y="634.333"/>
      <point x="315.02" y="633.897"/>
      <point x="291.123" y="633.897" type="curve" smooth="yes"/>
      <point x="195.834" y="633.897"/>
      <point x="146.341" y="640.825"/>
      <point x="146.341" y="653.659" type="curve" smooth="yes"/>
      <point x="146.341" y="665.087"/>
      <point x="185.579" y="672.047"/>
      <point x="248.072" y="672.047" type="curve" smooth="yes"/>
      <point x="272.464" y="672.047"/>
      <point x="305.568" y="670.986"/>
      <point x="387.102" y="667.496" type="curve" smooth="yes"/>
      <point x="425.124" y="665.869"/>
      <point x="438.301" y="665.383"/>
      <point x="445.378" y="665.383" type="curve" smooth="yes"/>
      <point x="453.569" y="665.383"/>
      <point x="457.231" y="666.034"/>
      <point x="457.231" y="667.494" type="curve" smooth="yes"/>
      <point x="457.231" y="669.557"/>
      <point x="449.931" y="674.248"/>
      <point x="423.218" y="689.163" type="curve" smooth="yes"/>
      <point x="371.84" y="717.852"/>
      <point x="355.43" y="729.293"/>
      <point x="355.43" y="736.176" type="curve" smooth="yes"/>
      <point x="355.43" y="739.607"/>
      <point x="359.509" y="741.54"/>
      <point x="365.079" y="741.54" type="curve" smooth="yes"/>
      <point x="399.853" y="741.54"/>
      <point x="526.899" y="666.241"/>
      <point x="526.899" y="646.313" type="curve" smooth="yes"/>
      <point x="526.899" y="639.76"/>
      <point x="513.157" y="632.907"/>
      <point x="380.337" y="573.497" type="curve" smooth="yes"/>
      <point x="377.973" y="572.439"/>
      <point x="377.973" y="572.439"/>
      <point x="377.973" y="572.439" type="curve" smooth="yes"/>
      <point x="369.522" y="572.439"/>
      <point x="366.365" y="574.491"/>
    </contour>
    <contour>
      <point x="23" y="-181.861" type="curve" smooth="yes"/>
      <point x="23" y="-139.605"/>
      <point x="549.179" y="214.669"/>
      <point x="615.44" y="214.669" type="curve"/>
      <point x="621.688" y="214.669"/>
      <point x="626.106" y="206.732"/>
      <point x="626.106" y="194.658" type="curve" smooth="yes"/>
      <point x="626.106" y="186.231"/>
      <point x="623.954" y="177.665"/>
      <point x="617.368" y="162.898" type="curve" smooth="yes"/>
      <point x="615.666" y="159.08"/>
      <point x="615.109" y="157.583"/>
      <point x="615.109" y="156.276" type="curve" smooth="yes"/>
      <point x="615.109" y="155.769"/>
      <point x="615.193" y="155.473"/>
      <point x="615.859" y="154.153" type="curve" smooth="yes"/>
      <point x="615.877" y="154.118"/>
      <point x="615.877" y="154.118"/>
      <point x="614.88" y="153.59" type="curve" smooth="yes"/>
      <point x="598.765" y="145.057"/>
      <point x="591.375" y="141.055"/>
      <point x="580.184" y="134.854" type="curve" smooth="yes"/>
      <point x="423.812" y="48.2051"/>
      <point x="124.05" y="-136.048"/>
      <point x="124.05" y="-145.665" type="curve" smooth="yes"/>
      <point x="124.05" y="-147.006"/>
      <point x="129.872" y="-148.149"/>
      <point x="141.775" y="-148.149" type="curve" smooth="yes"/>
      <point x="167.723" y="-148.149"/>
      <point x="370.667" y="-142.714"/>
      <point x="435.191" y="-139.918" type="curve" smooth="yes"/>
      <point x="542.539" y="-135.268"/>
      <point x="555.454" y="-125.415"/>
      <point x="560.949" y="-27.7666" type="curve" smooth="yes"/>
      <point x="562.862" y="6.22852"/>
      <point x="563.957" y="52.29"/>
      <point x="565.018" y="166.947" type="curve" smooth="yes"/>
      <point x="566.371" y="313.269"/>
      <point x="567.982" y="369.61"/>
      <point x="572.31" y="414.636" type="curve" smooth="yes"/>
      <point x="577.644" y="470.119"/>
      <point x="586.205" y="499.093"/>
      <point x="596.34" y="499.093" type="curve" smooth="yes"/>
      <point x="618.582" y="499.093"/>
      <point x="633.943" y="359.539"/>
      <point x="633.943" y="158.08" type="curve" smooth="yes"/>
      <point x="633.943" y="59.4766"/>
      <point x="630.264" y="-25.0635"/>
      <point x="624.415" y="-78.127" type="curve" smooth="yes"/>
      <point x="611.928" y="-191.433"/>
      <point x="585.289" y="-199.939"/>
      <point x="283.677" y="-199.939" type="curve" smooth="yes"/>
      <point x="83.5283" y="-199.939"/>
      <point x="23" y="-196.193"/>
    </contour>
  </outline>
</glyph>
<glyph name="O" format="2">
  <advance width="665"/>
  <unicode hex="004F"/>
  <outline>
    <contour>
      <point x="361.641" y="641.659" type="curve" smooth="yes"/>
      <point x="361.641" y="655.448"/>
      <point x="382.172" y="669.954"/>
      <point x="443.079" y="689.371" type="curve" smooth="yes"/>
      <point x="450.399" y="691.705"/>
      <point x="453.691" y="692.87"/>
      <point x="453.691" y="693.871" type="curve" smooth="yes"/>
      <point x="453.691" y="694.982"/>
      <point x="449.636" y="695.401"/>
      <point x="439.483" y="695.401" type="curve" smooth="yes"/>
      <point x="432.793" y="695.401"/>
      <point x="423.333" y="695.22"/>
      <point x="397.292" y="694.605" type="curve" smooth="yes"/>
      <point x="339.667" y="693.247"/>
      <point x="313.203" y="692.828"/>
      <point x="290.322" y="692.828" type="curve" smooth="yes"/>
      <point x="199.638" y="692.828"/>
      <point x="152.615" y="699.41"/>
      <point x="152.615" y="711.603" type="curve" smooth="yes"/>
      <point x="152.615" y="722.459"/>
      <point x="189.897" y="729.07"/>
      <point x="248.938" y="729.07" type="curve" smooth="yes"/>
      <point x="271.942" y="729.07"/>
      <point x="303.832" y="728.066"/>
      <point x="382.855" y="724.683" type="curve" smooth="yes"/>
      <point x="417.37" y="723.205"/>
      <point x="429.822" y="722.739"/>
      <point x="436.63" y="722.739" type="curve" smooth="yes"/>
      <point x="444.481" y="722.739"/>
      <point x="447.963" y="723.358"/>
      <point x="447.963" y="724.733" type="curve" smooth="yes"/>
      <point x="447.963" y="726.67"/>
      <point x="441.058" y="731.145"/>
      <point x="415.01" y="745.689" type="curve" smooth="yes"/>
      <point x="366.884" y="772.563"/>
      <point x="351.254" y="783.399"/>
      <point x="351.254" y="789.979" type="curve" smooth="yes"/>
      <point x="351.254" y="793.254"/>
      <point x="355.129" y="795.09"/>
      <point x="360.422" y="795.09" type="curve" smooth="yes"/>
      <point x="393.455" y="795.09"/>
      <point x="514.145" y="723.557"/>
      <point x="514.145" y="704.635" type="curve" smooth="yes"/>
      <point x="514.145" y="698.382"/>
      <point x="500.966" y="691.832"/>
      <point x="375.54" y="635.731" type="curve" smooth="yes"/>
      <point x="372.66" y="634.443"/>
      <point x="372.66" y="634.443"/>
      <point x="372.66" y="634.443" type="curve" smooth="yes"/>
      <point x="364.637" y="634.443"/>
      <point x="361.641" y="636.392"/>
    </contour>
    <contour>
      <point x="207.555" y="605.551" type="curve" smooth="yes"/>
      <point x="400.897" y="605.551"/>
      <point x="589.162" y="596.952"/>
      <point x="589.162" y="584.393" type="curve" smooth="yes"/>
      <point x="589.162" y="578.936"/>
      <point x="553.631" y="542.688"/>
      <point x="486.268" y="476.433" type="curve" smooth="yes"/>
      <point x="329.776" y="322.515"/>
      <point x="302.049" y="288.219"/>
      <point x="302.049" y="277.566" type="curve" smooth="yes"/>
      <point x="302.049" y="270.65"/>
      <point x="313.737" y="265.296"/>
      <point x="362.144" y="251.242" type="curve" smooth="yes"/>
      <point x="370.496" y="248.816"/>
      <point x="379.933" y="246.136"/>
      <point x="393.823" y="242.209" type="curve" smooth="yes"/>
      <point x="512.792" y="208.575"/>
      <point x="561.657" y="193.722"/>
      <point x="592.429" y="182.675" type="curve" smooth="yes"/>
      <point x="628.774" y="169.626"/>
      <point x="641.66" y="161.247"/>
      <point x="641.66" y="152.691" type="curve" smooth="yes"/>
      <point x="641.66" y="122.892"/>
      <point x="485.332" y="-38.5156"/>
      <point x="362.573" y="-142.636" type="curve" smooth="yes"/>
      <point x="308.846" y="-188.206"/>
      <point x="288.127" y="-200.259"/>
      <point x="277.515" y="-200.259" type="curve" smooth="yes"/>
      <point x="267.833" y="-200.259"/>
      <point x="259.238" y="-190.228"/>
      <point x="259.238" y="-179.111" type="curve" smooth="yes"/>
      <point x="259.238" y="-176.246"/>
      <point x="259.81" y="-173.658"/>
      <point x="261.081" y="-171.07" type="curve" smooth="yes"/>
      <point x="266.062" y="-160.932"/>
      <point x="287.584" y="-139.002"/>
      <point x="354.779" y="-74.9688" type="curve" smooth="yes"/>
      <point x="499.098" y="62.5605"/>
      <point x="542.844" y="110.797"/>
      <point x="542.844" y="129.959" type="curve" smooth="yes"/>
      <point x="542.844" y="140.409"/>
      <point x="529.835" y="148.149"/>
      <point x="491.663" y="160.509" type="curve" smooth="yes"/>
      <point x="473.514" y="166.385"/>
      <point x="450.096" y="173.17"/>
      <point x="389.748" y="189.873" type="curve" smooth="yes"/>
      <point x="314.938" y="210.578"/>
      <point x="285.397" y="219.221"/>
      <point x="261.666" y="227.329" type="curve" smooth="yes"/>
      <point x="215.096" y="243.24"/>
      <point x="198.184" y="254.603"/>
      <point x="198.184" y="269.608" type="curve" smooth="yes"/>
      <point x="198.184" y="294.016"/>
      <point x="242.932" y="341.668"/>
      <point x="396.005" y="469.358" type="curve" smooth="yes"/>
      <point x="452.479" y="516.468"/>
      <point x="471.477" y="533.72"/>
      <point x="471.477" y="540.837" type="curve" smooth="yes"/>
      <point x="471.477" y="545.686"/>
      <point x="462.658" y="547.722"/>
      <point x="386.901" y="550.154" type="curve" smooth="yes"/>
      <point x="190.339" y="556.467"/>
      <point x="23" y="573.648"/>
      <point x="23" y="591.77" type="curve" smooth="yes"/>
      <point x="23" y="600.92"/>
      <point x="65.668" y="605.551"/>
    </contour>
  </outline>
</glyph>
<glyph name="P" format="2">
  <advance width="657"/>
  <unicode hex="0050"/>
  <outline>
    <contour>
      <point x="381.54" y="574.387" type="curve" smooth="yes"/>
      <point x="381.54" y="589.963"/>
      <point x="403.725" y="604.024"/>
      <point x="465.04" y="623.57" type="curve" smooth="yes"/>
      <point x="475.056" y="626.763"/>
      <point x="478.435" y="628.025"/>
      <point x="478.435" y="629.042" type="curve" smooth="yes"/>
      <point x="478.435" y="630.185"/>
      <point x="474.157" y="630.627"/>
      <point x="463.619" y="630.627" type="curve" smooth="yes"/>
      <point x="456.665" y="630.627"/>
      <point x="446.396" y="630.435"/>
      <point x="417.448" y="629.752" type="curve" smooth="yes"/>
      <point x="358.401" y="628.361"/>
      <point x="331.121" y="627.919"/>
      <point x="306.9" y="627.919" type="curve" smooth="yes"/>
      <point x="211.009" y="627.919"/>
      <point x="161.515" y="634.847"/>
      <point x="161.515" y="647.681" type="curve" smooth="yes"/>
      <point x="161.515" y="659.108"/>
      <point x="200.754" y="666.067"/>
      <point x="263.009" y="666.067" type="curve" smooth="yes"/>
      <point x="287.271" y="666.067"/>
      <point x="320.693" y="665.011"/>
      <point x="403.39" y="661.471" type="curve" smooth="yes"/>
      <point x="440.148" y="659.896"/>
      <point x="453.351" y="659.405"/>
      <point x="460.511" y="659.405" type="curve" smooth="yes"/>
      <point x="468.748" y="659.405"/>
      <point x="472.405" y="660.056"/>
      <point x="472.405" y="661.466" type="curve" smooth="yes"/>
      <point x="472.405" y="663.437"/>
      <point x="465.255" y="668.186"/>
      <point x="435.939" y="684.555" type="curve" smooth="yes"/>
      <point x="387.163" y="711.791"/>
      <point x="370.605" y="723.128"/>
      <point x="370.605" y="730.146" type="curve" smooth="yes"/>
      <point x="370.605" y="733.63"/>
      <point x="374.683" y="735.562"/>
      <point x="380.253" y="735.562" type="curve" smooth="yes"/>
      <point x="415.024" y="735.562"/>
      <point x="542.075" y="660.262"/>
      <point x="542.075" y="640.342" type="curve" smooth="yes"/>
      <point x="542.075" y="633.768"/>
      <point x="528.235" y="626.886"/>
      <point x="395.016" y="567.299" type="curve" smooth="yes"/>
      <point x="393.142" y="566.461"/>
      <point x="393.142" y="566.461"/>
      <point x="393.142" y="566.461" type="curve" smooth="yes"/>
      <point x="384.695" y="566.461"/>
      <point x="381.54" y="568.513"/>
    </contour>
    <contour>
      <point x="633.914" y="138.842" type="curve" smooth="yes"/>
      <point x="633.914" y="-59.7959"/>
      <point x="619.425" y="-199.981"/>
      <point x="596.57" y="-199.981" type="curve" smooth="yes"/>
      <point x="586.291" y="-199.981"/>
      <point x="577.673" y="-171.622"/>
      <point x="572.322" y="-115.944" type="curve" smooth="yes"/>
      <point x="568.036" y="-71.3535"/>
      <point x="566.346" y="-14.4443"/>
      <point x="564.942" y="137.152" type="curve" smooth="yes"/>
      <point x="563.931" y="246.453"/>
      <point x="562.909" y="291.558"/>
      <point x="560.921" y="326.893" type="curve" smooth="yes"/>
      <point x="555.388" y="425.193"/>
      <point x="543.125" y="434.388"/>
      <point x="418.07" y="439.047" type="curve" smooth="yes"/>
      <point x="408.35" y="439.409"/>
      <point x="396.622" y="439.793"/>
      <point x="374.13" y="440.489" type="curve" smooth="yes"/>
      <point x="228.345" y="445"/>
      <point x="162.225" y="447.911"/>
      <point x="116.508" y="451.648" type="curve" smooth="yes"/>
      <point x="47.4639" y="457.293"/>
      <point x="23" y="464.981"/>
      <point x="23" y="477.106" type="curve" smooth="yes"/>
      <point x="23" y="495.081"/>
      <point x="76.7578" y="499.051"/>
      <point x="283.105" y="499.051" type="curve" smooth="yes"/>
      <point x="585.323" y="499.051"/>
      <point x="611.901" y="490.536"/>
      <point x="624.318" y="377.865" type="curve" smooth="yes"/>
      <point x="630.001" y="326.306"/>
      <point x="633.914" y="242.073"/>
    </contour>
  </outline>
</glyph>
<glyph name="Q" format="2">
  <advance width="634"/>
  <unicode hex="0051"/>
  <outline>
    <contour>
      <point x="344.709" y="606.368" type="curve" smooth="yes"/>
      <point x="344.709" y="619.954"/>
      <point x="364.479" y="633.185"/>
      <point x="421.199" y="651.262" type="curve" smooth="yes"/>
      <point x="429.042" y="653.762"/>
      <point x="432.156" y="654.886"/>
      <point x="432.156" y="655.825" type="curve" smooth="yes"/>
      <point x="432.156" y="656.872"/>
      <point x="428.298" y="657.271"/>
      <point x="418.557" y="657.271" type="curve" smooth="yes"/>
      <point x="412.062" y="657.271"/>
      <point x="403.098" y="657.093"/>
      <point x="380.518" y="656.561" type="curve" smooth="yes"/>
      <point x="323.531" y="655.218"/>
      <point x="297.832" y="654.826"/>
      <point x="276.405" y="654.826" type="curve" smooth="yes"/>
      <point x="190.808" y="654.826"/>
      <point x="146.135" y="661.079"/>
      <point x="146.135" y="672.661" type="curve" smooth="yes"/>
      <point x="146.135" y="682.975"/>
      <point x="181.549" y="689.255"/>
      <point x="237.549" y="689.255" type="curve" smooth="yes"/>
      <point x="259.29" y="689.255"/>
      <point x="289.591" y="688.309"/>
      <point x="365.644" y="685.053" type="curve" smooth="yes"/>
      <point x="397.564" y="683.686"/>
      <point x="409.428" y="683.24"/>
      <point x="415.929" y="683.24" type="curve" smooth="yes"/>
      <point x="423.404" y="683.24"/>
      <point x="426.715" y="683.829"/>
      <point x="426.715" y="685.208" type="curve" smooth="yes"/>
      <point x="426.715" y="687.185"/>
      <point x="419.903" y="691.366"/>
      <point x="400.544" y="702.177" type="curve" smooth="yes"/>
      <point x="349.202" y="730.847"/>
      <point x="334.842" y="741.524"/>
      <point x="334.842" y="747.305" type="curve" smooth="yes"/>
      <point x="334.842" y="750.23"/>
      <point x="338.521" y="751.975"/>
      <point x="343.548" y="751.975" type="curve" smooth="yes"/>
      <point x="374.93" y="751.975"/>
      <point x="489.588" y="684.018"/>
      <point x="489.588" y="666.044" type="curve" smooth="yes"/>
      <point x="489.588" y="660.1"/>
      <point x="477.048" y="653.869"/>
      <point x="356.458" y="599.933" type="curve" smooth="yes"/>
      <point x="355.182" y="599.362"/>
      <point x="355.182" y="599.362"/>
      <point x="355.182" y="599.362" type="curve" smooth="yes"/>
      <point x="347.557" y="599.362"/>
      <point x="344.709" y="601.213"/>
    </contour>
    <contour>
      <point x="223.122" y="44.9922" type="curve" smooth="yes"/>
      <point x="213.472" y="44.9922"/>
      <point x="206.498" y="50.3555"/>
      <point x="206.498" y="58.0742" type="curve" smooth="yes"/>
      <point x="206.498" y="75.6338"/>
      <point x="242.587" y="89.5439"/>
      <point x="280.415" y="89.5439" type="curve" smooth="yes"/>
      <point x="331.724" y="89.5439"/>
      <point x="367.828" y="63.9531"/>
      <point x="391.002" y="16.9883" type="curve" smooth="yes"/>
      <point x="396.094" y="6.66895"/>
      <point x="400.565" y="-4.69141"/>
      <point x="409.863" y="-32.0518" type="curve" smooth="yes"/>
      <point x="416.996" y="-53.043"/>
      <point x="420.469" y="-62.2031"/>
      <point x="426.143" y="-73.9658" type="curve" smooth="yes"/>
      <point x="453.228" y="-130.11"/>
      <point x="493.025" y="-167.949"/>
      <point x="526.866" y="-167.949" type="curve" smooth="yes"/>
      <point x="532.278" y="-167.949"/>
      <point x="537.711" y="-166.981"/>
      <point x="549.35" y="-163.823" type="curve" smooth="yes"/>
      <point x="558.337" y="-161.384"/>
      <point x="561.916" y="-160.715"/>
      <point x="565.215" y="-160.715" type="curve" smooth="yes"/>
      <point x="574.826" y="-160.715"/>
      <point x="581.258" y="-166.397"/>
      <point x="581.258" y="-174.898" type="curve" smooth="yes"/>
      <point x="581.258" y="-189.263"/>
      <point x="562.894" y="-199.8"/>
      <point x="536.168" y="-199.8" type="curve" smooth="yes"/>
      <point x="494.183" y="-199.8"/>
      <point x="455.729" y="-173.796"/>
      <point x="425.159" y="-123.151" type="curve" smooth="yes"/>
      <point x="417.653" y="-110.716"/>
      <point x="410.545" y="-96.666"/>
      <point x="395.33" y="-63.791" type="curve" smooth="yes"/>
      <point x="377.778" y="-25.8701"/>
      <point x="370.267" y="-11.377"/>
      <point x="361.636" y="1.36328" type="curve" smooth="yes"/>
      <point x="337.978" y="36.2842"/>
      <point x="307.765" y="55.2998"/>
      <point x="275.529" y="55.2998" type="curve" smooth="yes"/>
      <point x="266.481" y="55.2998"/>
      <point x="258.502" y="53.8018"/>
      <point x="242.559" y="49.1357" type="curve" smooth="yes"/>
      <point x="231.324" y="45.8486"/>
      <point x="226.978" y="44.9922"/>
    </contour>
    <contour>
      <point x="198.311" y="569.362" type="curve" smooth="yes"/>
      <point x="381.994" y="569.362"/>
      <point x="560.854" y="561.193"/>
      <point x="560.854" y="549.631" type="curve" smooth="yes"/>
      <point x="560.854" y="544.699"/>
      <point x="528.308" y="510.83"/>
      <point x="434.269" y="418.339" type="curve" smooth="yes"/>
      <point x="316.899" y="302.9"/>
      <point x="288.096" y="271.678"/>
      <point x="288.096" y="260.326" type="curve" smooth="yes"/>
      <point x="288.096" y="249.644"/>
      <point x="313.602" y="240.687"/>
      <point x="408.929" y="214.341" type="curve" smooth="yes"/>
      <point x="493.78" y="190.892"/>
      <point x="535.452" y="177.862"/>
      <point x="562.357" y="168.204" type="curve" smooth="yes"/>
      <point x="598.018" y="155.401"/>
      <point x="610.727" y="147.446"/>
      <point x="610.727" y="139.16" type="curve" smooth="yes"/>
      <point x="610.727" y="110.837"/>
      <point x="462.237" y="-42.4766"/>
      <point x="345.61" y="-141.399" type="curve" smooth="yes"/>
      <point x="294.557" y="-184.703"/>
      <point x="274.872" y="-196.155"/>
      <point x="264.79" y="-196.155" type="curve" smooth="yes"/>
      <point x="255.593" y="-196.155"/>
      <point x="247.426" y="-186.626"/>
      <point x="247.426" y="-176.068" type="curve" smooth="yes"/>
      <point x="247.426" y="-173.347"/>
      <point x="247.969" y="-170.888"/>
      <point x="249.176" y="-168.43" type="curve" smooth="yes"/>
      <point x="253.908" y="-158.797"/>
      <point x="274.363" y="-137.955"/>
      <point x="338.212" y="-77.1094" type="curve" smooth="yes"/>
      <point x="475.286" y="53.5137"/>
      <point x="516.852" y="99.3457"/>
      <point x="516.852" y="117.552" type="curve" smooth="yes"/>
      <point x="516.852" y="127.479"/>
      <point x="504.492" y="134.832"/>
      <point x="468.162" y="146.595" type="curve" smooth="yes"/>
      <point x="450.867" y="152.194"/>
      <point x="428.674" y="158.62"/>
      <point x="371.871" y="174.342" type="curve" smooth="yes"/>
      <point x="300.276" y="194.157"/>
      <point x="272.184" y="202.381"/>
      <point x="249.688" y="210.066" type="curve" smooth="yes"/>
      <point x="205.49" y="225.167"/>
      <point x="189.424" y="235.961"/>
      <point x="189.424" y="250.462" type="curve" smooth="yes"/>
      <point x="189.424" y="274.169"/>
      <point x="232.363" y="319.031"/>
      <point x="373.574" y="436.826" type="curve" smooth="yes"/>
      <point x="431.179" y="484.878"/>
      <point x="449.053" y="501.292"/>
      <point x="449.053" y="507.941" type="curve" smooth="yes"/>
      <point x="449.053" y="512.498"/>
      <point x="440.66" y="514.426"/>
      <point x="368.851" y="516.729" type="curve" smooth="yes"/>
      <point x="182.036" y="522.724"/>
      <point x="23" y="539.058"/>
      <point x="23" y="556.273" type="curve" smooth="yes"/>
      <point x="23" y="564.964"/>
      <point x="63.5254" y="569.362"/>
    </contour>
  </outline>
</glyph>
<glyph name="R" format="2">
  <advance width="884"/>
  <unicode hex="0052"/>
  <outline>
    <contour>
      <point x="700.158" y="628.969" type="curve" smooth="yes"/>
      <point x="700.158" y="644.526"/>
      <point x="722.331" y="658.608"/>
      <point x="783.695" y="678.168" type="curve" smooth="yes"/>
      <point x="793.658" y="681.344"/>
      <point x="797.057" y="682.611"/>
      <point x="797.057" y="683.63" type="curve" smooth="yes"/>
      <point x="797.057" y="684.772"/>
      <point x="792.773" y="685.215"/>
      <point x="782.058" y="685.215" type="curve" smooth="yes"/>
      <point x="775.024" y="685.215"/>
      <point x="765.156" y="685.024"/>
      <point x="738.074" y="684.386" type="curve" smooth="yes"/>
      <point x="676.976" y="682.946"/>
      <point x="649.059" y="682.506"/>
      <point x="625.017" y="682.506" type="curve" smooth="yes"/>
      <point x="529.627" y="682.506"/>
      <point x="480.133" y="689.434"/>
      <point x="480.133" y="702.268" type="curve" smooth="yes"/>
      <point x="480.133" y="713.696"/>
      <point x="519.376" y="720.656"/>
      <point x="582.517" y="720.656" type="curve" smooth="yes"/>
      <point x="607.326" y="720.656"/>
      <point x="639.68" y="719.582"/>
      <point x="715.586" y="716.332" type="curve" smooth="yes"/>
      <point x="759.203" y="714.465"/>
      <point x="772.68" y="713.991"/>
      <point x="779.437" y="713.991" type="curve" smooth="yes"/>
      <point x="787.363" y="713.991"/>
      <point x="791.027" y="714.643"/>
      <point x="791.027" y="716.041" type="curve" smooth="yes"/>
      <point x="791.027" y="717.988"/>
      <point x="783.924" y="722.747"/>
      <point x="754.011" y="739.449" type="curve" smooth="yes"/>
      <point x="705.816" y="766.359"/>
      <point x="689.227" y="777.681"/>
      <point x="689.227" y="784.725" type="curve" smooth="yes"/>
      <point x="689.227" y="788.217"/>
      <point x="693.305" y="790.149"/>
      <point x="698.875" y="790.149" type="curve" smooth="yes"/>
      <point x="733.646" y="790.149"/>
      <point x="860.691" y="714.851"/>
      <point x="860.691" y="694.939" type="curve" smooth="yes"/>
      <point x="860.691" y="688.35"/>
      <point x="846.775" y="681.438"/>
      <point x="713.243" y="621.713" type="curve" smooth="yes"/>
      <point x="711.762" y="621.05"/>
      <point x="711.762" y="621.05"/>
      <point x="711.762" y="621.05" type="curve" smooth="yes"/>
      <point x="703.313" y="621.05"/>
      <point x="700.158" y="623.101"/>
    </contour>
    <contour>
      <point x="468.955" y="411.562" type="curve" smooth="yes"/>
      <point x="468.955" y="406.604"/>
      <point x="468.961" y="402.772"/>
      <point x="468.984" y="391.153" type="curve" smooth="yes"/>
      <point x="469.032" y="367.856"/>
      <point x="469.047" y="354.542"/>
      <point x="469.047" y="339.923" type="curve" smooth="yes"/>
      <point x="469.047" y="143.789"/>
      <point x="466.433" y="18.7793"/>
      <point x="460.444" y="-67.2197" type="curve" smooth="yes"/>
      <point x="452.585" y="-180.074"/>
      <point x="440.738" y="-199.55"/>
      <point x="339.807" y="-199.55" type="curve" smooth="yes"/>
      <point x="279.227" y="-199.55"/>
      <point x="72.7764" y="-192.534"/>
      <point x="40.1113" y="-187.775" type="curve" smooth="yes"/>
      <point x="29.6533" y="-186.252"/>
      <point x="23" y="-182.919"/>
      <point x="23" y="-178.453" type="curve" smooth="yes"/>
      <point x="23" y="-167.117"/>
      <point x="65.8691" y="-150.246"/>
      <point x="95.0352" y="-150.246" type="curve" smooth="yes"/>
      <point x="97.9805" y="-150.246"/>
      <point x="104.219" y="-150.418"/>
      <point x="118.426" y="-150.844" type="curve" smooth="yes"/>
      <point x="221.474" y="-153.927"/>
      <point x="282.26" y="-155.011"/>
      <point x="310.155" y="-155.011" type="curve" smooth="yes"/>
      <point x="399.584" y="-155.011"/>
      <point x="407.215" y="-143.872"/>
      <point x="414.499" y="-41.0762" type="curve" smooth="yes"/>
      <point x="418.886" y="20.833"/>
      <point x="421.212" y="88.6777"/>
      <point x="424.979" y="270.056" type="curve" smooth="yes"/>
      <point x="427.253" y="379.598"/>
      <point x="428.57" y="426.954"/>
      <point x="430.132" y="459.29" type="curve" smooth="yes"/>
      <point x="435.551" y="571.532"/>
      <point x="447.53" y="577.576"/>
      <point x="620.609" y="577.576" type="curve" smooth="yes"/>
      <point x="780.622" y="577.576"/>
      <point x="816.578" y="572.41"/>
      <point x="816.578" y="552.749" type="curve" smooth="yes"/>
      <point x="816.578" y="537.01"/>
      <point x="793.534" y="507.522"/>
      <point x="633.231" y="375.131" type="curve" smooth="yes"/>
      <point x="582.46" y="333.2"/>
      <point x="539.256" y="296.471"/>
      <point x="478.562" y="240.714" type="curve" smooth="yes"/>
      <point x="468.036" y="231.044"/>
      <point x="458.976" y="222.81"/>
      <point x="431.047" y="197.888" type="curve" smooth="yes"/>
      <point x="430.033" y="196.983"/>
      <point x="430.033" y="196.983"/>
      <point x="410.874" y="177.377" type="curve" smooth="yes"/>
      <point x="322.428" y="86.8662"/>
      <point x="302.734" y="66.7246"/>
      <point x="291.54" y="55.2891" type="curve" smooth="yes"/>
      <point x="106.718" y="-133.519"/>
      <point x="52.6914" y="-182.054"/>
      <point x="30.4717" y="-182.054" type="curve" smooth="yes"/>
      <point x="26.1816" y="-182.054"/>
      <point x="24.4688" y="-180.244"/>
      <point x="24.4688" y="-175.725" type="curve" smooth="yes"/>
      <point x="24.4688" y="-140.796"/>
      <point x="126.779" y="-37.7861"/>
      <point x="461.789" y="263.66" type="curve" smooth="yes"/>
      <point x="675.618" y="456.067"/>
      <point x="735.746" y="514.632"/>
      <point x="735.746" y="529.904" type="curve" smooth="yes"/>
      <point x="735.746" y="540.659"/>
      <point x="705.932" y="545.452"/>
      <point x="642.818" y="545.452" type="curve" smooth="yes"/>
      <point x="584.408" y="545.452"/>
      <point x="532.489" y="541.348"/>
      <point x="503.442" y="534.67" type="curve" smooth="yes"/>
      <point x="471.592" y="527.349"/>
      <point x="468.955" y="517.327"/>
    </contour>
  </outline>
</glyph>
<glyph name="S" format="2">
  <advance width="785"/>
  <unicode hex="0053"/>
  <outline>
    <contour>
      <point x="441.394" y="176.732" type="curve" smooth="yes"/>
      <point x="441.394" y="199.727"/>
      <point x="474.742" y="221.859"/>
      <point x="569.965" y="252.21" type="curve" smooth="yes"/>
      <point x="583.396" y="256.49"/>
      <point x="588.617" y="258.383"/>
      <point x="588.617" y="259.96" type="curve" smooth="yes"/>
      <point x="588.617" y="261.719"/>
      <point x="582.122" y="262.39"/>
      <point x="565.616" y="262.39" type="curve" smooth="yes"/>
      <point x="554.666" y="262.39"/>
      <point x="539.888" y="262.095"/>
      <point x="503.134" y="261.229" type="curve" smooth="yes"/>
      <point x="405.688" y="258.932"/>
      <point x="361.717" y="258.274"/>
      <point x="325.846" y="258.274" type="curve" smooth="yes"/>
      <point x="182.294" y="258.274"/>
      <point x="107.089" y="268.801"/>
      <point x="107.089" y="288.301" type="curve" smooth="yes"/>
      <point x="107.089" y="305.663"/>
      <point x="166.711" y="316.237"/>
      <point x="261.797" y="316.237" type="curve" smooth="yes"/>
      <point x="298.958" y="316.237"/>
      <point x="349.127" y="314.622"/>
      <point x="471.789" y="309.371" type="curve" smooth="yes"/>
      <point x="530.563" y="306.854"/>
      <point x="550.768" y="306.113"/>
      <point x="561.486" y="306.113" type="curve" smooth="yes"/>
      <point x="573.881" y="306.113"/>
      <point x="579.454" y="307.104"/>
      <point x="579.454" y="309.411" type="curve" smooth="yes"/>
      <point x="579.454" y="312.713"/>
      <point x="568.041" y="319.764"/>
      <point x="534.084" y="338.725" type="curve" smooth="yes"/>
      <point x="449.125" y="386.165"/>
      <point x="424.781" y="403.995"/>
      <point x="424.781" y="413.896" type="curve" smooth="yes"/>
      <point x="424.781" y="418.89"/>
      <point x="430.978" y="421.825"/>
      <point x="439.44" y="421.825" type="curve" smooth="yes"/>
      <point x="492.274" y="421.825"/>
      <point x="685.306" y="307.417"/>
      <point x="685.306" y="277.158" type="curve" smooth="yes"/>
      <point x="685.306" y="267.15"/>
      <point x="664.188" y="256.663"/>
      <point x="462.308" y="166.368" type="curve" smooth="yes"/>
      <point x="459.022" y="164.898"/>
      <point x="459.022" y="164.898"/>
      <point x="459.022" y="164.898" type="curve" smooth="yes"/>
      <point x="446.188" y="164.898"/>
      <point x="441.394" y="168.015"/>
    </contour>
    <contour>
      <point x="762.424" y="-51.0039" type="curve" smooth="yes"/>
      <point x="762.424" y="-106.148"/>
      <point x="680.08" y="-161.841"/>
      <point x="583.359" y="-161.841" type="curve" smooth="yes"/>
      <point x="541.434" y="-161.841"/>
      <point x="497.472" y="-151.376"/>
      <point x="397.653" y="-114.882" type="curve" smooth="yes"/>
      <point x="308.272" y="-82.2031"/>
      <point x="269.723" y="-72.6064"/>
      <point x="227.106" y="-72.6064" type="curve" smooth="yes"/>
      <point x="160.214" y="-72.6064"/>
      <point x="120.807" y="-96.252"/>
      <point x="79.9854" y="-170.979" type="curve" smooth="yes"/>
      <point x="68.1475" y="-192.65"/>
      <point x="62.0322" y="-199.768"/>
      <point x="50.6953" y="-199.768" type="curve" smooth="yes"/>
      <point x="35.7627" y="-199.768"/>
      <point x="23" y="-187.419"/>
      <point x="23" y="-164.85" type="curve" smooth="yes"/>
      <point x="23" y="-99.04"/>
      <point x="131.518" y="-9.72949"/>
      <point x="233.084" y="-9.72949" type="curve" smooth="yes"/>
      <point x="267.667" y="-9.72949"/>
      <point x="299.037" y="-20.083"/>
      <point x="365.921" y="-53" type="curve" smooth="yes"/>
      <point x="465.079" y="-101.801"/>
      <point x="514.995" y="-115.187"/>
      <point x="578.037" y="-115.187" type="curve" smooth="yes"/>
      <point x="648.798" y="-115.187"/>
      <point x="678.676" y="-98.3223"/>
      <point x="704.052" y="-49.2881" type="curve" smooth="yes"/>
      <point x="716.098" y="-26.0127"/>
      <point x="723.825" y="-20.2871"/>
      <point x="735.546" y="-20.2871" type="curve" smooth="yes"/>
      <point x="751.556" y="-20.2871"/>
      <point x="762.424" y="-30.9697"/>
    </contour>
  </outline>
</glyph>
<glyph name="T" format="2">
  <advance width="1053"/>
  <unicode hex="0054"/>
  <outline>
    <contour>
      <point x="638.783" y="305.404" type="curve" smooth="yes"/>
      <point x="638.783" y="321.228"/>
      <point x="661.108" y="335.015"/>
      <point x="721.361" y="354.22" type="curve" smooth="yes"/>
      <point x="732.341" y="357.719"/>
      <point x="735.682" y="359.004"/>
      <point x="735.682" y="360.001" type="curve" smooth="yes"/>
      <point x="735.682" y="361.128"/>
      <point x="731.403" y="361.57"/>
      <point x="720.588" y="361.57" type="curve" smooth="yes"/>
      <point x="713.463" y="361.57"/>
      <point x="703.729" y="361.378"/>
      <point x="678.185" y="360.776" type="curve" smooth="yes"/>
      <point x="615.485" y="359.298"/>
      <point x="586.978" y="358.861"/>
      <point x="563.146" y="358.861" type="curve" smooth="yes"/>
      <point x="468.257" y="358.861"/>
      <point x="418.76" y="365.79"/>
      <point x="418.76" y="378.624" type="curve" smooth="yes"/>
      <point x="418.76" y="390.052"/>
      <point x="457.999" y="397.011"/>
      <point x="520.418" y="397.011" type="curve" smooth="yes"/>
      <point x="544.812" y="397.011"/>
      <point x="578.076" y="395.948"/>
      <point x="659.617" y="392.456" type="curve" smooth="yes"/>
      <point x="697.559" y="390.831"/>
      <point x="710.691" y="390.346"/>
      <point x="717.774" y="390.346" type="curve" smooth="yes"/>
      <point x="725.983" y="390.346"/>
      <point x="729.648" y="390.998"/>
      <point x="729.648" y="392.464" type="curve" smooth="yes"/>
      <point x="729.648" y="394.533"/>
      <point x="722.337" y="399.218"/>
      <point x="695.906" y="413.977" type="curve" smooth="yes"/>
      <point x="644.246" y="442.823"/>
      <point x="627.85" y="454.281"/>
      <point x="627.85" y="461.148" type="curve" smooth="yes"/>
      <point x="627.85" y="464.572"/>
      <point x="631.928" y="466.506"/>
      <point x="637.499" y="466.506" type="curve" smooth="yes"/>
      <point x="672.268" y="466.506"/>
      <point x="799.316" y="391.205"/>
      <point x="799.316" y="371.294" type="curve" smooth="yes"/>
      <point x="799.316" y="364.704"/>
      <point x="785.4" y="357.793"/>
      <point x="651.868" y="298.067" type="curve" smooth="yes"/>
      <point x="650.387" y="297.404"/>
      <point x="650.387" y="297.404"/>
      <point x="650.387" y="297.404" type="curve" smooth="yes"/>
      <point x="641.938" y="297.404"/>
      <point x="638.783" y="299.456"/>
    </contour>
    <contour>
      <point x="868.483" y="-127.193" type="curve" smooth="yes"/>
      <point x="842.062" y="-127.193"/>
      <point x="783.9" y="-103.822"/>
      <point x="652.866" y="-46.5947" type="curve" smooth="yes"/>
      <point x="343.01" y="88.7285"/>
      <point x="246.111" y="119.701"/>
      <point x="212.97" y="119.701" type="curve" smooth="yes"/>
      <point x="197.53" y="119.701"/>
      <point x="193.378" y="112.979"/>
      <point x="170.596" y="59.9941" type="curve" smooth="yes"/>
      <point x="99.9004" y="-104.424"/>
      <point x="48.0215" y="-196.809"/>
      <point x="28.1309" y="-196.809" type="curve" smooth="yes"/>
      <point x="25.0518" y="-196.809"/>
      <point x="23" y="-194.595"/>
      <point x="23" y="-191.554" type="curve" smooth="yes"/>
      <point x="23" y="-168.269"/>
      <point x="143.265" y="110.65"/>
      <point x="171.957" y="153.133" type="curve" smooth="yes"/>
      <point x="182.188" y="168.281"/>
      <point x="196.062" y="176.001"/>
      <point x="215.907" y="176.001" type="curve" smooth="yes"/>
      <point x="260.228" y="176.001"/>
      <point x="358.017" y="137.499"/>
      <point x="628.865" y="12.1143" type="curve" smooth="yes"/>
      <point x="785.132" y="-60.2266"/>
      <point x="834.277" y="-80.7246"/>
      <point x="851.816" y="-80.7246" type="curve" smooth="yes"/>
      <point x="860.003" y="-80.7246"/>
      <point x="866.539" y="-76.2588"/>
      <point x="876.624" y="-63.3252" type="curve" smooth="yes"/>
      <point x="912.389" y="-17.46"/>
      <point x="972.43" y="108.796"/>
      <point x="972.43" y="140.041" type="curve" smooth="yes"/>
      <point x="972.43" y="146.672"/>
      <point x="969.726" y="149.925"/>
      <point x="962.628" y="149.925" type="curve" smooth="yes"/>
      <point x="942.051" y="149.925"/>
      <point x="870.947" y="122.589"/>
      <point x="623.521" y="16.9463" type="curve" smooth="yes"/>
      <point x="240.653" y="-146.525"/>
      <point x="99.459" y="-199.573"/>
      <point x="41.5039" y="-199.573" type="curve" smooth="yes"/>
      <point x="29.832" y="-199.573"/>
      <point x="25.2207" y="-197.422"/>
      <point x="25.2207" y="-192.02" type="curve" smooth="yes"/>
      <point x="25.2207" y="-173.582"/>
      <point x="78.9385" y="-149.541"/>
      <point x="328.653" y="-62.6445" type="curve" smooth="yes"/>
      <point x="457.77" y="-17.7148"/>
      <point x="530.916" y="9.16992"/>
      <point x="611.907" y="42.5977" type="curve" smooth="yes"/>
      <point x="680.074" y="70.7314"/>
      <point x="734.287" y="95.4482"/>
      <point x="824.658" y="138.792" type="curve" smooth="yes"/>
      <point x="957.037" y="202.283"/>
      <point x="989.829" y="215.252"/>
      <point x="1009.67" y="215.252" type="curve" smooth="yes"/>
      <point x="1023.29" y="215.252"/>
      <point x="1029.78" y="209.142"/>
      <point x="1029.78" y="197.109" type="curve" smooth="yes"/>
      <point x="1029.78" y="174.432"/>
      <point x="1006.74" y="114.978"/>
      <point x="947.911" y="-11.1787" type="curve" smooth="yes"/>
      <point x="901.668" y="-110.348"/>
      <point x="890.916" y="-127.193"/>
    </contour>
  </outline>
</glyph>
<glyph name="U" format="2">
  <advance width="910"/>
  <unicode hex="0055"/>
  <outline>
    <contour>
      <point x="409.359" y="587.956" type="curve" smooth="yes"/>
      <point x="409.359" y="602.619"/>
      <point x="430.5" y="616.447"/>
      <point x="490.313" y="635.513" type="curve" smooth="yes"/>
      <point x="499.094" y="638.311"/>
      <point x="502.38" y="639.511"/>
      <point x="502.38" y="640.503" type="curve" smooth="yes"/>
      <point x="502.38" y="641.61"/>
      <point x="498.278" y="642.034"/>
      <point x="487.81" y="642.034" type="curve" smooth="yes"/>
      <point x="480.798" y="642.034"/>
      <point x="471.408" y="641.844"/>
      <point x="449.853" y="641.336" type="curve" smooth="yes"/>
      <point x="386.492" y="639.844"/>
      <point x="358.164" y="639.435"/>
      <point x="335.808" y="639.435" type="curve" smooth="yes"/>
      <point x="245.646" y="639.435"/>
      <point x="198.134" y="646.085"/>
      <point x="198.134" y="658.405" type="curve" smooth="yes"/>
      <point x="198.134" y="669.375"/>
      <point x="235.806" y="676.057"/>
      <point x="296.316" y="676.057" type="curve" smooth="yes"/>
      <point x="320.1" y="676.057"/>
      <point x="351.347" y="675.024"/>
      <point x="424.954" y="671.874" type="curve" smooth="yes"/>
      <point x="465.882" y="670.121"/>
      <point x="478.86" y="669.661"/>
      <point x="485.426" y="669.661" type="curve" smooth="yes"/>
      <point x="493.075" y="669.661"/>
      <point x="496.59" y="670.286"/>
      <point x="496.59" y="671.727" type="curve" smooth="yes"/>
      <point x="496.59" y="673.781"/>
      <point x="489.432" y="678.257"/>
      <point x="466.516" y="691.053" type="curve" smooth="yes"/>
      <point x="414.398" y="720.154"/>
      <point x="398.863" y="731.299"/>
      <point x="398.863" y="737.702" type="curve" smooth="yes"/>
      <point x="398.863" y="740.917"/>
      <point x="402.778" y="742.772"/>
      <point x="408.127" y="742.772" type="curve" smooth="yes"/>
      <point x="441.508" y="742.772"/>
      <point x="563.47" y="670.485"/>
      <point x="563.47" y="651.357" type="curve" smooth="yes"/>
      <point x="563.47" y="645.056"/>
      <point x="550.228" y="638.461"/>
      <point x="422.147" y="581.173" type="curve" smooth="yes"/>
      <point x="420.499" y="580.436"/>
      <point x="420.499" y="580.436"/>
      <point x="420.499" y="580.436" type="curve" smooth="yes"/>
      <point x="412.389" y="580.436"/>
      <point x="409.359" y="582.404"/>
    </contour>
    <contour>
      <point x="716.102" y="-199.433" type="curve" smooth="yes"/>
      <point x="634.062" y="-199.433"/>
      <point x="621.589" y="-189.513"/>
      <point x="621.589" y="-91.6504" type="curve" smooth="yes"/>
      <point x="621.589" y="-72.3994"/>
      <point x="622.071" y="-42.1846"/>
      <point x="625.022" y="94.6631" type="curve" smooth="yes"/>
      <point x="628.892" y="274.09"/>
      <point x="630.604" y="367.073"/>
      <point x="630.604" y="396.1" type="curve" smooth="yes"/>
      <point x="630.604" y="459.471"/>
      <point x="622.44" y="502.005"/>
      <point x="610.895" y="502.039" type="curve"/>
      <point x="561.393" y="502.185"/>
      <point x="511.66" y="502.327"/>
      <point x="444.011" y="502.514" type="curve" smooth="yes"/>
      <point x="379.359" y="502.692"/>
      <point x="376.056" y="502.705"/>
      <point x="376.056" y="502.78" type="curve" smooth="yes"/>
      <point x="376.056" y="503.217"/>
      <point x="265.623" y="503.977"/>
      <point x="215.828" y="503.977" type="curve" smooth="yes"/>
      <point x="108.7" y="503.977"/>
      <point x="104.234" y="500.461"/>
      <point x="97.3281" y="411.028" type="curve" smooth="yes"/>
      <point x="93.8994" y="366.616"/>
      <point x="90.584" y="310.296"/>
      <point x="85.7939" y="210.046" type="curve" smooth="yes"/>
      <point x="70.832" y="-103.104"/>
      <point x="60.7002" y="-188.096"/>
      <point x="37.2129" y="-199.796" type="curve" smooth="yes"/>
      <point x="28.8359" y="-203.969"/>
      <point x="24" y="-196.208"/>
      <point x="24" y="-181.825" type="curve"/>
      <point x="24" y="-81.9844"/>
      <point x="28.9023" y="297.123"/>
      <point x="32.0811" y="452.074" type="curve" smooth="yes"/>
      <point x="34.0215" y="546.696"/>
      <point x="35.1094" y="547.494"/>
      <point x="141.456" y="547.494" type="curve" smooth="yes"/>
      <point x="566.033" y="547.494" type="line" smooth="yes"/>
      <point x="679.81" y="547.494"/>
      <point x="684.729" y="543.315"/>
      <point x="688.727" y="442.104" type="curve" smooth="yes"/>
      <point x="692.398" y="349.133"/>
      <point x="693.729" y="213.869"/>
      <point x="693.729" y="-70.1602" type="curve" smooth="yes"/>
      <point x="693.729" y="-70.3975" type="line" smooth="yes"/>
      <point x="693.729" y="-143.912"/>
      <point x="695.542" y="-146.898"/>
      <point x="717.971" y="-146.898" type="curve" smooth="yes"/>
      <point x="719.459" y="-146.898"/>
      <point x="720.92" y="-146.886"/>
      <point x="725.282" y="-146.834" type="curve" smooth="yes"/>
      <point x="739.747" y="-146.664"/>
      <point x="748.919" y="-146.604"/>
      <point x="759.832" y="-146.604" type="curve" smooth="yes"/>
      <point x="854.542" y="-146.604"/>
      <point x="886.984" y="-151.102"/>
      <point x="886.984" y="-164.566" type="curve" smooth="yes"/>
      <point x="886.984" y="-184.267"/>
      <point x="817.538" y="-199.433"/>
    </contour>
  </outline>
</glyph>
